<svg xmlns="http://www.w3.org/2000/svg" xmlns:xlink="http://www.w3.org/1999/xlink" width="193.875" height="193.877" viewBox="-50.07 -53.277 193.875 193.877"><defs><path id="a" d="M45.183 140.6L-50.07 45.345l98.625-98.622 95.25 95.25z"/></defs><clipPath id="b"><use xlink:href="#a" overflow="visible"/></clipPath><g clip-path="url(#b)" stroke-width="1.51"><path fill="#666" stroke="#666" d="M131.667-4.678l22.238 19.898-35.113-35.113 12.875 15.215z"/><path fill="#8B8B8B" stroke="#8B8B8B" d="M-29.853 110.024l-18.726-21.065-18.726-16.387 37.452 37.452z"/><path fill="#929292" stroke="#929292" d="M91.871-37.449l26.921 17.556-51.497-46.816 24.576 29.26z"/><path fill="#848484" stroke="#848484" d="M67.295-66.709l51.497 46.816-60.861-60.861 9.364 14.045z"/><path fill="#636363" stroke="#636363" d="M-67.305 72.572L-80.18 40.97l-15.215-12.875 28.09 44.477z"/><path fill="#545454" stroke="#545454" d="M16.965-77.244l10.536-22.238L4.092-80.754l12.873 3.51z"/><path fill="#747474" stroke="#747474" d="M.578-65.539l3.513-15.215-23.408 23.408L.578-65.539z"/><path fill="#595959" stroke="#595959" d="M-95.395 28.096l17.557-3.512-10.536-17.557-7.021 21.069z"/><path fill="#676767" stroke="#676767" d="M-77.839 24.583l7.021-16.385-17.557-1.172 10.536 17.557z"/><path fill="#6F6F6F" stroke="#6F6F6F" d="M-70.817 8.199l10.535-19.898-28.092 18.726 17.557 1.172z"/><path fill="#767676" stroke="#767676" d="M-60.282-11.699l3.51-10.534-31.602 29.26 28.092-18.726z"/><path fill="#999" stroke="#999" d="M-50.919-28.086l28.09-2.34-14.046-14.045-14.044 16.385z"/><path fill="#949494" stroke="#949494" d="M-22.829-30.426l3.512-26.919-17.559 12.875 14.047 14.044z"/><path fill="#7E7E7E" stroke="#7E7E7E" d="M-19.317-57.346L4.092-80.754l-40.967 36.283 17.558-12.875z"/><path fill="#7F7F7F" stroke="#7F7F7F" d="M-88.374 7.027l31.602-29.26 19.897-22.238-51.499 51.498z"/><path fill="#8C8C8C" stroke="#8C8C8C" d="M-56.772-22.233l5.853-5.853 14.044-16.385-19.897 22.238z"/><path fill="#9E9E9E" stroke="#9E9E9E" d="M-22.829-30.426l19.897-8.192-16.385-18.727-3.512 26.919z"/><path fill="#A4A4A4" stroke="#A4A4A4" d="M-31.022-8.189l8.193-22.237-28.09 2.34 19.897 19.897z"/><path fill="#A4A4A4" stroke="#A4A4A4" d="M-34.533-7.017l3.511-1.172-19.897-19.897 16.386 21.069z"/><path fill="#969696" stroke="#969696" d="M-34.533-7.017l-16.386-21.069-5.853 5.853 22.239 15.216z"/><path fill="#939393" stroke="#939393" d="M-60.282-11.699l25.749 4.682-22.239-15.216-3.51 10.534z"/><path fill="#5B5B5B" stroke="#5B5B5B" d="M16.965-77.244l10.534 5.853.002-28.09-10.536 22.237z"/><path fill="#838383" stroke="#838383" d="M-70.817 8.199l14.045 4.681-3.51-24.579-10.535 19.898z"/><path fill="#707070" stroke="#707070" d="M.578-65.539l8.193 3.512-4.68-18.727L.578-65.539z"/><path fill="#676767" stroke="#676767" d="M8.772-62.027l8.193-15.217-12.874-3.51 4.681 18.727z"/><path fill="#8C8C8C" stroke="#8C8C8C" d="M-2.932-38.619l3.51-26.92-19.895 8.193 16.385 18.727z"/><path fill="#8E8E8E" stroke="#8E8E8E" d="M-2.932-38.619L8.772-57.346.579-65.539l-3.511 26.92z"/><path fill="#545454" stroke="#545454" d="M27.499-71.391l16.387-18.726-16.385-9.364-.002 28.09z"/><path fill="#949494" stroke="#949494" d="M-56.772 12.88l16.386-7.024-19.896-17.555 3.51 24.579z"/><path fill="#9D9D9D" stroke="#9D9D9D" d="M-40.386 5.856l5.853-12.873-25.749-4.682 19.896 17.555z"/><path fill="#606060" stroke="#606060" d="M-80.18 40.97l2.342-16.387-17.557 3.512L-80.18 40.97z"/><path fill="#777" stroke="#777" d="M-77.839 24.583l17.555-1.17-10.533-15.214-7.022 16.384z"/><path fill="#7F7F7F" stroke="#7F7F7F" d="M8.772-57.346v-4.681L.579-65.539l8.193 8.193z"/><path fill="#6D6D6D" stroke="#6D6D6D" d="M8.772-62.027l18.727-9.364-10.534-5.853-8.193 15.217z"/><path fill="#828282" stroke="#828282" d="M-60.283 23.414l3.511-10.534-14.045-4.681 10.534 15.215z"/><path fill="#727272" stroke="#727272" d="M-67.305 72.572l-.001-18.729L-80.18 40.97l12.875 31.602z"/><path fill="#646464" stroke="#646464" d="M27.499-71.391l15.217 3.512 1.17-22.238-16.387 18.726z"/><path fill="#9A9A9A" stroke="#9A9A9A" d="M-2.932-38.619l19.899 1.17-8.195-19.897-11.704 18.727z"/><path fill="#828282" stroke="#828282" d="M8.772-57.346l16.387 2.339-16.387-7.02v4.681z"/><path fill="#787878" stroke="#787878" d="M25.158-55.006l2.34-16.385-18.726 9.364 16.386 7.021z"/><path fill="#B3B3B3" stroke="#B3B3B3" d="M-31.022-8.189l16.386-2.338-8.192-19.899-8.194 22.237z"/><path fill="#AFAFAF" stroke="#AFAFAF" d="M-5.271-15.21l2.339-23.408-19.897 8.192L-5.271-15.21z"/><path fill="#B8B8B8" stroke="#B8B8B8" d="M-14.636-10.527l9.365-4.684-17.558-15.216 8.193 19.9z"/><path fill="#717171" stroke="#717171" d="M-80.18 40.97l21.068-4.682-18.726-11.705-2.342 16.387z"/><path fill="#7B7B7B" stroke="#7B7B7B" d="M-59.113 36.288l-1.171-12.875-17.555 1.17 18.726 11.705z"/><path fill="#5D5D5D" stroke="#5D5D5D" d="M42.716-67.879l15.215-12.875-14.045-9.363-1.17 22.238z"/><path fill="#8F8F8F" stroke="#8F8F8F" d="M16.967-37.449l8.191-17.558-16.386-2.339 8.195 19.897z"/><path fill="#9C9C9C" stroke="#9C9C9C" d="M-40.385 19.902l-.001-14.046-16.386 7.024 16.387 7.022z"/><path fill="#979797" stroke="#979797" d="M-48.577 23.414l8.192-3.511-16.387-7.022 8.195 10.533z"/><path fill="#B2B2B2" stroke="#B2B2B2" d="M-5.271-15.21l16.383-14.045-14.044-9.363-2.339 23.408z"/><path fill="#A7A7A7" stroke="#A7A7A7" d="M11.112-29.255l5.855-8.193-19.899-1.17 14.044 9.363z"/><path fill="#757575" stroke="#757575" d="M25.158-55.006l17.558-12.873-15.217-3.512-2.341 16.385z"/><path fill="#8D8D8D" stroke="#8D8D8D" d="M-60.283 23.414h11.706l-8.195-10.534-3.511 10.534z"/><path fill="#767676" stroke="#767676" d="M-67.306 53.843l8.193-17.555-21.067 4.682 12.874 12.873z"/><path fill="#B1B1B1" stroke="#B1B1B1" d="M-40.386 5.856l18.727 9.366-9.363-23.411-9.364 14.045z"/><path fill="#AAA" stroke="#AAA" d="M-40.386 5.856l9.364-14.045-3.511 1.172-5.853 12.873z"/><path fill="#BCBCBC" stroke="#BCBCBC" d="M-14.636 8.198v-18.725l-16.386 2.338 16.386 16.387z"/><path fill="#BFBFBF" stroke="#BFBFBF" d="M-21.659 15.222l7.023-7.024-16.386-16.387 9.363 23.411z"/><path fill="#7F7F7F" stroke="#7F7F7F" d="M48.567-55.005l-5.851-12.874-17.558 12.873 23.409.001z"/><path fill="#8A8A8A" stroke="#8A8A8A" d="M-59.113 36.288l10.535-12.875h-11.706l1.171 12.875z"/><path fill="#AFAFAF" stroke="#AFAFAF" d="M-40.385 19.902l18.726-4.681-18.727-9.366.001 14.047z"/><path fill="#6C6C6C" stroke="#6C6C6C" d="M67.295-66.709l-9.364-14.045-15.215 12.875 24.579 1.17z"/><path fill="#9E9E9E" stroke="#9E9E9E" d="M16.967-37.449l4.681 4.681 3.51-22.238-8.191 17.557z"/><path fill="#A1A1A1" stroke="#A1A1A1" d="M21.648-32.768h18.726L25.158-55.006l-3.51 22.238z"/><path fill="#929292" stroke="#929292" d="M40.374-32.768l8.192-22.237-23.408-.001 15.216 22.238z"/><path fill="#B7B7B7" stroke="#B7B7B7" d="M-26.34 24.583l4.681-9.362-18.726 4.681 14.045 4.681z"/><path fill="#C0C0C0" stroke="#C0C0C0" d="M19.305-16.381l-8.193-12.874L-5.271-15.21l24.576-1.171z"/><path fill="#8A8A8A" stroke="#8A8A8A" d="M-67.306 53.843l22.239-1.17-14.045-16.385-8.194 17.555z"/><path fill="#C8C8C8" stroke="#C8C8C8" d="M5.261-2.336L-5.271-15.21l-9.365 4.684 19.897 8.19z"/><path fill="#CCC" stroke="#CCC" d="M-14.636 8.198L5.261-2.336l-19.898-8.191V8.198z"/><path fill="#7C7C7C" stroke="#7C7C7C" d="M48.567-55.005l18.729-11.704-24.579-1.17 5.85 12.874z"/><path fill="#959595" stroke="#959595" d="M-59.113 36.288l17.558 10.535-7.022-23.409-10.536 12.874z"/><path fill="#A0A0A0" stroke="#A0A0A0" d="M-41.555 46.823l1.169-26.92-8.192 3.511 7.023 23.409z"/><path fill="#ADADAD" stroke="#ADADAD" d="M11.112-29.255l10.536-3.513-4.681-4.681-5.855 8.194zm-52.667 76.078l15.215-22.239-14.045-4.681-1.17 26.92z"/><path fill="#CBCBCB" stroke="#CBCBCB" d="M5.261-2.336l14.044-14.045-24.576 1.171L5.261-2.336z"/><path fill="#989898" stroke="#989898" d="M-45.067 52.673l3.512-5.851-17.558-10.535 14.046 16.386z"/><path fill="#B9B9B9" stroke="#B9B9B9" d="M19.305-16.381l2.343-16.387-10.536 3.513 8.193 12.874z"/><path fill="#858585" stroke="#858585" d="M69.634-55.005l-2.339-11.704-18.728 11.704h21.067z"/><path fill="#878787" stroke="#878787" d="M-67.305 72.572l25.749-11.706-25.75-7.022.001 18.728z"/><path fill="#929292" stroke="#929292" d="M-41.556 60.866l-3.511-8.192-22.239 1.17 25.75 7.022z"/><path fill="#909090" stroke="#909090" d="M-45.067 73.742l3.511-12.876-25.749 11.706 22.238 1.17z"/><path fill="#8A8A8A" stroke="#8A8A8A" d="M69.634-55.005l22.237 17.557-24.576-29.26 2.339 11.703z"/><path fill="#DADADA" stroke="#DADADA" d="M11.112 5.856L5.261-2.336-14.636 8.198l25.748-2.342z"/><path fill="#C2C2C2" stroke="#C2C2C2" d="M19.305-16.381l8.193 1.17-5.851-17.557-2.342 16.387z"/><path fill="#BABABA" stroke="#BABABA" d="M27.499-15.211l12.875-17.557H21.648l5.851 17.557z"/><path fill="#6A6A6A" stroke="#6A6A6A" d="M18.136 153.332l-24.579-29.26-23.41-14.048 47.989 43.308z"/><path fill="#BDBDBD" stroke="#BDBDBD" d="M27.499-15.211l15.215-8.191-2.34-9.365-12.875 17.556z"/><path fill="#B3B3B3" stroke="#B3B3B3" d="M-33.363 55.015l18.726-4.681-26.918-3.512 8.192 8.193z"/><path fill="#B9B9B9" stroke="#B9B9B9" d="M-41.555 46.823l26.918 3.512-11.703-25.752-15.215 22.24z"/><path fill="#C9C9C9" stroke="#C9C9C9" d="M-14.636 50.334l3.511-8.192-15.215-17.559 11.704 25.751z"/><path fill="#DBDBDB" stroke="#DBDBDB" d="M-2.932 29.267L11.112 5.856l-25.749 2.342 11.705 21.069z"/><path fill="#D0D0D0" stroke="#D0D0D0" d="M-2.932 29.267L-14.636 8.198l-7.023 7.024 18.727 14.045z"/><path fill="#CACACA" stroke="#CACACA" d="M-26.34 24.583l23.408 4.683-18.728-14.045-4.68 9.362z"/><path fill="#9E9E9E" stroke="#9E9E9E" d="M40.374-32.768l31.602-5.852-23.409-16.385-8.193 22.237z"/><path fill="#949494" stroke="#949494" d="M71.976-38.62l-2.342-16.386H48.567L71.976-38.62z"/><path fill="#ADADAD" stroke="#ADADAD" d="M55.589-22.233L71.976-38.62l-31.602 5.852 15.215 10.535z"/><path fill="#D7D7D7" stroke="#D7D7D7" d="M11.112 5.856l8.193-22.237L5.261-2.336l5.851 8.192z"/><path fill="#CFCFCF" stroke="#CFCFCF" d="M-11.125 42.142l8.193-12.875-23.408-4.683 15.215 17.558z"/><path fill="#E6E6E6" stroke="#E6E6E6" d="M-2.932 29.267l18.726-11.705-4.682-11.706-14.044 23.411z"/><path fill="#D3D3D3" stroke="#D3D3D3" d="M11.112 5.856l16.387-21.067-8.193-1.17-8.194 22.237z"/><path fill="#E6E6E6" stroke="#E6E6E6" d="M5.261 30.437l10.533-12.875-18.726 11.705 8.193 1.17z"/><path fill="#DCDCDC" stroke="#DCDCDC" d="M11.112 5.856l32.771-7.021-16.384-14.046L11.112 5.856z"/><path fill="#8A8A8A" stroke="#8A8A8A" d="M-48.579 88.958l3.512-15.217-22.238-1.17 18.726 16.387z"/><path fill="#A3A3A3" stroke="#A3A3A3" d="M-45.067 52.673l11.705 2.342-8.192-8.192-3.513 5.85z"/><path fill="#A3A3A3" stroke="#A3A3A3" d="M-41.556 60.866l8.194-5.851-11.705-2.342 3.511 8.193z"/><path fill="#B7B7B7" stroke="#B7B7B7" d="M42.714-23.403l12.875 1.17-15.215-10.535 2.34 9.365z"/><path fill="#CCC" stroke="#CCC" d="M43.883-1.166l7.025-14.045-8.194-8.192 1.169 22.237z"/><path fill="#E6E6E6" stroke="#E6E6E6" d="M15.794 17.562L43.883-1.166 11.112 5.856l4.682 11.706z"/><path fill="#CECECE" stroke="#CECECE" d="M43.883-1.166l-1.169-22.237-15.215 8.191L43.883-1.166z"/><path fill="#EAEAEA" stroke="#EAEAEA" d="M40.374 21.073l3.509-22.239-28.089 18.728 24.58 3.511z"/><path fill="#9B9B9B" stroke="#9B9B9B" d="M71.976-38.62l8.192 3.511-10.534-19.896 2.342 16.385z"/><path fill="#989898" stroke="#989898" d="M80.168-35.108l11.703-2.34-22.237-17.557 10.534 19.897z"/><path fill="#BBB" stroke="#BBB" d="M-18.148 63.208l3.512-12.873-18.726 4.681 15.214 8.192z"/><path fill="#A8A8A8" stroke="#A8A8A8" d="M-29.853 79.594l-3.51-24.579-8.194 5.851 11.704 18.728z"/><path fill="#A0A0A0" stroke="#A0A0A0" d="M-45.067 73.742l15.214 5.853-11.704-18.729-3.51 12.876z"/><path fill="#C0C0C0" stroke="#C0C0C0" d="M50.908-15.21l4.681-7.022-12.875-1.17 8.194 8.192z"/><path fill="#EBEBEB" stroke="#EBEBEB" d="M5.261 30.437h9.363l1.17-12.875L5.261 30.437z"/><path fill="#B1B1B1" stroke="#B1B1B1" d="M-29.853 79.594l11.705-16.387-15.214-8.192 3.509 24.579z"/><path fill="#929292" stroke="#929292" d="M96.555-30.427l22.237 10.535-26.921-17.557 4.684 7.022z"/><path fill="#B3B3B3" stroke="#B3B3B3" d="M55.589-22.233l12.875 8.192 3.512-24.579-16.387 16.387z"/><path fill="#F2F2F2" stroke="#F2F2F2" d="M29.839 26.925l10.535-5.852-24.58-3.511 14.045 9.363z"/><path fill="#DDD" stroke="#DDD" d="M-11.125 42.142L5.261 30.437l-8.193-1.17-8.193 12.875z"/><path fill="#E8E8E8" stroke="#E8E8E8" d="M40.374 21.073l8.192-8.193-4.683-14.046-3.509 22.239z"/><path fill="#ACACAC" stroke="#ACACAC" d="M68.464-14.041l11.704-21.068-8.192-3.511-3.512 24.579z"/><path fill="#DBDBDB" stroke="#DBDBDB" d="M4.091 62.038l1.171-31.601-16.387 11.706L4.091 62.038z"/><path fill="#999" stroke="#999" d="M-48.579 88.958l18.726-9.364-15.214-5.853-3.512 15.217z"/><path fill="#E6E6E6" stroke="#E6E6E6" d="M4.091 62.038l18.726-11.703L5.261 30.437l-1.17 31.601z"/><path fill="#D1D1D1" stroke="#D1D1D1" d="M-14.636 50.334L4.091 62.038l-15.216-19.896-3.511 8.192z"/><path fill="#C0C0C0" stroke="#C0C0C0" d="M50.908-15.21l17.556 1.17-12.875-8.192-4.681 7.022z"/><path fill="#F1F1F1" stroke="#F1F1F1" d="M14.624 30.437l15.215-3.511-14.045-9.363-1.17 12.874z"/><path fill="#C3C3C3" stroke="#C3C3C3" d="M-18.148 63.208l9.364 7.025-5.853-19.898-3.511 12.873z"/><path fill="#CDCDCD" stroke="#CDCDCD" d="M-8.784 70.233l12.875-8.195-18.727-11.703 5.852 19.898z"/><path fill="#ECECEC" stroke="#ECECEC" d="M22.817 50.334l-8.192-19.898H5.261l17.556 19.898z"/><path fill="#D2D2D2" stroke="#D2D2D2" d="M43.883-1.166l25.751 2.341L50.908-15.21 43.883-1.166z"/><path fill="#C8C8C8" stroke="#C8C8C8" d="M69.634 1.175l-1.17-15.216-17.556-1.17L69.634 1.175z"/><path fill="#B8B8B8" stroke="#B8B8B8" d="M-29.853 79.594l21.069-9.361-9.364-7.025-11.705 16.386z"/><path fill="#EEE" stroke="#EEE" d="M22.817 50.334l2.342-7.022-10.535-12.875 8.193 19.897z"/><path fill="#B3B3B3" stroke="#B3B3B3" d="M68.464-14.041h18.727l-7.022-21.068-11.705 21.068z"/><path fill="#DDD" stroke="#DDD" d="M48.567 12.88L69.634 1.175 43.883-1.166l4.684 14.046z"/><path fill="#9F9F9F" stroke="#9F9F9F" d="M-21.659 90.128l-8.193-10.534-18.726 9.364 26.919 1.17z"/><path fill="#969696" stroke="#969696" d="M-29.853 110.024l8.193-19.896-26.919-1.17 18.726 21.066z"/><path fill="#B6B6B6" stroke="#B6B6B6" d="M82.51-9.357l4.681-4.683H68.464L82.51-9.357z"/><path fill="#B0B0B0" stroke="#B0B0B0" d="M-21.659 90.128l12.875-19.896-21.069 9.361 8.194 10.535z"/><path fill="#F3F3F3" stroke="#F3F3F3" d="M25.158 43.312l4.681-16.387-15.215 3.511 10.534 12.876z"/><path fill="#9E9E9E" stroke="#9E9E9E" d="M96.555-30.427l-4.684-7.021-11.703 2.34 16.387 4.681z"/><path fill="#A7A7A7" stroke="#A7A7A7" d="M87.191-14.041l9.364-16.387-16.387-4.681 7.023 21.068z"/><path fill="#BFBFBF" stroke="#BFBFBF" d="M69.634 1.175L82.51-9.357 68.464-14.04l1.17 15.215z"/><path fill="#D5D5D5" stroke="#D5D5D5" d="M73.146 21.072L69.634 1.175 48.567 12.88l24.579 8.192z"/><path fill="#EFEFEF" stroke="#EFEFEF" d="M25.158 43.312l23.408 7.022-18.727-23.409-4.681 16.387z"/><path fill="#ECECEC" stroke="#ECECEC" d="M48.567 50.334l7.022-14.045-25.75-9.364 18.728 23.409z"/><path fill="#EDEDED" stroke="#EDEDED" d="M55.589 36.29L40.374 21.073l-10.535 5.852 25.75 9.365z"/><path fill="#DEDEDE" stroke="#DEDEDE" d="M28.67 60.869l-5.853-10.534L4.091 62.038l24.579-1.169z"/><path fill="#ABABAB" stroke="#ABABAB" d="M-21.659 90.128l21.068 11.703-8.192-31.599-12.876 19.896z"/><path fill="#AFAFAF" stroke="#AFAFAF" d="M-.592 101.832l12.875-12.875-21.067-18.724 8.192 31.599z"/><path fill="#C3C3C3" stroke="#C3C3C3" d="M12.284 88.957L4.091 62.038l-12.875 8.195 21.068 18.724z"/><path fill="#E8E8E8" stroke="#E8E8E8" d="M40.374 21.073L55.589 36.29l-7.022-23.41-8.193 8.193z"/><path fill="#DEDEDE" stroke="#DEDEDE" d="M55.589 36.29l17.557-15.217-24.579-8.193 7.022 23.41z"/><path fill="#939393" stroke="#939393" d="M-29.853 110.024l19.898-1.17-11.705-18.726-8.193 19.896z"/><path fill="#D3D3D3" stroke="#D3D3D3" d="M25.157 78.424l3.513-17.556-24.579 1.17 21.066 16.386z"/><path fill="#C3C3C3" stroke="#C3C3C3" d="M12.284 88.957l12.873-10.532L4.091 62.038l8.193 26.919z"/><path fill="#A4A4A4" stroke="#A4A4A4" d="M87.191-14.041l15.217 10.534-5.853-26.92-9.364 16.386z"/><path fill="#949494" stroke="#949494" d="M102.407-3.507l16.385-16.386-22.237-10.534 5.852 26.92z"/><path fill="#545454" stroke="#545454" d="M18.136 153.332l-7.023-14.045-17.556-15.215 24.579 29.26z"/><path fill="#BEBEBE" stroke="#BEBEBE" d="M82.51 11.71V-9.357L69.634 1.175 82.51 11.71z"/><path fill="#E7E7E7" stroke="#E7E7E7" d="M22.817 50.334l5.853 10.534-3.511-17.557-2.342 7.023z"/><path fill="#E6E6E6" stroke="#E6E6E6" d="M28.67 60.869l19.897-10.534-23.408-7.022 3.511 17.556z"/><path fill="#999" stroke="#999" d="M-9.954 108.854l9.363-7.022-21.068-11.703 11.705 18.725z"/><path fill="#C7C7C7" stroke="#C7C7C7" d="M73.146 21.072l9.364-9.362L69.634 1.175l3.512 19.897z"/><path fill="#D7D7D7" stroke="#D7D7D7" d="M66.123 37.458l7.022-16.385L55.589 36.29l10.534 1.168z"/><path fill="#ACACAC" stroke="#ACACAC" d="M102.407-3.507L87.191-14.041 82.51-9.357l19.897 5.85z"/><path fill="#AFAFAF" stroke="#AFAFAF" d="M82.51 11.71l19.897-15.217-19.897-5.85V11.71z"/><path fill="#9E9E9E" stroke="#9E9E9E" d="M-.592 101.832H4.09l8.193-12.875-12.875 12.875z"/><path fill="#828282" stroke="#828282" d="M-6.443 124.072l-3.511-15.218-19.898 1.17 23.409 14.048z"/><path fill="#D0D0D0" stroke="#D0D0D0" d="M38.032 77.252l14.045-2.342-3.511-24.576-10.534 26.918z"/><path fill="#939393" stroke="#939393" d="M107.089 1.175l11.703-21.068-16.385 16.386 4.682 4.682z"/><path fill="#A5A5A5" stroke="#A5A5A5" d="M107.089 1.175l-4.682-4.682L82.51 11.71l24.579-10.535z"/><path fill="#A9A9A9" stroke="#A9A9A9" d="M95.385 22.243l11.704-21.067L82.51 11.71l12.875 10.533z"/><path fill="#D8D8D8" stroke="#D8D8D8" d="M38.032 77.252l10.534-26.918L28.67 60.869l9.362 16.383z"/><path fill="#CBCBCB" stroke="#CBCBCB" d="M25.157 78.424l12.875-1.172-9.362-16.383-3.513 17.555z"/><path fill="#C1C1C1" stroke="#C1C1C1" d="M87.191 30.437L82.51 11.71l-9.364 9.362 14.045 9.365z"/><path fill="#DBDBDB" stroke="#DBDBDB" d="M48.567 50.334l21.067-2.342L55.589 36.29l-7.022 14.044z"/><path fill="#D6D6D6" stroke="#D6D6D6" d="M69.634 47.993l-3.511-10.535-10.534-1.168 14.045 11.703z"/><path fill="#828282" stroke="#828282" d="M107.089 1.175l24.578-5.853-12.875-15.215-11.703 21.068z"/><path fill="#B5B5B5" stroke="#B5B5B5" d="M87.191 30.437l8.194-8.194L82.51 11.71l4.681 18.727z"/><path fill="#C9C9C9" stroke="#C9C9C9" d="M66.123 37.458l21.067-7.021-14.045-9.364-7.022 16.385z"/><path fill="#C5C5C5" stroke="#C5C5C5" d="M77.828 49.163l9.362-18.726-21.067 7.021 11.705 11.705z"/><path fill="#C1C1C1" stroke="#C1C1C1" d="M33.352 81.934l4.681-4.682-12.875 1.172 8.194 3.51z"/><path fill="#8B8B8B" stroke="#8B8B8B" d="M-6.443 124.072l10.534-22.24H-.591l-5.852 22.24z"/><path fill="#9B9B9B" stroke="#9B9B9B" d="M4.091 101.832l10.534 5.854-2.34-18.729-8.194 12.875z"/><path fill="#BABABA" stroke="#BABABA" d="M33.352 81.934l-8.195-3.51-12.873 10.533 21.068-7.023z"/><path fill="#878787" stroke="#878787" d="M-6.443 124.072l5.852-22.24-9.363 7.022 3.511 15.218z"/><path fill="#D3D3D3" stroke="#D3D3D3" d="M68.464 63.208l1.17-15.215-21.067 2.342 19.897 12.873z"/><path fill="#D0D0D0" stroke="#D0D0D0" d="M52.077 74.911l16.387-11.703-19.897-12.874 3.51 24.577z"/><path fill="#878787" stroke="#878787" d="M-6.443 124.072l21.067-16.387-10.534-5.854-10.533 22.241z"/><path fill="#ADADAD" stroke="#ADADAD" d="M40.374 100.663l-7.022-18.729-21.068 7.022 28.09 11.707z"/><path fill="#9C9C9C" stroke="#9C9C9C" d="M14.624 107.685l25.75-7.022-28.09-11.706 2.34 18.728z"/><path fill="#767676" stroke="#767676" d="M12.284 128.752l2.34-21.067-21.067 16.387 18.727 4.68z"/><path fill="#949494" stroke="#949494" d="M95.385 22.243l26.919-3.511-15.215-17.557-11.704 21.068z"/><path fill="#CCC" stroke="#CCC" d="M69.634 47.993l8.194 1.17-11.705-11.705 3.511 10.535z"/><path fill="#828282" stroke="#828282" d="M122.304 18.732l9.363-23.41-24.578 5.853 15.215 17.557z"/><path fill="#8E8E8E" stroke="#8E8E8E" d="M38.032 110.024l2.342-9.361-25.75 7.022 23.408 2.339z"/><path fill="#8F8F8F" stroke="#8F8F8F" d="M114.112 33.947l8.192-15.215-26.919 3.511 18.727 11.704z"/><path fill="#B8B8B8" stroke="#B8B8B8" d="M77.828 49.163l9.362 4.681V30.437l-9.362 18.726z"/><path fill="#A9A9A9" stroke="#A9A9A9" d="M104.747 38.628l-9.362-16.386-8.194 8.194 17.556 8.192z"/><path fill="#ADADAD" stroke="#ADADAD" d="M40.374 100.663l11.703-14.046-18.726-4.683 7.023 18.729z"/><path fill="#BBB" stroke="#BBB" d="M33.352 81.934l18.726 4.683-14.045-9.364-4.681 4.681z"/><path fill="#BEBEBE" stroke="#BEBEBE" d="M52.077 86.617V74.911l-14.045 2.342 14.045 9.364z"/><path fill="#707070" stroke="#707070" d="M122.304 18.732l15.215-5.852-5.852-17.558-9.363 23.41z"/><path fill="#C6C6C6" stroke="#C6C6C6" d="M68.464 63.208l9.364-14.045-8.194-1.17-1.17 15.215z"/><path fill="#636363" stroke="#636363" d="M11.113 139.287l1.171-10.534-18.727-4.681 17.556 15.215z"/><path fill="#999" stroke="#999" d="M104.747 38.628l9.364-4.682-18.726-11.703 9.362 16.385z"/><path fill="#ACACAC" stroke="#ACACAC" d="M87.191 53.843l17.557-15.215-17.557-8.192v23.407z"/><path fill="#BEBEBE" stroke="#BEBEBE" d="M68.464 81.934V63.208L52.077 74.911l16.387 7.023z"/><path fill="#6D6D6D" stroke="#6D6D6D" d="M12.284 128.752l15.215 5.853-12.875-26.92-2.34 21.067z"/><path fill="#787878" stroke="#787878" d="M27.499 134.605l10.534-24.581-23.408-2.339 12.874 26.92z"/><path fill="#BEBEBE" stroke="#BEBEBE" d="M68.464 63.208l18.727-9.364-9.362-4.681-9.365 14.045z"/><path fill="#5C5C5C" stroke="#5C5C5C" d="M137.519 12.88l16.387 2.34-22.239-19.898 5.852 17.558z"/><path fill="#B6B6B6" stroke="#B6B6B6" d="M52.077 86.617l12.876 1.17-12.876-12.876v11.706z"/><path fill="#B5B5B5" stroke="#B5B5B5" d="M64.953 87.787l3.511-5.853-16.387-7.023 12.876 12.876z"/><path fill="#A3A3A3" stroke="#A3A3A3" d="M101.236 60.869l3.512-22.24-17.557 15.214 14.045 7.026z"/><path fill="#B5B5B5" stroke="#B5B5B5" d="M88.363 78.422l-1.172-24.579-18.727 9.364 19.899 15.215z"/><path fill="#B8B8B8" stroke="#B8B8B8" d="M68.464 81.934l19.898-3.512-19.898-15.214v18.726z"/><path fill="#6D6D6D" stroke="#6D6D6D" d="M27.499 134.605l16.387-9.364-5.854-15.217-10.533 24.581z"/><path fill="#A8A8A8" stroke="#A8A8A8" d="M88.363 78.422l12.873-17.554-14.045-7.025 1.172 24.579z"/><path fill="#7F7F7F" stroke="#7F7F7F" d="M114.112 33.947l10.533 5.852-2.341-21.066-8.192 15.214z"/><path fill="#9D9D9D" stroke="#9D9D9D" d="M40.374 100.663l22.237 8.191-10.534-22.237-11.703 14.046z"/><path fill="#A3A3A3" stroke="#A3A3A3" d="M62.612 108.854l2.342-21.067-12.876-1.17 10.534 22.237z"/><path fill="#959595" stroke="#959595" d="M101.236 60.869l15.217-3.514-11.705-18.727-3.512 22.241z"/><path fill="#5A5A5A" stroke="#5A5A5A" d="M11.113 139.287l16.386-4.682-15.215-5.853-1.171 10.535z"/><path fill="#898989" stroke="#898989" d="M38.032 110.024l12.876 8.194-10.534-17.556-2.342 9.362z"/><path fill="#8A8A8A" stroke="#8A8A8A" d="M50.908 118.218l11.703-9.364-22.237-8.191 10.534 17.555z"/><path fill="#6D6D6D" stroke="#6D6D6D" d="M139.86 31.606l-2.341-18.726-15.215 5.852 17.556 12.874z"/><path fill="#737373" stroke="#737373" d="M124.645 39.798l15.215-8.192-17.556-12.874 2.341 21.066z"/><path fill="#8E8E8E" stroke="#8E8E8E" d="M116.452 57.355l-2.341-23.408-9.364 4.682 11.705 18.726z"/><path fill="#9F9F9F" stroke="#9F9F9F" d="M88.363 78.422l14.043-2.339-1.17-15.215-12.873 17.554z"/><path fill="#838383" stroke="#838383" d="M116.452 57.355l8.192-17.557-10.533-5.852 2.341 23.409z"/><path fill="#797979" stroke="#797979" d="M43.886 125.241l7.022-7.022-12.876-8.194 5.854 15.216z"/><path fill="#5A5A5A" stroke="#5A5A5A" d="M139.86 31.606l14.046-16.386-16.387-2.34 2.341 18.726z"/><path fill="#A4A4A4" stroke="#A4A4A4" d="M64.953 87.787l22.237 15.217-18.726-21.07-3.511 5.853z"/><path fill="#A5A5A5" stroke="#A5A5A5" d="M87.191 103.003l1.172-24.581-19.898 3.512 18.726 21.069z"/><path fill="#4B4B4B" stroke="#4B4B4B" d="M18.136 153.332l9.363-18.727-16.386 4.682 7.023 14.045z"/><path fill="#9A9A9A" stroke="#9A9A9A" d="M62.612 108.854l24.579-5.851-22.238-15.216-2.341 21.067z"/><path fill="#8B8B8B" stroke="#8B8B8B" d="M76.656 113.538l10.534-10.534-24.579 5.851 14.045 4.683z"/><path fill="#545454" stroke="#545454" d="M139.86 31.606l10.534 3.511 3.512-19.897-14.046 16.386z"/><path fill="#7A7A7A" stroke="#7A7A7A" d="M116.452 57.355l15.215-3.509-7.022-14.048-8.193 17.557z"/><path fill="#949494" stroke="#949494" d="M102.406 76.083l14.047-18.729-15.217 3.514 1.17 15.215z"/><path fill="#3F3F3F" stroke="#3F3F3F" d="M18.136 153.332l15.216-1.17-5.853-17.557-9.363 18.727z"/><path fill="#535353" stroke="#535353" d="M36.863 150.99l7.023-25.749-16.387 9.364 9.364 16.385z"/><path fill="#414141" stroke="#414141" d="M33.352 152.162l3.511-1.172-9.364-16.385 5.853 17.557z"/><path fill="#484848" stroke="#484848" d="M150.394 35.117l11.706-4.682-8.194-15.215-3.512 19.897z"/><path fill="#575757" stroke="#575757" d="M36.863 150.99l21.068-16.387-14.045-9.362-7.023 25.749z"/><path fill="#999" stroke="#999" d="M87.191 103.003l17.557-10.536-16.385-14.045-1.172 24.581z"/><path fill="#6D6D6D" stroke="#6D6D6D" d="M131.667 53.846l8.192-22.24-15.215 8.192 7.023 14.048z"/><path fill="#7C7C7C" stroke="#7C7C7C" d="M68.464 126.411l-5.853-17.557-11.703 9.364 17.556 8.193z"/><path fill="#989898" stroke="#989898" d="M104.747 92.467l-2.342-16.384-14.043 2.339 16.385 14.045z"/><path fill="#868686" stroke="#868686" d="M102.406 76.083l28.093-14.046-14.046-4.683-14.047 18.729z"/><path fill="#616161" stroke="#616161" d="M131.667 53.846l18.727-18.729-10.534-3.511-8.193 22.24z"/><path fill="#6D6D6D" stroke="#6D6D6D" d="M57.931 134.603l10.533-8.192-17.556-8.192 7.023 16.384z"/><path fill="#6C6C6C" stroke="#6C6C6C" d="M57.931 134.603l-7.022-16.385-7.022 7.022 14.044 9.363z"/><path fill="#777" stroke="#777" d="M130.498 62.038l1.169-8.191-15.215 3.509 14.046 4.682z"/><path fill="gray" stroke="gray" d="M68.464 126.411l8.192-12.873-14.045-4.684 5.853 17.557z"/><path fill="#898989" stroke="#898989" d="M104.747 92.467l25.751-30.43-28.093 14.046 2.342 16.384z"/><path fill="#565656" stroke="#565656" d="M130.498 62.038L162.1 30.435l-11.706 4.682-19.896 26.921z"/><path fill="#646464" stroke="#646464" d="M130.498 62.038l19.896-26.92-18.727 18.729-1.169 8.191z"/><path fill="#838383" stroke="#838383" d="M76.656 113.538l-8.192 12.873 18.727-23.407-10.535 10.534z"/><path fill="#8A8A8A" stroke="#8A8A8A" d="M68.464 126.411l36.283-33.943-17.557 10.536-18.726 23.407z"/><path fill="#6C6C6C" stroke="#6C6C6C" d="M130.498 62.038l-25.751 30.43L162.1 30.435l-31.602 31.603z"/></g><g fill="#FFF"><path d="M89.521 33.533c-.219 0-.423-.094-.607-.279l-.274-.277a.788.788 0 0 1-.229-.625.919.919 0 0 1 .293-.625.914.914 0 0 1 .633-.292h.007c.271 0 .468.082.619.239l.265.261c.384.393.368.871-.039 1.277-.211.214-.438.321-.668.321z"/><path d="M89.384 31.786c.128 0 .235.042.317.129l.281.273c.239.245.226.508-.048.779-.145.145-.279.216-.419.216-.123 0-.242-.06-.358-.174l-.27-.279a.435.435 0 0 1-.133-.355.583.583 0 0 1 .189-.395.6.6 0 0 1 .4-.192c.018-.002.029-.002.041-.002m0-.7h-.019l-.055.002c-.315.011-.617.15-.861.4a1.274 1.274 0 0 0-.391.853c-.021.337.099.658.343.892l.26.269c.322.316.643.384.859.384.227 0 .568-.072.921-.42.536-.546.555-1.236.048-1.762l-.293-.287a1.107 1.107 0 0 0-.812-.331zm5.482-4.54c-.619 0-1.279-.143-1.965-.424-.79-.326-1.643-.94-2.528-1.828l-7.29-7.289c-1.368-1.368-2.125-2.765-2.243-4.147-.083-1.441.529-2.814 1.805-4.094 1.206-1.205 2.48-1.815 3.794-1.815l.3.011c1.38.081 2.78.828 4.169 2.215l7.295 7.292c.881.879 1.498 1.73 1.825 2.526.326.804.464 1.572.406 2.286a4.32 4.32 0 0 1-.616 1.965 8.094 8.094 0 0 1-1.18 1.516 7.775 7.775 0 0 1-1.501 1.156 4.416 4.416 0 0 1-1.962.617 2.774 2.774 0 0 1-.309.013zM86.384 8.729c-.85 0-1.702.419-2.531 1.245-.9.902-1.298 1.769-1.215 2.646.066.978.648 2.019 1.729 3.103l7.295 7.289c1.094 1.098 2.141 1.687 3.113 1.757h.028c1.007 0 1.822-.411 2.622-1.216.875-.873 1.279-1.75 1.238-2.686-.053-.913-.648-1.949-1.777-3.081l-7.292-7.294c-1.108-1.114-2.136-1.706-3.059-1.759l-.153-.355v.353h.002z"/><path d="M86.439 7.303c.087 0 .179.002.27.009 1.3.077 2.621.784 3.95 2.115l7.294 7.292c.855.859 1.436 1.663 1.75 2.411.307.754.435 1.46.382 2.122a4.033 4.033 0 0 1-.566 1.809 7.955 7.955 0 0 1-1.129 1.453 7.595 7.595 0 0 1-1.423 1.103 4.054 4.054 0 0 1-1.81.569 3.946 3.946 0 0 1-.29.012c-.578 0-1.188-.133-1.832-.396-.745-.309-1.554-.891-2.412-1.75l-7.285-7.289c-1.321-1.319-2.031-2.629-2.144-3.931-.075-1.331.496-2.607 1.704-3.815 1.137-1.147 2.321-1.714 3.541-1.714m8.535 17.82c.928 0 1.823-.439 2.705-1.324.935-.935 1.385-1.917 1.339-2.949-.058-1.015-.688-2.118-1.883-3.315l-7.294-7.292c-1.177-1.181-2.278-1.801-3.283-1.862-.06-.002-.116-.004-.174-.004-.952 0-1.878.449-2.78 1.347-.966.973-1.409 1.948-1.313 2.926.078 1.062.688 2.167 1.835 3.315l7.294 7.29c1.163 1.165 2.275 1.783 3.338 1.857.069.009.143.011.216.011M86.439 6.598c-1.414 0-2.773.646-4.046 1.919-1.354 1.352-1.996 2.816-1.909 4.351.132 1.487.923 2.957 2.353 4.386l7.285 7.289c.923.922 1.808 1.561 2.642 1.901.73.297 1.435.449 2.099.449a4.736 4.736 0 0 0 2.456-.679 7.984 7.984 0 0 0 1.562-1.21 8.115 8.115 0 0 0 1.234-1.589 4.682 4.682 0 0 0 .664-2.117c.058-.765-.084-1.586-.434-2.438-.345-.842-.992-1.731-1.9-2.646L91.15 8.923c-1.451-1.451-2.931-2.232-4.404-2.319-.092-.001-.2-.006-.307-.006zm8.535 17.826c-.05 0-.109-.002-.167-.007-.889-.063-1.861-.62-2.89-1.654l-7.295-7.292c-1.021-1.02-1.564-1.985-1.631-2.871-.07-.781.293-1.554 1.119-2.38.772-.768 1.513-1.142 2.283-1.142l.132.002c.834.049 1.791.609 2.831 1.656l7.297 7.292c1.062 1.069 1.626 2.03 1.674 2.855.039.826-.336 1.617-1.131 2.415-.765.758-1.487 1.126-2.222 1.126zm-52.247 95.081c-1.254-.051-2.559-.745-3.875-2.062a.893.893 0 0 1-.24-.616c0-.247.098-.476.281-.658a.873.873 0 0 1 .633-.261c.242 0 .45.083.615.24.656.662 1.256 1.108 1.791 1.318.441.178.854.274 1.215.274.601-.042.962-.163 1.286-.38a5.9 5.9 0 0 0 .93-.763c.774-.766 1.154-1.576 1.128-2.388-.073-.856-.617-1.802-1.606-2.789L12.923 79.45c-.448-.454-.494-1.017-.165-1.339L61.37 29.49a.785.785 0 0 1 .546-.217c.258 0 .521.114.722.315l-.062.431.244-.248 7.717 7.715-2.058-14.036a.93.93 0 0 1 .171-.689 1.04 1.04 0 0 1 .519-.375c.071-.004.138-.007.189-.007.252 0 .382.045.508.117.226.136.35.345.365.609l1.688 11.166 12.491 2.906c.146.032.368.13.521.414.111.241.128.459.063.669-.128.236-.178.328-.244.391a.918.918 0 0 1-.674.29l-11.891-2.748.534 3.571 4.894 4.796a.814.814 0 0 1 .251.641.962.962 0 0 1-.261.601c-.219.215-.442.324-.676.324-.15 0-.377-.048-.605-.276L62.04 31.565 14.833 78.777l31.456 31.458c1.22 1.222 1.898 2.526 1.954 3.767.104 1.313-.457 2.598-1.668 3.809-1.131 1.128-2.335 1.704-3.575 1.704l-.273-.01z"/><path d="M69.38 22.711c.107 0 .208.029.302.085a.388.388 0 0 1 .201.329l1.718 11.433 12.723 2.959c.128.027.222.107.293.241a.562.562 0 0 1 .036.397 1.56 1.56 0 0 1-.153.25.579.579 0 0 1-.427.185.61.61 0 0 1-.117-.01L71.76 35.736l.605 4.082 4.991 4.994a.488.488 0 0 1 .151.377.588.588 0 0 1-.165.372c-.144.145-.285.215-.423.215a.497.497 0 0 1-.354-.171L62.031 31.072l-47.7 47.705 31.705 31.709c1.146 1.142 1.805 2.362 1.853 3.536.096 1.22-.425 2.403-1.565 3.541-1.069 1.069-2.177 1.606-3.329 1.606-.082 0-.162-.003-.244-.007-1.174-.051-2.39-.713-3.648-1.963a.509.509 0 0 1-.142-.365c0-.153.06-.293.18-.414a.534.534 0 0 1 .384-.152c.156 0 .277.05.368.139.69.695 1.323 1.156 1.898 1.395.486.198.934.299 1.348.299.076 0 .148-.002.224-.01.466-.033.891-.18 1.254-.427.368-.244.699-.512.989-.811.848-.844 1.259-1.729 1.227-2.65-.082-.964-.644-1.974-1.704-3.029l-31.956-31.97c-.009-.009-.011-.024-.021-.034-.023-.014-.037-.018-.05-.032-.238-.244-.283-.591-.098-.776L61.62 29.739a.412.412 0 0 1 .297-.114c.16 0 .336.074.475.212.042.038.06.083.092.125.029.016.062.03.089.056l8.467 8.463-2.212-15.082a.574.574 0 0 1 .107-.431.693.693 0 0 1 .341-.248c.036-.004.07-.009.104-.009m0-.702h-.057l-.162.019c-.365.107-.604.273-.786.518-.21.282-.292.61-.242.954l1.901 12.993-6.968-6.966-.078-.08-.019-.009c-.036-.04-.068-.08-.114-.12a1.366 1.366 0 0 0-.94-.391c-.302 0-.581.111-.789.314L12.508 77.868c-.466.464-.423 1.238.093 1.764l.005.004.021.046.043.018.002.005.012.007L44.64 111.67c.925.927 1.43 1.805 1.503 2.591.018.688-.315 1.389-1.023 2.095a6.013 6.013 0 0 1-.882.729c-.27.178-.578.283-.921.306-.064.007-.117.01-.169.01-.315 0-.681-.082-1.083-.247-.486-.196-1.044-.614-1.667-1.238a1.217 1.217 0 0 0-.866-.34c-.336 0-.645.13-.88.358a1.276 1.276 0 0 0-.386.909c0 .333.116.626.338.853 1.389 1.387 2.773 2.112 4.124 2.177.082.005.178.009.274.009 1.339 0 2.625-.609 3.824-1.807 1.286-1.281 1.883-2.662 1.769-4.094-.051-1.31-.768-2.689-2.056-3.976L15.323 78.777l46.71-46.717 14.041 14.034c.306.315.635.384.85.384.329 0 .633-.144.916-.422.233-.24.352-.523.372-.829a1.201 1.201 0 0 0-.36-.924l-4.823-4.823-.42-2.831 11.188 2.61A1.284 1.284 0 0 0 85 38.895c.092-.096.156-.206.268-.4l.037-.063.021-.07a1.236 1.236 0 0 0-.069-.898c-.234-.443-.55-.585-.783-.634l-12.24-2.85-1.654-10.962c-.019-.317-.211-.631-.537-.828a1.312 1.312 0 0 0-.663-.181z"/><path d="M54.81 107.593c-.628 0-1.291-.142-1.972-.42-.802-.334-1.651-.946-2.531-1.83l-7.287-7.285c-1.373-1.375-2.129-2.771-2.244-4.148-.082-1.438.523-2.812 1.805-4.092 1.201-1.209 2.474-1.812 3.781-1.812l.315.009c1.378.08 2.778.827 4.172 2.214l7.292 7.29c.889.889 1.508 1.738 1.823 2.531.324.792.464 1.558.411 2.277a4.34 4.34 0 0 1-.619 1.972 7.959 7.959 0 0 1-1.182 1.515c-.436.432-.932.82-1.491 1.153a4.502 4.502 0 0 1-1.965.617c-.1.005-.205.009-.308.009zm-8.501-17.814c-.861 0-1.688.407-2.524 1.24-.889.889-1.295 1.78-1.21 2.648.059.973.642 2.01 1.727 3.093l7.292 7.292c1.1 1.099 2.147 1.695 3.114 1.755h.032c1.012 0 1.82-.416 2.622-1.216.868-.868 1.275-1.749 1.241-2.684-.056-.916-.654-1.951-1.785-3.077l-7.289-7.288c-1.12-1.117-2.147-1.706-3.068-1.759l-.155-.354.003.35z"/><path d="M46.36 88.346c.094 0 .189.005.286.012 1.307.078 2.618.783 3.955 2.115l7.29 7.288c.854.854 1.438 1.667 1.747 2.412.309.752.435 1.458.387 2.12a4.062 4.062 0 0 1-.569 1.805 7.664 7.664 0 0 1-1.129 1.453 7.818 7.818 0 0 1-1.418 1.105 3.991 3.991 0 0 1-2.093.576c-.583 0-1.199-.133-1.839-.394-.747-.311-1.559-.891-2.415-1.75l-7.285-7.287c-1.32-1.315-2.036-2.627-2.143-3.934-.078-1.332.491-2.603 1.7-3.815 1.129-1.136 2.308-1.706 3.526-1.706m8.562 17.822c.916 0 1.812-.443 2.691-1.321.934-.937 1.382-1.919 1.343-2.951-.06-1.015-.689-2.12-1.89-3.314l-7.289-7.29c-1.184-1.179-2.275-1.801-3.288-1.859-.06-.005-.126-.005-.181-.005-.953 0-1.871.443-2.776 1.343-.971.969-1.409 1.947-1.311 2.93.071 1.06.683 2.163 1.834 3.312l7.292 7.292c1.163 1.16 2.277 1.784 3.34 1.854.08.005.157.009.235.009M46.36 87.645c-1.405 0-2.762.643-4.032 1.919-1.353 1.351-1.99 2.814-1.903 4.348.128 1.485.916 2.956 2.351 4.386l7.286 7.286c.913.92 1.802 1.558 2.643 1.905.729.297 1.433.445 2.106.445.112 0 .224-.007.341-.016a4.712 4.712 0 0 0 2.113-.663 8.26 8.26 0 0 0 1.558-1.206 8.379 8.379 0 0 0 1.236-1.595 4.755 4.755 0 0 0 .664-2.115c.053-.776-.089-1.6-.44-2.44-.338-.829-.978-1.723-1.898-2.647l-7.29-7.285c-1.457-1.453-2.94-2.229-4.409-2.321-.103.004-.217-.001-.326-.001zm8.562 17.824c-.053 0-.116-.005-.176-.01-.889-.055-1.862-.614-2.897-1.649l-7.29-7.292c-1.026-1.023-1.572-1.987-1.631-2.864-.078-.791.286-1.562 1.112-2.388.763-.763 1.51-1.136 2.275-1.136l.139.005c.83.051 1.789.607 2.838 1.656l7.29 7.288c1.066 1.066 1.631 2.028 1.679 2.86.036.824-.341 1.617-1.133 2.414-.753.736-1.491 1.116-2.206 1.116zm11.927-8.284c-.224 0-.427-.091-.611-.273L51.456 82.128a.806.806 0 0 1-.235-.633c.009-.231.109-.441.295-.629a.943.943 0 0 1 .628-.287h.01c.258 0 .449.075.609.217l6.794 6.801 4.716-4.718-6.783-6.787c-.116-.107-.246-.309-.23-.628a.945.945 0 0 1 .29-.631.96.96 0 0 1 .635-.285h.012c.27 0 .455.077.607.226l14.786 14.79c.226.229.276.45.276.604 0 .235-.112.454-.32.667-.217.215-.438.32-.674.32-.217 0-.42-.092-.604-.272l-6.767-6.773-4.722 4.72 6.773 6.767c.377.38.361.866-.043 1.271-.205.213-.429.317-.66.317z"/><path d="M58.24 74.9c.13 0 .232.044.312.126l14.785 14.79c.244.241.235.502-.039.771-.148.146-.287.218-.429.218-.124 0-.242-.058-.353-.172l-7.013-7.018-5.216 5.215 7.016 7.019c.244.242.233.505-.039.77-.146.146-.283.22-.418.22-.128 0-.244-.055-.358-.174L51.703 81.883a.432.432 0 0 1-.131-.355.602.602 0 0 1 .192-.402.576.576 0 0 1 .397-.188h.036c.133 0 .24.043.327.126l7.034 7.038 5.211-5.211-7.034-7.038a.434.434 0 0 1-.126-.356.569.569 0 0 1 .189-.4.57.57 0 0 1 .396-.185c.015-.012.032-.012.046-.012m0-.701h-.027l-.073.005c-.29.004-.592.142-.832.388a1.263 1.263 0 0 0-.396.873c-.024.333.101.653.341.886l6.526 6.529-4.219 4.223-6.539-6.543a1.184 1.184 0 0 0-.822-.334c-.401.023-.699.155-.93.402a1.255 1.255 0 0 0-.393.858c-.025.341.096.646.34.892l14.781 14.773c.312.317.633.382.854.382.326 0 .633-.146.914-.423.534-.544.553-1.252.038-1.771l-6.52-6.52 4.227-4.222 6.518 6.524c.315.311.633.374.848.374.331 0 .635-.142.92-.418.348-.35.426-.692.423-.92 0-.218-.063-.54-.382-.851L59.059 74.521a1.19 1.19 0 0 0-.819-.322zm20.584 11.007c-.144 0-.37-.051-.601-.272l-14.784-14.79c-.329-.322-.343-.747-.048-1.141.253-.338.546-.409.747-.409h.059l.281.064 17.33 6.625-11.763-11.76a.802.802 0 0 1-.226-.619.972.972 0 0 1 .287-.63.95.95 0 0 1 .633-.293h.014c.266 0 .455.075.608.224l14.792 14.79c.317.32.34.733.073 1.138-.353.368-.592.421-.743.421h-.082l-.287-.092-17.321-6.593 11.744 11.744c.242.245.283.484.276.643-.016.219-.121.432-.319.635-.21.209-.436.315-.67.315z"/><path d="M70.806 62.331c.128 0 .233.043.313.126l14.787 14.787c.196.199.21.437.034.701l-.073.076c-.125.121-.246.185-.376.185a.456.456 0 0 1-.213-.055L66.392 70.96 79.29 83.869c.245.245.238.503-.038.774-.146.146-.286.215-.428.215a.5.5 0 0 1-.35-.164l-14.787-14.79c-.201-.201-.206-.432-.014-.681.135-.179.292-.27.468-.27.066 0 .145.014.222.046l18.866 7.21-12.925-12.925a.434.434 0 0 1-.126-.35.596.596 0 0 1 .189-.4.59.59 0 0 1 .397-.188c.013-.015.026-.015.042-.015m0-.702h-.027l-.07.004a1.263 1.263 0 0 0-.832.385 1.32 1.32 0 0 0-.404.858c-.016.352.107.672.343.9l10.591 10.591-15.79-6.035a1.373 1.373 0 0 0-.474-.092c-.397 0-.763.196-1.03.551-.399.527-.367 1.151.083 1.602L77.98 85.178c.312.311.633.374.845.374.233 0 .571-.068.923-.422.263-.263.404-.551.418-.859.012-.235-.045-.573-.379-.911L69.211 72.778l15.823 6.024c.104.052.28.101.461.101.224 0 .556-.069.877-.394l.049-.048.121-.135c.35-.537.308-1.14-.128-1.581l-14.786-14.79a1.198 1.198 0 0 0-.822-.326zm20.392 9.225c-1.384-.077-2.789-.824-4.181-2.216-.242-.24-.281-.484-.274-.64.012-.217.117-.43.313-.631a.933.933 0 0 1 .617-.265h.006c.266 0 .469.089.636.251.718.715 1.378 1.199 1.955 1.433.496.201.955.304 1.366.304.665-.048 1.067-.188 1.424-.425.391-.256.73-.534 1.025-.822.853-.854 1.236-1.745 1.17-2.728-.068-.987-.59-1.977-1.552-2.934-.502-.51-1.023-.834-1.551-.982a4.266 4.266 0 0 0-1.145-.164c-.14 0-.271.009-.411.027-.51.055-.982.169-1.407.343l-1.752.698c-.343.158-.798.341-1.364.542a6.533 6.533 0 0 1-1.917.374l-.278.008a7.014 7.014 0 0 1-1.903-.277c-.771-.219-1.525-.691-2.238-1.409-1.216-1.215-1.912-2.554-2.084-3.973-.171-1.602.377-3.055 1.641-4.324 1.22-1.218 2.515-1.83 3.856-1.83l.253.009c1.392.08 2.804.829 4.213 2.236.153.16.242.373.242.615a.936.936 0 0 1-.285.662.91.91 0 0 1-.645.279.855.855 0 0 1-.633-.245c-1.09-1.092-2.139-1.684-3.111-1.75h-.025c-1.001 0-1.83.421-2.654 1.236-.829.834-1.172 1.752-1.051 2.798.104 1.056.633 2.068 1.569 2.993.505.51 1.027.846 1.562 1.015.447.137.868.201 1.281.201l.297-.012a5.533 5.533 0 0 0 1.451-.309c.464-.162.865-.324 1.204-.488l.582-.25c.324-.132.757-.304 1.307-.509a6.99 6.99 0 0 1 2.397-.443c.537 0 1.104.073 1.68.224.783.211 1.515.663 2.247 1.392.595.597 1.059 1.231 1.387 1.898.327.669.53 1.356.602 2.035.123 1.559-.452 2.981-1.716 4.245-1.206 1.203-2.481 1.812-3.783 1.812l-.323-.004z"/><path d="M83.14 51.569c.08 0 .153.004.238.009 1.307.073 2.631.786 3.979 2.134a.507.507 0 0 1 .139.365.57.57 0 0 1-.178.416.567.567 0 0 1-.402.174h-.021a.456.456 0 0 1-.352-.138c-1.165-1.165-2.282-1.782-3.345-1.857a2.133 2.133 0 0 0-.215-.011c-.921 0-1.837.452-2.736 1.348-.9.911-1.286 1.938-1.154 3.086.114 1.143.672 2.212 1.673 3.205.551.551 1.121.919 1.706 1.102.478.144.933.215 1.385.215.109 0 .217-.005.324-.014a6.068 6.068 0 0 0 1.542-.327c.478-.167.891-.34 1.238-.505l.568-.242c.313-.132.74-.297 1.287-.505a6.543 6.543 0 0 1 2.273-.418c.515 0 1.042.068 1.593.213.717.189 1.407.623 2.088 1.3a6.871 6.871 0 0 1 1.318 1.803c.312.637.5 1.279.562 1.916.121 1.449-.423 2.77-1.61 3.957-1.145 1.143-2.323 1.711-3.543 1.711-.087 0-.179-.002-.27-.012-1.31-.072-2.628-.781-3.957-2.112-.244-.245-.233-.503.036-.777a.563.563 0 0 1 .377-.162h.037a.47.47 0 0 1 .34.148c.754.747 1.441 1.255 2.074 1.511.542.224 1.04.333 1.504.333.077 0 .15-.002.23-.014a3 3 0 0 0 1.394-.468 7.05 7.05 0 0 0 1.073-.864c.923-.925 1.344-1.923 1.275-3.002-.073-1.073-.629-2.127-1.652-3.157-.548-.551-1.121-.911-1.706-1.071a4.646 4.646 0 0 0-1.238-.178c-.148 0-.304.009-.447.029a5.71 5.71 0 0 0-1.504.365c-.454.186-.831.336-1.129.446l-.621.249c-.345.162-.797.34-1.346.536-.55.201-1.16.32-1.82.356-.087.005-.172.01-.258.01a6.714 6.714 0 0 1-1.808-.266c-.722-.205-1.414-.64-2.09-1.317-1.165-1.163-1.816-2.42-1.979-3.768-.165-1.489.35-2.833 1.54-4.032 1.137-1.14 2.341-1.72 3.588-1.72m0-.699c-1.437 0-2.816.65-4.103 1.935-1.344 1.351-1.931 2.899-1.741 4.608.176 1.51.909 2.914 2.18 4.185.754.757 1.558 1.261 2.39 1.501a7.406 7.406 0 0 0 1.999.288c.096 0 .194 0 .29-.007.745-.046 1.426-.176 2.028-.397a17.688 17.688 0 0 0 1.405-.562l.587-.237c.286-.114.667-.258 1.131-.445.397-.16.839-.27 1.313-.327a3.42 3.42 0 0 1 .375-.018c.333 0 .683.048 1.053.148.467.13.935.429 1.394.891.907.9 1.394 1.812 1.451 2.707.057.873-.293 1.679-1.069 2.46a6.612 6.612 0 0 1-.964.775 2.206 2.206 0 0 1-1.067.355 1.7 1.7 0 0 1-.164.01c-.365 0-.781-.096-1.233-.279-.535-.219-1.156-.674-1.844-1.358a1.165 1.165 0 0 0-.834-.354c-.375.014-.667.137-.904.363-.263.271-.407.56-.423.865-.012.233.05.581.386.914 1.444 1.448 2.929 2.23 4.407 2.316.101.007.208.01.315.01 1.407 0 2.764-.645 4.039-1.915 1.341-1.339 1.95-2.86 1.813-4.514a6.31 6.31 0 0 0-.633-2.171 7.725 7.725 0 0 0-1.45-1.991c-.777-.772-1.565-1.257-2.406-1.483a7.347 7.347 0 0 0-1.768-.235 7.358 7.358 0 0 0-2.527.461c-.541.205-.986.375-1.305.51l-.575.249c-.358.171-.749.324-1.199.488a5.274 5.274 0 0 1-1.366.283c-.082.01-.172.01-.263.01-.38 0-.766-.06-1.182-.183-.475-.145-.95-.455-1.414-.924-.882-.872-1.375-1.805-1.471-2.777-.109-.943.203-1.769.952-2.527.759-.751 1.513-1.135 2.239-1.135.055 0 .107.002.162.004.889.062 1.862.619 2.893 1.654.146.148.42.341.852.341.356 0 .665-.133.919-.38a1.29 1.29 0 0 0 .388-.911c0-.336-.121-.628-.343-.856-1.473-1.472-2.965-2.258-4.437-2.344-.091.003-.184-.001-.276-.001zm20.516 7.883c-.627 0-1.291-.145-1.977-.423-.807-.334-1.658-.948-2.531-1.832l-7.29-7.283c-1.368-1.366-2.124-2.765-2.243-4.146-.082-1.444.53-2.819 1.805-4.094 1.209-1.205 2.483-1.816 3.79-1.816l.302.013c1.387.081 2.789.828 4.171 2.222l7.297 7.285c.878.882 1.497 1.729 1.825 2.527.327.809.464 1.576.407 2.286a4.334 4.334 0 0 1-.614 1.965 8.195 8.195 0 0 1-1.182 1.517 7.48 7.48 0 0 1-1.498 1.154 4.499 4.499 0 0 1-1.968.621l-.294.004zm-8.497-17.818c-.857 0-1.709.418-2.529 1.244-.904.903-1.303 1.767-1.216 2.641.062.982.645 2.02 1.729 3.104l7.288 7.29c1.094 1.102 2.143 1.69 3.111 1.757h.029c1.013 0 1.825-.414 2.628-1.218.861-.858 1.279-1.764 1.24-2.685-.055-.92-.653-1.955-1.779-3.077l-7.293-7.293c-1.112-1.114-2.143-1.706-3.061-1.759l-.153-.355.006.351z"/><path d="M95.204 39.502c.092 0 .186.004.276.011 1.308.076 2.625.781 3.952 2.119l7.297 7.287c.853.858 1.433 1.668 1.75 2.414.304.748.435 1.46.382 2.123a4.183 4.183 0 0 1-.566 1.809 8.079 8.079 0 0 1-1.129 1.453 7.925 7.925 0 0 1-1.423 1.102 4.035 4.035 0 0 1-1.812.571c-.092.004-.181.009-.274.009-.583 0-1.197-.135-1.844-.397-.747-.306-1.561-.887-2.41-1.755l-7.29-7.287c-1.322-1.316-2.03-2.627-2.143-3.93-.075-1.334.491-2.61 1.702-3.817 1.136-1.138 2.316-1.712 3.532-1.712m8.544 17.828c.928 0 1.823-.443 2.705-1.325.93-.932 1.385-1.919 1.341-2.951-.059-1.015-.688-2.12-1.887-3.312l-7.285-7.292c-1.186-1.179-2.282-1.802-3.29-1.86a4.993 4.993 0 0 0-.173-.004c-.955 0-1.883.446-2.78 1.347-.969.973-1.412 1.946-1.313 2.925.07 1.061.685 2.171 1.834 3.317l7.287 7.292c1.163 1.165 2.28 1.787 3.338 1.855.075.004.151.008.223.008m-8.544-18.529c-1.402 0-2.762.646-4.036 1.918-1.353 1.35-1.995 2.817-1.903 4.354.128 1.494.918 2.963 2.349 4.389l7.285 7.282c.907.919 1.798 1.562 2.644 1.905.73.3 1.438.443 2.11.443.11 0 .217 0 .324-.009a4.813 4.813 0 0 0 2.125-.665 8.232 8.232 0 0 0 1.561-1.208 8.362 8.362 0 0 0 1.233-1.593 4.784 4.784 0 0 0 .665-2.113c.057-.768-.085-1.588-.435-2.439-.35-.846-.993-1.736-1.9-2.65l-7.297-7.284c-1.443-1.453-2.927-2.236-4.406-2.323-.099-.002-.206-.007-.319-.007zm8.544 17.829c-.052 0-.111-.004-.169-.009-.891-.057-1.861-.617-2.89-1.654L93.4 47.68c-1.025-1.023-1.571-1.992-1.629-2.872-.077-.786.286-1.558 1.115-2.384.761-.766 1.51-1.141 2.282-1.141l.135.002c.829.049 1.786.605 2.837 1.656l7.285 7.295c1.065 1.062 1.629 2.021 1.682 2.857.034.822-.34 1.613-1.135 2.412-.757.746-1.499 1.125-2.224 1.125zm11.887-8.233c-.217 0-.421-.091-.604-.273l-14.79-14.793c-.319-.321-.338-.744-.045-1.134.251-.343.543-.413.742-.413h.066l.283.067 17.33 6.625-11.763-11.762a.803.803 0 0 1-.229-.627.95.95 0 0 1 .295-.623.982.982 0 0 1 .621-.295h.007c.268 0 .466.08.617.228l14.79 14.792c.317.315.349.729.084 1.139-.315.323-.525.419-.747.419h-.08l-.287-.091-17.326-6.593 11.744 11.744c.184.183.277.389.277.61.002.235-.105.45-.315.667-.213.206-.437.313-.67.313z"/><path d="M107.593 25.518c.133 0 .242.042.334.129l14.785 14.79c.201.199.213.433.039.699l-.078.079c-.121.12-.242.181-.377.181a.469.469 0 0 1-.212-.054l-18.891-7.188L116.1 47.056c.242.245.235.501-.043.774-.145.146-.286.22-.423.22-.121 0-.24-.055-.354-.174l-14.785-14.788c-.198-.196-.203-.424-.014-.678.135-.181.29-.272.464-.272.071 0 .146.015.227.044l18.862 7.212-12.921-12.924a.438.438 0 0 1-.132-.357.62.62 0 0 1 .193-.399.618.618 0 0 1 .398-.19c.007-.006.012-.006.021-.006m0-.704h-.048a1.34 1.34 0 0 0-.868.393c-.242.246-.381.54-.401.854a1.12 1.12 0 0 0 .338.896l10.593 10.6-15.792-6.038a1.271 1.271 0 0 0-.474-.091c-.397 0-.758.194-1.025.549-.399.536-.37 1.149.08 1.598l14.785 14.79c.315.312.635.379.85.379.329 0 .638-.146.919-.43.278-.273.425-.587.425-.918 0-.22-.068-.537-.384-.85l-10.582-10.583 15.832 6.023c.104.058.283.101.456.101.227 0 .549-.067.871-.382l.002-.003.082-.081.051-.049.039-.058c.355-.543.304-1.151-.133-1.582l-14.783-14.784a1.177 1.177 0 0 0-.833-.334z"/></g></svg>