<svg xmlns="http://www.w3.org/2000/svg" xmlns:xlink="http://www.w3.org/1999/xlink" width="193.875" height="193.877" viewBox="-50.07 -53.277 193.875 193.877"><defs><path id="a" d="M45.183 140.6L-50.07 45.345l98.625-98.622 95.25 95.25z"/></defs><clipPath id="b"><use xlink:href="#a" overflow="visible"/></clipPath><g clip-path="url(#b)" stroke-width="1.51"><path fill="#865666" stroke="#865666" d="M146.667 2.322l22.238 19.898-35.113-35.113 12.875 15.215z"/><path fill="#AD7B80" stroke="#AD7B80" d="M-14.853 117.024l-18.726-21.065-18.726-16.387 37.452 37.452z"/><path fill="#8692B3" stroke="#8692B3" d="M106.871-30.449l26.921 17.556-51.497-46.816 24.576 29.26z"/><path fill="#7087AB" stroke="#7087AB" d="M82.295-59.709l51.497 46.816-60.861-60.861 9.364 14.045z"/><path fill="#7E546D" stroke="#7E546D" d="M-52.305 79.572L-65.18 47.97l-15.215-12.875 28.09 44.477z"/><path fill="#22609D" stroke="#22609D" d="M31.965-70.244l10.536-22.238-23.41 18.728 12.874 3.51z"/><path fill="#4F7CAA" stroke="#4F7CAA" d="M15.578-58.539l3.513-15.215-23.408 23.408 19.895-8.193z"/><path fill="#83435E" stroke="#83435E" d="M-80.395 35.096l17.557-3.512-10.535-17.557-7.022 21.069z"/><path fill="#8C536A" stroke="#8C536A" d="M-62.839 31.583l7.021-16.385-17.557-1.172 10.536 17.557z"/><path fill="#8E5F70" stroke="#8E5F70" d="M-55.817 15.199l10.535-19.898-28.092 18.726 17.557 1.172z"/><path fill="#8E6978" stroke="#8E6978" d="M-45.282-4.699l3.51-10.534-31.602 29.26 28.092-18.726z"/><path fill="#8E98B9" stroke="#8E98B9" d="M-35.919-21.086l28.09-2.34-14.046-14.045-14.044 16.385z"/><path fill="#8296BA" stroke="#8296BA" d="M-7.829-23.426l3.512-26.919-17.559 12.875 14.047 14.044z"/><path fill="#6483AA" stroke="#6483AA" d="M-4.317-50.346l23.408-23.408-40.967 36.283 17.559-12.875z"/><path fill="#8D7788" stroke="#8D7788" d="M-73.374 14.027l31.602-29.26 19.897-22.238-51.499 51.498z"/><path fill="#8B89A2" stroke="#8B89A2" d="M-41.772-15.233l5.853-5.853 14.044-16.385-19.897 22.238z"/><path fill="#84A2CC" stroke="#84A2CC" d="M-7.829-23.426l19.897-8.192-16.385-18.728-3.512 26.92z"/><path fill="#9BA3C5" stroke="#9BA3C5" d="M-16.022-1.189l8.193-22.237-28.09 2.34 19.897 19.897z"/><path fill="#A0A2BE" stroke="#A0A2BE" d="M-19.533-.017l3.511-1.172-19.897-19.897L-19.533-.017z"/><path fill="#9791AA" stroke="#9791AA" d="M-19.533-.017l-16.386-21.069-5.853 5.853L-19.533-.017z"/><path fill="#9A8CA3" stroke="#9A8CA3" d="M-45.282-4.699l25.749 4.682-22.239-15.216-3.51 10.534z"/><path fill="#2468AA" stroke="#2468AA" d="M31.965-70.244l10.534 5.853.002-28.09-10.536 22.237z"/><path fill="#9C7589" stroke="#9C7589" d="M-55.817 15.199l14.045 4.681-3.51-24.579-10.535 19.898z"/><path fill="#437BB0" stroke="#437BB0" d="M15.578-58.539l8.193 3.512-4.68-18.727-3.513 15.215z"/><path fill="#3375AD" stroke="#3375AD" d="M23.772-55.027l8.193-15.217-12.874-3.51 4.681 18.727z"/><path fill="#6B93C1" stroke="#6B93C1" d="M12.068-31.619l3.51-26.92-19.895 8.193 16.385 18.727z"/><path fill="#6498C7" stroke="#6498C7" d="M12.068-31.619l11.704-18.727-8.193-8.193-3.511 26.92z"/><path fill="#1F60A3" stroke="#1F60A3" d="M42.499-64.391l16.387-18.726-16.385-9.364-.002 28.09z"/><path fill="#A48A9C" stroke="#A48A9C" d="M-41.772 19.88l16.386-7.024-19.896-17.555 3.51 24.579z"/><path fill="#A497AD" stroke="#A497AD" d="M-25.386 12.856l5.853-12.873-25.749-4.682 19.896 17.555z"/><path fill="#874B69" stroke="#874B69" d="M-65.18 47.97l2.342-16.387-17.557 3.512L-65.18 47.97z"/><path fill="#99647C" stroke="#99647C" d="M-62.839 31.583l17.555-1.17-10.534-15.215-7.021 16.385z"/><path fill="#528AC0" stroke="#528AC0" d="M23.772-50.346v-4.681l-8.193-3.512 8.193 8.193z"/><path fill="#347CB8" stroke="#347CB8" d="M23.772-55.027l18.727-9.364-10.534-5.853-8.193 15.217z"/><path fill="#9F7286" stroke="#9F7286" d="M-45.283 30.414l3.511-10.534-14.045-4.681 10.534 15.215z"/><path fill="#8E6374" stroke="#8E6374" d="M-52.305 79.572l-.001-18.729L-65.18 47.97l12.875 31.602z"/><path fill="#2D72B1" stroke="#2D72B1" d="M42.499-64.391l15.217 3.512 1.17-22.238-16.387 18.726z"/><path fill="#70A6CE" stroke="#70A6CE" d="M12.068-31.619l19.899 1.17-8.195-19.897-11.704 18.727z"/><path fill="#5090C3" stroke="#5090C3" d="M23.772-50.346l16.387 2.339-16.387-7.021v4.682z"/><path fill="#3E88BE" stroke="#3E88BE" d="M40.158-48.006l2.34-16.385-18.727 9.364 16.387 7.021z"/><path fill="#A2B6D2" stroke="#A2B6D2" d="M-16.022-1.189L.364-3.527l-8.192-19.899-8.194 22.237z"/><path fill="#94B5D7" stroke="#94B5D7" d="M9.729-8.21l2.339-23.408-19.897 8.192L9.729-8.21z"/><path fill="#A0BDDB" stroke="#A0BDDB" d="M.364-3.527L9.729-8.21-7.829-23.426.364-3.527z"/><path fill="#975E73" stroke="#975E73" d="M-65.18 47.97l21.068-4.682-18.726-11.705-2.342 16.387z"/><path fill="#9D6A7D" stroke="#9D6A7D" d="M-44.113 43.288l-1.171-12.875-17.555 1.17 18.726 11.705z"/><path fill="#2B6AA1" stroke="#2B6AA1" d="M57.716-60.879l15.215-12.875-14.045-9.363-1.17 22.238z"/><path fill="#5D9ECA" stroke="#5D9ECA" d="M31.967-30.449l8.191-17.558-16.387-2.339 8.196 19.897z"/><path fill="#AC949E" stroke="#AC949E" d="M-25.385 26.902l-.001-14.046-16.386 7.024 16.387 7.022z"/><path fill="#AB8D97" stroke="#AB8D97" d="M-33.577 30.414l8.192-3.511-16.387-7.022 8.195 10.533z"/><path fill="#91BCDA" stroke="#91BCDA" d="M9.729-8.21l16.383-14.045-14.044-9.363L9.729-8.21z"/><path fill="#7FB3D6" stroke="#7FB3D6" d="M26.112-22.255l5.855-8.193-19.899-1.17 14.044 9.363z"/><path fill="#3B85BC" stroke="#3B85BC" d="M40.158-48.006l17.558-12.873-15.217-3.512-2.341 16.385z"/><path fill="#A6808D" stroke="#A6808D" d="M-45.283 30.414h11.706l-8.195-10.534-3.511 10.534z"/><path fill="#9B6474" stroke="#9B6474" d="M-52.306 60.843l8.193-17.555-21.067 4.682 12.874 12.873z"/><path fill="#AFB0BC" stroke="#AFB0BC" d="M-25.386 12.856l18.727 9.366-9.363-23.411-9.364 14.045z"/><path fill="#A8A8BC" stroke="#A8A8BC" d="M-25.386 12.856l9.364-14.045-3.511 1.172-5.853 12.873z"/><path fill="#AEBFD1" stroke="#AEBFD1" d="M.364 15.198V-3.527l-16.386 2.338L.364 15.198z"/><path fill="#B8C0CB" stroke="#B8C0CB" d="M-6.659 22.222l7.023-7.024-16.386-16.387 9.363 23.411z"/><path fill="#498EC1" stroke="#498EC1" d="M63.567-48.005l-5.851-12.874-17.558 12.873 23.409.001z"/><path fill="#A67C87" stroke="#A67C87" d="M-44.113 43.288l10.535-12.875h-11.706l1.171 12.875z"/><path fill="#B7AAB0" stroke="#B7AAB0" d="M-25.385 26.902l18.726-4.681-18.727-9.366.001 14.047z"/><path fill="#4176A8" stroke="#4176A8" d="M82.295-59.709l-9.364-14.045-15.215 12.875 24.579 1.17z"/><path fill="#6FACD1" stroke="#6FACD1" d="M31.967-30.449l4.681 4.681 3.51-22.238-8.191 17.557z"/><path fill="#73AFD3" stroke="#73AFD3" d="M36.648-25.768h18.726L40.158-48.006l-3.51 22.238z"/><path fill="#5FA2CB" stroke="#5FA2CB" d="M55.374-25.768l8.192-22.237-23.408-.001 15.216 22.238z"/><path fill="#C2B3B3" stroke="#C2B3B3" d="M-11.34 31.583l4.681-9.362-18.726 4.681 14.045 4.681z"/><path fill="#A3C9E1" stroke="#A3C9E1" d="M34.305-9.381l-8.193-12.874L9.729-8.21l24.576-1.171z"/><path fill="#AF7980" stroke="#AF7980" d="M-52.306 60.843l22.239-1.17-14.045-16.385-8.194 17.555z"/><path fill="#B2CEE3" stroke="#B2CEE3" d="M20.261 4.664L9.729-8.21.364-3.527l19.897 8.191z"/><path fill="#BCD1E0" stroke="#BCD1E0" d="M.364 15.198L20.261 4.664.364-3.527v18.725z"/><path fill="#5087BB" stroke="#5087BB" d="M63.567-48.005l18.729-11.704-24.579-1.17 5.85 12.874z"/><path fill="#B4878C" stroke="#B4878C" d="M-44.113 43.288l17.558 10.535-7.022-23.409-10.536 12.874z"/><path fill="#B99598" stroke="#B99598" d="M-26.555 53.823l1.169-26.92-8.192 3.511 7.023 23.409z"/><path fill="#85B9D9" stroke="#85B9D9" d="M26.112-22.255l10.536-3.513-4.681-4.681-5.855 8.194z"/><path fill="#C3A4A2" stroke="#C3A4A2" d="M-26.555 53.823l15.215-22.239-14.045-4.681-1.17 26.92z"/><path fill="#B3D3E6" stroke="#B3D3E6" d="M20.261 4.664L34.305-9.381 9.729-8.21 20.261 4.664z"/><path fill="#BB888A" stroke="#BB888A" d="M-30.067 59.673l3.512-5.851-17.558-10.535 14.046 16.386z"/><path fill="#96C4DE" stroke="#96C4DE" d="M34.305-9.381l2.343-16.387-10.536 3.513 8.193 12.874z"/><path fill="#608DBB" stroke="#608DBB" d="M84.634-48.005l-2.339-11.704-18.728 11.704h21.067z"/><path fill="#AB777D" stroke="#AB777D" d="M-52.305 79.572l25.749-11.706-25.75-7.022.001 18.728z"/><path fill="#BC8084" stroke="#BC8084" d="M-26.556 67.866l-3.511-8.192-22.239 1.17 25.75 7.022z"/><path fill="#B97E81" stroke="#B97E81" d="M-30.067 80.742l3.511-12.876-25.749 11.706 22.238 1.17z"/><path fill="#738EB5" stroke="#738EB5" d="M84.634-48.005l22.237 17.557-24.576-29.26 2.339 11.703z"/><path fill="#CBDEE9" stroke="#CBDEE9" d="M26.112 12.856l-5.851-8.192L.364 15.198l25.748-2.342z"/><path fill="#A2CCE3" stroke="#A2CCE3" d="M34.305-9.381l8.193 1.17-5.851-17.557-2.342 16.387z"/><path fill="#95C6DF" stroke="#95C6DF" d="M42.499-8.211l12.875-17.557H36.648l5.851 17.557z"/><path fill="#AE4E46" stroke="#AE4E46" d="M33.136 160.332l-24.579-29.26-23.41-14.048 47.989 43.308z"/><path fill="#9CC8E0" stroke="#9CC8E0" d="M42.499-8.211l15.215-8.191-2.34-9.365L42.499-8.211z"/><path fill="#D8A49C" stroke="#D8A49C" d="M-18.363 62.015L.363 57.334l-26.918-3.512 8.192 8.193z"/><path fill="#D5AEA7" stroke="#D5AEA7" d="M-26.555 53.823L.363 57.335-11.34 31.583l-15.215 22.24z"/><path fill="#E1C0B5" stroke="#E1C0B5" d="M.364 57.334l3.511-8.192-15.215-17.559L.364 57.334z"/><path fill="#D6DCE0" stroke="#D6DCE0" d="M12.068 36.267l14.044-23.411L.364 15.198l11.704 21.069z"/><path fill="#D1CFD0" stroke="#D1CFD0" d="M12.068 36.267L.364 15.198l-7.023 7.024 18.727 14.045z"/><path fill="#D2C7C5" stroke="#D2C7C5" d="M-11.34 31.583l23.408 4.683-18.727-14.044-4.681 9.361z"/><path fill="#77A8D0" stroke="#77A8D0" d="M55.374-25.768l31.602-5.852-23.409-16.385-8.193 22.237z"/><path fill="#729BCA" stroke="#729BCA" d="M86.976-31.62l-2.342-16.386H63.567L86.976-31.62z"/><path fill="#8BB7D8" stroke="#8BB7D8" d="M70.589-15.233L86.976-31.62l-31.602 5.852 15.215 10.535z"/><path fill="#C3DDEB" stroke="#C3DDEB" d="M26.112 12.856l8.193-22.237L20.261 4.664l5.851 8.192z"/><path fill="#DFC9C2" stroke="#DFC9C2" d="M3.875 49.142l8.193-12.875-23.408-4.683L3.875 49.142z"/><path fill="#E3E7EA" stroke="#E3E7EA" d="M12.068 36.267l18.726-11.705-4.682-11.706-14.044 23.411z"/><path fill="#BEDAEB" stroke="#BEDAEB" d="M26.112 12.856L42.499-8.211l-8.193-1.17-8.194 22.237z"/><path fill="#EAE5E3" stroke="#EAE5E3" d="M20.261 37.437l10.533-12.875-18.726 11.705 8.193 1.17z"/><path fill="#CAE1EE" stroke="#CAE1EE" d="M26.112 12.856l32.771-7.021L42.499-8.211 26.112 12.856z"/><path fill="#AD7A80" stroke="#AD7A80" d="M-33.579 95.958l3.512-15.217-22.238-1.17 18.726 16.387z"/><path fill="#CA9391" stroke="#CA9391" d="M-30.067 59.673l11.705 2.342-8.192-8.192-3.513 5.85z"/><path fill="#CC928F" stroke="#CC928F" d="M-26.556 67.866l8.194-5.851-11.705-2.342 3.511 8.193z"/><path fill="#95C2DD" stroke="#95C2DD" d="M57.714-16.403l12.875 1.17-15.215-10.535 2.34 9.365z"/><path fill="#B2D4E7" stroke="#B2D4E7" d="M58.883 5.834L65.908-8.21l-8.194-8.192 1.169 22.236z"/><path fill="#DBE9F2" stroke="#DBE9F2" d="M30.794 24.562L58.883 5.834l-32.771 7.021 4.682 11.707z"/><path fill="#B4D6E8" stroke="#B4D6E8" d="M58.883 5.834l-1.169-22.237-15.215 8.192L58.883 5.834z"/><path fill="#E2EDF3" stroke="#E2EDF3" d="M55.374 28.073l3.509-22.239-28.089 18.728 24.58 3.511z"/><path fill="#839FC9" stroke="#839FC9" d="M86.976-31.62l8.192 3.511-10.534-19.896 2.342 16.385z"/><path fill="#849BC1" stroke="#849BC1" d="M95.168-28.108l11.703-2.34-22.237-17.557 10.534 19.897z"/><path fill="#E3ACA1" stroke="#E3ACA1" d="M-3.148 70.208L.364 57.335l-18.726 4.681 15.214 8.192z"/><path fill="#D79490" stroke="#D79490" d="M-14.853 86.594l-3.51-24.579-8.194 5.851 11.704 18.728z"/><path fill="#D38B89" stroke="#D38B89" d="M-30.067 80.742l15.214 5.853-11.704-18.729-3.51 12.876z"/><path fill="#A3C9E1" stroke="#A3C9E1" d="M65.908-8.21l4.681-7.022-12.875-1.17 8.194 8.192z"/><path fill="#EDEAE8" stroke="#EDEAE8" d="M20.261 37.437h9.363l1.17-12.875-10.533 12.875z"/><path fill="#DF9E96" stroke="#DF9E96" d="M-14.853 86.594l11.705-16.387-15.214-8.192 3.509 24.579z"/><path fill="#8F8FAA" stroke="#8F8FAA" d="M111.555-23.427l22.237 10.535-26.921-17.556 4.684 7.021z"/><path fill="#97BAD9" stroke="#97BAD9" d="M70.589-15.233l12.875 8.192 3.512-24.579-16.387 16.387z"/><path fill="#EFF3F5" stroke="#EFF3F5" d="M44.839 33.925l10.535-5.852-24.58-3.511 14.045 9.363z"/><path fill="#EAD8D0" stroke="#EAD8D0" d="M3.875 49.142l16.387-11.706-8.193-1.17-8.194 12.876z"/><path fill="#DEEBF2" stroke="#DEEBF2" d="M55.374 28.073l8.192-8.193-4.683-14.046-3.509 22.239z"/><path fill="#94B0D4" stroke="#94B0D4" d="M83.464-7.041l11.704-21.068-8.192-3.511-3.512 24.579z"/><path fill="#F2D4C6" stroke="#F2D4C6" d="M19.091 69.038l1.171-31.601L3.875 49.142l15.216 19.896z"/><path fill="#C68586" stroke="#C68586" d="M-33.579 95.958l18.726-9.364-15.214-5.853-3.512 15.217z"/><path fill="#FBDFD2" stroke="#FBDFD2" d="M19.091 69.038l18.726-11.703-17.556-19.898-1.17 31.601z"/><path fill="#F1C6B7" stroke="#F1C6B7" d="M.364 57.334l18.727 11.703L3.875 49.142.364 57.334z"/><path fill="#A5C7E0" stroke="#A5C7E0" d="M65.908-8.21l17.556 1.17-12.875-8.192-4.681 7.022z"/><path fill="#F0F1F1" stroke="#F0F1F1" d="M29.624 37.437l15.215-3.511-14.045-9.363-1.17 12.874z"/><path fill="#ECB4A6" stroke="#ECB4A6" d="M-3.148 70.208l9.364 7.025L.364 57.334l-3.512 12.874z"/><path fill="#F4BFAF" stroke="#F4BFAF" d="M6.216 77.233l12.875-8.195L.364 57.334l5.852 19.899z"/><path fill="#F7E9E2" stroke="#F7E9E2" d="M37.817 57.334l-8.192-19.898h-9.363l17.555 19.898z"/><path fill="#BED8E8" stroke="#BED8E8" d="M58.883 5.834l25.751 2.341L65.908-8.21 58.883 5.834z"/><path fill="#B1CEE3" stroke="#B1CEE3" d="M84.634 8.175l-1.17-15.216L65.908-8.21 84.634 8.175z"/><path fill="#E9A599" stroke="#E9A599" d="M-14.853 86.594l21.069-9.361-9.364-7.025-11.705 16.386z"/><path fill="#FBEAE0" stroke="#FBEAE0" d="M37.817 57.334l2.342-7.022-10.535-12.875 8.193 19.897z"/><path fill="#9FB6D7" stroke="#9FB6D7" d="M83.464-7.041h18.727l-7.022-21.068L83.464-7.041z"/><path fill="#CEE1EC" stroke="#CEE1EC" d="M63.567 19.88L84.634 8.175 58.883 5.834l4.684 14.046z"/><path fill="#D18A88" stroke="#D18A88" d="M-6.659 97.128l-8.193-10.534-18.726 9.364 26.919 1.17z"/><path fill="#C48280" stroke="#C48280" d="M-14.853 117.024l8.193-19.896-26.919-1.17 18.726 21.066z"/><path fill="#A5B9D2" stroke="#A5B9D2" d="M97.51-2.357l4.681-4.683H83.464L97.51-2.357z"/><path fill="#E69A90" stroke="#E69A90" d="M-6.659 97.128L6.216 77.233l-21.069 9.361 8.194 10.534z"/><path fill="#F9F1ED" stroke="#F9F1ED" d="M40.158 50.312l4.681-16.387-15.215 3.511 10.534 12.876z"/><path fill="#909EC2" stroke="#909EC2" d="M111.555-23.427l-4.684-7.021-11.703 2.34 16.387 4.681z"/><path fill="#99A7CC" stroke="#99A7CC" d="M102.191-7.041l9.364-16.387-16.387-4.681 7.023 21.068z"/><path fill="#ADC3D7" stroke="#ADC3D7" d="M84.634 8.175L97.51-2.357 83.464-7.041l1.17 15.216z"/><path fill="#CFD7DC" stroke="#CFD7DC" d="M88.146 28.072L84.634 8.175 63.567 19.88l24.579 8.192z"/><path fill="#FBEBE2" stroke="#FBEBE2" d="M40.158 50.312l23.408 7.022-18.727-23.409-4.681 16.387z"/><path fill="#F7E8E0" stroke="#F7E8E0" d="M63.567 57.334l7.022-14.045-25.75-9.364 18.728 23.409z"/><path fill="#F0ECEA" stroke="#F0ECEA" d="M70.589 43.29L55.374 28.073l-10.535 5.852 25.75 9.365z"/><path fill="#FCD4C0" stroke="#FCD4C0" d="M43.67 67.869l-5.853-10.534-18.726 11.703 24.579-1.169z"/><path fill="#E69484" stroke="#E69484" d="M-6.659 97.128l21.068 11.703-8.193-31.598-12.875 19.895z"/><path fill="#EC9982" stroke="#EC9982" d="M14.408 108.832l12.875-12.875L6.216 77.233l8.192 31.599z"/><path fill="#F3B29B" stroke="#F3B29B" d="M27.284 95.957l-8.193-26.919-12.875 8.195 21.068 18.724z"/><path fill="#E9E8E8" stroke="#E9E8E8" d="M55.374 28.073L70.589 43.29l-7.022-23.41-8.193 8.193z"/><path fill="#E2DDDC" stroke="#E2DDDC" d="M70.589 43.29l17.557-15.217-24.579-8.193 7.022 23.41z"/><path fill="#CD7C73" stroke="#CD7C73" d="M-14.853 117.024l19.898-1.17-11.704-18.726-8.194 19.896z"/><path fill="#FBC6AC" stroke="#FBC6AC" d="M40.157 85.424l3.513-17.556-24.579 1.169 21.066 16.387z"/><path fill="#F6B296" stroke="#F6B296" d="M27.284 95.957l12.873-10.532-21.066-16.387 8.193 26.919z"/><path fill="#9FA1C0" stroke="#9FA1C0" d="M102.191-7.041l15.217 10.534-5.853-26.92-9.364 16.386z"/><path fill="#988FA8" stroke="#988FA8" d="M117.407 3.493l16.385-16.386-22.237-10.535 5.852 26.921z"/><path fill="#A53134" stroke="#A53134" d="M33.136 160.332l-7.023-14.045-17.556-15.215 24.579 29.26z"/><path fill="#B4C0CE" stroke="#B4C0CE" d="M97.51 18.71V-2.357L84.634 8.175 97.51 18.71z"/><path fill="#FDE0CF" stroke="#FDE0CF" d="M37.817 57.334l5.853 10.534-3.511-17.557-2.342 7.023z"/><path fill="#FDDFCE" stroke="#FDDFCE" d="M43.67 67.869l19.897-10.534-23.408-7.022 3.511 17.556z"/><path fill="#DD7F6F" stroke="#DD7F6F" d="M5.046 115.854l9.363-7.022-21.068-11.704 11.705 18.726z"/><path fill="#C4C8CD" stroke="#C4C8CD" d="M88.146 28.072l9.364-9.362L84.634 8.175l3.512 19.897z"/><path fill="#E4D2CB" stroke="#E4D2CB" d="M81.123 44.458l7.022-16.385L70.589 43.29l10.534 1.168z"/><path fill="#A5ABC2" stroke="#A5ABC2" d="M117.407 3.493L102.191-7.041 97.51-2.357l19.897 5.85z"/><path fill="#ABAEBF" stroke="#ABAEBF" d="M97.51 18.71l19.897-15.217-19.897-5.85V18.71z"/><path fill="#E4846C" stroke="#E4846C" d="M14.408 108.832h4.682l8.193-12.875-12.875 12.875z"/><path fill="#BF6A5F" stroke="#BF6A5F" d="M8.557 131.072l-3.511-15.218-19.898 1.17 23.409 14.048z"/><path fill="#F9C2A8" stroke="#F9C2A8" d="M53.032 84.252l14.045-2.342-3.511-24.576-10.534 26.918z"/><path fill="#9F8AA0" stroke="#9F8AA0" d="M122.089 8.175l11.703-21.068-16.385 16.386 4.682 4.682z"/><path fill="#AAA0AF" stroke="#AAA0AF" d="M122.089 8.175l-4.682-4.682L97.51 18.71l24.579-10.535z"/><path fill="#B1A4AC" stroke="#B1A4AC" d="M110.385 29.243l11.704-21.067L97.51 18.71l12.875 10.533z"/><path fill="#FCCCB5" stroke="#FCCCB5" d="M53.032 84.252l10.534-26.918L43.67 67.869l9.362 16.383z"/><path fill="#F9BC9F" stroke="#F9BC9F" d="M40.157 85.424l12.875-1.172-9.362-16.383-3.513 17.555z"/><path fill="#CABDBC" stroke="#CABDBC" d="M102.191 37.437L97.51 18.71l-9.364 9.362 14.045 9.365z"/><path fill="#F2D4C6" stroke="#F2D4C6" d="M63.567 57.334l21.067-2.342L70.589 43.29l-7.022 14.044z"/><path fill="#ECCFC3" stroke="#ECCFC3" d="M84.634 54.993l-3.511-10.535-10.534-1.168 14.045 11.703z"/><path fill="#967788" stroke="#967788" d="M122.089 8.175l24.578-5.853-12.875-15.215-11.703 21.068z"/><path fill="#C2B0AF" stroke="#C2B0AF" d="M102.191 37.437l8.194-8.194L97.51 18.71l4.681 18.727z"/><path fill="#D8C3BD" stroke="#D8C3BD" d="M81.123 44.458l21.067-7.021-14.045-9.364-7.022 16.385z"/><path fill="#DFBCB2" stroke="#DFBCB2" d="M92.828 56.163l9.362-18.726-21.067 7.021 11.705 11.705z"/><path fill="#F7AF8E" stroke="#F7AF8E" d="M48.352 88.934l4.681-4.682-12.875 1.172 8.194 3.51z"/><path fill="#D86D5B" stroke="#D86D5B" d="M8.557 131.072l10.534-22.24h-4.682l-5.852 22.24z"/><path fill="#E38067" stroke="#E38067" d="M19.091 108.832l10.534 5.854-2.34-18.729-8.194 12.875z"/><path fill="#F4A785" stroke="#F4A785" d="M48.352 88.934l-8.195-3.51-12.873 10.533 21.068-7.023z"/><path fill="#CF6A5B" stroke="#CF6A5B" d="M8.557 131.072l5.852-22.24-9.363 7.022 3.511 15.218z"/><path fill="#F4C7B7" stroke="#F4C7B7" d="M83.464 70.208l1.17-15.215-21.067 2.342 19.897 12.873z"/><path fill="#F7C3AF" stroke="#F7C3AF" d="M67.077 81.911l16.387-11.703-19.897-12.874 3.51 24.577z"/><path fill="#D76855" stroke="#D76855" d="M8.557 131.072l21.067-16.387-10.534-5.854-10.533 22.241z"/><path fill="#EE9676" stroke="#EE9676" d="M55.374 107.663l-7.022-18.729-21.068 7.022 28.09 11.707z"/><path fill="#E58165" stroke="#E58165" d="M29.624 114.685l25.75-7.022-28.09-11.706 2.34 18.728z"/><path fill="#CB5447" stroke="#CB5447" d="M27.284 135.752l2.34-21.067-21.067 16.387 18.727 4.68z"/><path fill="#A88A96" stroke="#A88A96" d="M110.385 29.243l26.919-3.511-15.215-17.557-11.704 21.068z"/><path fill="#E9C2B5" stroke="#E9C2B5" d="M84.634 54.993l8.194 1.17-11.705-11.705 3.511 10.535z"/><path fill="#9C7489" stroke="#9C7489" d="M137.304 25.732l9.363-23.41-24.578 5.853 15.215 17.557z"/><path fill="#DE7058" stroke="#DE7058" d="M53.032 117.024l2.342-9.361-25.75 7.022 23.408 2.339z"/><path fill="#A8838C" stroke="#A8838C" d="M129.112 40.947l8.192-15.215-26.919 3.511 18.727 11.704z"/><path fill="#D8ACA5" stroke="#D8ACA5" d="M92.828 56.163l9.362 4.681V37.437l-9.362 18.726z"/><path fill="#C09F9E" stroke="#C09F9E" d="M119.747 45.628l-9.362-16.386-8.194 8.194 17.556 8.192z"/><path fill="#ED9679" stroke="#ED9679" d="M55.374 107.663l11.703-14.046-18.726-4.683 7.023 18.729z"/><path fill="#F3A78A" stroke="#F3A78A" d="M48.352 88.934l18.726 4.683-14.045-9.364-4.681 4.681z"/><path fill="#F3AB90" stroke="#F3AB90" d="M67.077 93.617V81.911l-14.045 2.342 14.045 9.364z"/><path fill="#925E73" stroke="#925E73" d="M137.304 25.732l15.215-5.852-5.852-17.558-9.363 23.41z"/><path fill="#EAB9AD" stroke="#EAB9AD" d="M83.464 70.208l9.364-14.045-8.194-1.17-1.17 15.215z"/><path fill="#B4413C" stroke="#B4413C" d="M26.113 146.287l1.171-10.534-18.727-4.681 17.556 15.215z"/><path fill="#B48C91" stroke="#B48C91" d="M119.747 45.628l9.364-4.682-18.727-11.704 9.363 16.386z"/><path fill="#CBA09C" stroke="#CBA09C" d="M102.191 60.843l17.557-15.215-17.557-8.192v23.407z"/><path fill="#F0AC9A" stroke="#F0AC9A" d="M83.464 88.934V70.208L67.077 81.911l16.387 7.023z"/><path fill="#C8473F" stroke="#C8473F" d="M27.284 135.752l15.215 5.853-12.875-26.92-2.34 21.067z"/><path fill="#D05546" stroke="#D05546" d="M42.499 141.605l10.534-24.581-23.408-2.339 12.874 26.92z"/><path fill="#E5AFA4" stroke="#E5AFA4" d="M83.464 70.208l18.727-9.364-9.362-4.681-9.365 14.045z"/><path fill="#83485E" stroke="#83485E" d="M152.519 19.88l16.387 2.34-22.239-19.898 5.852 17.558z"/><path fill="#EEA18A" stroke="#EEA18A" d="M67.077 93.617l12.876 1.17-12.876-12.876v11.706z"/><path fill="#EDA08C" stroke="#EDA08C" d="M79.953 94.787l3.511-5.853-16.387-7.023 12.876 12.876z"/><path fill="#C99391" stroke="#C99391" d="M116.236 67.869l3.512-22.24-17.557 15.215 14.045 7.025z"/><path fill="#E3A299" stroke="#E3A299" d="M103.363 85.422l-1.172-24.579-18.727 9.364 19.899 15.215z"/><path fill="#EAA498" stroke="#EAA498" d="M83.464 88.934l19.898-3.512-19.898-15.214v18.726z"/><path fill="#C8483F" stroke="#C8483F" d="M42.499 141.605l16.387-9.364-5.854-15.217-10.533 24.581z"/><path fill="#D69590" stroke="#D69590" d="M103.363 85.422l12.873-17.554-14.045-7.025 1.172 24.579z"/><path fill="#9F6F7E" stroke="#9F6F7E" d="M129.112 40.947l10.533 5.852-2.341-21.066-8.192 15.214z"/><path fill="#E3826B" stroke="#E3826B" d="M55.374 107.663l22.237 8.191-10.534-22.237-11.703 14.046z"/><path fill="#E48A76" stroke="#E48A76" d="M77.612 115.854l2.342-21.067-12.876-1.17 10.534 22.237z"/><path fill="#BC8486" stroke="#BC8486" d="M116.236 67.869l15.217-3.514-11.705-18.727-3.512 22.241z"/><path fill="#B63234" stroke="#B63234" d="M26.113 146.287l16.386-4.682-15.215-5.853-1.171 10.535z"/><path fill="#D96A55" stroke="#D96A55" d="M53.032 117.024l12.876 8.194-10.534-17.556-2.342 9.362z"/><path fill="#D96C58" stroke="#D96C58" d="M65.908 125.218l11.703-9.364-22.237-8.191 10.534 17.555z"/><path fill="#935974" stroke="#935974" d="M154.86 38.606l-2.341-18.726-15.215 5.852 17.556 12.874z"/><path fill="#976076" stroke="#976076" d="M139.645 46.798l15.215-8.192-17.556-12.874 2.341 21.066z"/><path fill="#B17E85" stroke="#B17E85" d="M131.452 64.355l-2.341-23.408-9.364 4.682 11.705 18.726z"/><path fill="#D28988" stroke="#D28988" d="M103.363 85.422l14.043-2.339-1.17-15.215-12.873 17.554z"/><path fill="#A7727D" stroke="#A7727D" d="M131.452 64.355l8.192-17.557-10.533-5.852 2.341 23.409z"/><path fill="#CF5749" stroke="#CF5749" d="M58.886 132.241l7.022-7.022-12.876-8.194 5.854 15.216z"/><path fill="#84445F" stroke="#84445F" d="M154.86 38.606l14.046-16.386-16.387-2.34 2.341 18.726z"/><path fill="#E18C7F" stroke="#E18C7F" d="M79.953 94.787l22.237 15.217-18.726-21.07-3.511 5.853z"/><path fill="#DF8D85" stroke="#DF8D85" d="M102.191 110.003l1.172-24.581-19.898 3.512 18.726 21.069z"/><path fill="#A7212D" stroke="#A7212D" d="M33.136 160.332l9.363-18.727-16.386 4.682 7.023 14.045z"/><path fill="#DA8073" stroke="#DA8073" d="M77.612 115.854l24.579-5.851-22.238-15.216-2.341 21.067z"/><path fill="#C6746A" stroke="#C6746A" d="M91.656 120.538l10.534-10.534-24.579 5.851 14.045 4.683z"/><path fill="#7B3F5E" stroke="#7B3F5E" d="M154.86 38.606l10.534 3.511 3.512-19.897-14.046 16.386z"/><path fill="#9D6977" stroke="#9D6977" d="M131.452 64.355l15.215-3.509-7.022-14.048-8.193 17.557z"/><path fill="#C08083" stroke="#C08083" d="M117.406 83.083l14.047-18.729-15.217 3.514 1.17 15.215z"/><path fill="#A01228" stroke="#A01228" d="M33.136 160.332l15.216-1.17-5.853-17.557-9.363 18.727z"/><path fill="#B32930" stroke="#B32930" d="M51.863 157.99l7.023-25.749-16.387 9.364 9.364 16.385z"/><path fill="#A31329" stroke="#A31329" d="M48.352 159.162l3.511-1.172-9.364-16.385 5.853 17.557z"/><path fill="#6B3452" stroke="#6B3452" d="M165.394 42.117l11.706-4.682-8.194-15.215-3.512 19.897z"/><path fill="#AC3234" stroke="#AC3234" d="M51.863 157.99l21.068-16.387-14.045-9.362-7.023 25.749z"/><path fill="#C78685" stroke="#C78685" d="M102.191 110.003l17.557-10.536-16.385-14.045-1.172 24.581z"/><path fill="#905B70" stroke="#905B70" d="M146.667 60.846l8.192-22.24-15.215 8.192 7.023 14.048z"/><path fill="#C65F51" stroke="#C65F51" d="M83.464 133.411l-5.853-17.557-11.703 9.364 17.556 8.193z"/><path fill="#C58585" stroke="#C58585" d="M119.747 99.467l-2.342-16.384-14.043 2.339 16.385 14.045z"/><path fill="#A8767E" stroke="#A8767E" d="M117.406 83.083l28.093-14.046-14.046-4.683-14.047 18.729z"/><path fill="#814F6A" stroke="#814F6A" d="M146.667 60.846l18.727-18.729-10.534-3.511-8.193 22.24z"/><path fill="#B64F46" stroke="#B64F46" d="M72.931 141.603l10.533-8.192-17.556-8.192 7.023 16.384z"/><path fill="#BE4A41" stroke="#BE4A41" d="M72.931 141.603l-7.022-16.385-7.022 7.022 14.044 9.363z"/><path fill="#946876" stroke="#946876" d="M145.498 69.038l1.169-8.191-15.215 3.509 14.046 4.682z"/><path fill="#C0665A" stroke="#C0665A" d="M83.464 133.411l8.192-12.873-14.045-4.684 5.853 17.557z"/><path fill="#AB797F" stroke="#AB797F" d="M119.747 99.467l25.751-30.43-28.093 14.046 2.342 16.384z"/><path fill="#704666" stroke="#704666" d="M145.498 69.038L177.1 37.435l-11.706 4.682-19.896 26.921z"/><path fill="#7C566D" stroke="#7C566D" d="M145.498 69.038l19.896-26.92-18.727 18.729-1.169 8.191z"/><path fill="#BA6C64" stroke="#BA6C64" d="M91.656 120.538l-8.192 12.873 18.727-23.407-10.535 10.534z"/><path fill="#B97773" stroke="#B97773" d="M83.464 133.411l36.283-33.943-17.557 10.536-18.726 23.407z"/><path fill="#836072" stroke="#836072" d="M145.498 69.038l-25.751 30.43L177.1 37.435l-31.602 31.603z"/></g><g fill="#FFF"><path d="M89.521 33.533c-.219 0-.423-.094-.607-.279l-.274-.277a.788.788 0 0 1-.229-.625.919.919 0 0 1 .293-.625.914.914 0 0 1 .633-.292h.007c.271 0 .468.082.619.239l.265.261c.384.393.368.871-.039 1.277-.211.214-.438.321-.668.321z"/><path d="M89.384 31.786c.128 0 .235.042.317.129l.281.273c.239.245.226.508-.048.779-.145.145-.279.216-.419.216-.123 0-.242-.06-.358-.174l-.27-.279a.435.435 0 0 1-.133-.355.583.583 0 0 1 .189-.395.6.6 0 0 1 .4-.192c.018-.002.029-.002.041-.002m0-.7h-.019l-.055.002c-.315.011-.617.15-.861.4a1.274 1.274 0 0 0-.391.853c-.021.337.099.658.343.892l.26.269c.322.316.643.384.859.384.227 0 .568-.072.921-.42.536-.546.555-1.236.048-1.762l-.293-.287a1.107 1.107 0 0 0-.812-.331zm5.482-4.54c-.619 0-1.279-.143-1.965-.424-.79-.326-1.643-.94-2.528-1.828l-7.29-7.289c-1.368-1.368-2.125-2.765-2.243-4.147-.083-1.441.529-2.814 1.805-4.094 1.206-1.205 2.48-1.815 3.794-1.815l.3.011c1.38.081 2.78.828 4.169 2.215l7.295 7.292c.881.879 1.498 1.73 1.825 2.526.326.804.464 1.572.406 2.286a4.32 4.32 0 0 1-.616 1.965 8.094 8.094 0 0 1-1.18 1.516 7.775 7.775 0 0 1-1.501 1.156 4.416 4.416 0 0 1-1.962.617 2.774 2.774 0 0 1-.309.013zM86.384 8.729c-.85 0-1.702.419-2.531 1.245-.9.902-1.298 1.769-1.215 2.646.066.978.648 2.019 1.729 3.103l7.295 7.289c1.094 1.098 2.141 1.687 3.113 1.757h.028c1.007 0 1.822-.411 2.622-1.216.875-.873 1.279-1.75 1.238-2.686-.053-.913-.648-1.949-1.777-3.081l-7.292-7.294c-1.108-1.114-2.136-1.706-3.059-1.759l-.153-.355v.353h.002z"/><path d="M86.439 7.303c.087 0 .179.002.27.009 1.3.077 2.621.784 3.95 2.115l7.294 7.292c.855.859 1.436 1.663 1.75 2.411.307.754.435 1.46.382 2.122a4.033 4.033 0 0 1-.566 1.809 7.955 7.955 0 0 1-1.129 1.453 7.595 7.595 0 0 1-1.423 1.103 4.054 4.054 0 0 1-1.81.569 3.946 3.946 0 0 1-.29.012c-.578 0-1.188-.133-1.832-.396-.745-.309-1.554-.891-2.412-1.75l-7.285-7.289c-1.321-1.319-2.031-2.629-2.144-3.931-.075-1.331.496-2.607 1.704-3.815 1.137-1.147 2.321-1.714 3.541-1.714m8.535 17.82c.928 0 1.823-.439 2.705-1.324.935-.935 1.385-1.917 1.339-2.949-.058-1.015-.688-2.118-1.883-3.315l-7.294-7.292c-1.177-1.181-2.278-1.801-3.283-1.862-.06-.002-.116-.004-.174-.004-.952 0-1.878.449-2.78 1.347-.966.973-1.409 1.948-1.313 2.926.078 1.062.688 2.167 1.835 3.315l7.294 7.29c1.163 1.165 2.275 1.783 3.338 1.857.069.009.143.011.216.011M86.439 6.598c-1.414 0-2.773.646-4.046 1.919-1.354 1.352-1.996 2.816-1.909 4.351.132 1.487.923 2.957 2.353 4.386l7.285 7.289c.923.922 1.808 1.561 2.642 1.901.73.297 1.435.449 2.099.449a4.736 4.736 0 0 0 2.456-.679 7.984 7.984 0 0 0 1.562-1.21 8.115 8.115 0 0 0 1.234-1.589 4.682 4.682 0 0 0 .664-2.117c.058-.765-.084-1.586-.434-2.438-.345-.842-.992-1.731-1.9-2.646L91.15 8.923c-1.451-1.451-2.931-2.232-4.404-2.319-.092-.001-.2-.006-.307-.006zm8.535 17.826c-.05 0-.109-.002-.167-.007-.889-.063-1.861-.62-2.89-1.654l-7.295-7.292c-1.021-1.02-1.564-1.985-1.631-2.871-.07-.781.293-1.554 1.119-2.38.772-.768 1.513-1.142 2.283-1.142l.132.002c.834.049 1.791.609 2.831 1.656l7.297 7.292c1.062 1.069 1.626 2.03 1.674 2.855.039.826-.336 1.617-1.131 2.415-.765.758-1.487 1.126-2.222 1.126zm-52.247 95.081c-1.254-.051-2.559-.745-3.875-2.062a.893.893 0 0 1-.24-.616c0-.247.098-.476.281-.658a.873.873 0 0 1 .633-.261c.242 0 .45.083.615.24.656.662 1.256 1.108 1.791 1.318.441.178.854.274 1.215.274.601-.042.962-.163 1.286-.38a5.9 5.9 0 0 0 .93-.763c.774-.766 1.154-1.576 1.128-2.388-.073-.856-.617-1.802-1.606-2.789L12.923 79.45c-.448-.454-.494-1.017-.165-1.339L61.37 29.49a.785.785 0 0 1 .546-.217c.258 0 .521.114.722.315l-.062.431.244-.248 7.717 7.715-2.058-14.036a.93.93 0 0 1 .171-.689 1.04 1.04 0 0 1 .519-.375c.071-.004.138-.007.189-.007.252 0 .382.045.508.117.226.136.35.345.365.609l1.688 11.166 12.491 2.906c.146.032.368.13.521.414.111.241.128.459.063.669-.128.236-.178.328-.244.391a.918.918 0 0 1-.674.29l-11.891-2.748.534 3.571 4.894 4.796a.814.814 0 0 1 .251.641.962.962 0 0 1-.261.601c-.219.215-.442.324-.676.324-.15 0-.377-.048-.605-.276L62.04 31.565 14.833 78.777l31.456 31.458c1.22 1.222 1.898 2.526 1.954 3.767.104 1.313-.457 2.598-1.668 3.809-1.131 1.128-2.335 1.704-3.575 1.704l-.273-.01z"/><path d="M69.38 22.711c.107 0 .208.029.302.085a.388.388 0 0 1 .201.329l1.718 11.433 12.723 2.959c.128.027.222.107.293.241a.562.562 0 0 1 .036.397 1.56 1.56 0 0 1-.153.25.579.579 0 0 1-.427.185.61.61 0 0 1-.117-.01L71.76 35.736l.605 4.082 4.991 4.994a.488.488 0 0 1 .151.377.588.588 0 0 1-.165.372c-.144.145-.285.215-.423.215a.497.497 0 0 1-.354-.171L62.031 31.072l-47.7 47.705 31.705 31.709c1.146 1.142 1.805 2.362 1.853 3.536.096 1.22-.425 2.403-1.565 3.541-1.069 1.069-2.177 1.606-3.329 1.606-.082 0-.162-.003-.244-.007-1.174-.051-2.39-.713-3.648-1.963a.509.509 0 0 1-.142-.365c0-.153.06-.293.18-.414a.534.534 0 0 1 .384-.152c.156 0 .277.05.368.139.69.695 1.323 1.156 1.898 1.395.486.198.934.299 1.348.299.076 0 .148-.002.224-.01.466-.033.891-.18 1.254-.427.368-.244.699-.512.989-.811.848-.844 1.259-1.729 1.227-2.65-.082-.964-.644-1.974-1.704-3.029l-31.956-31.97c-.009-.009-.011-.024-.021-.034-.023-.014-.037-.018-.05-.032-.238-.244-.283-.591-.098-.776L61.62 29.739a.412.412 0 0 1 .297-.114c.16 0 .336.074.475.212.042.038.06.083.092.125.029.016.062.03.089.056l8.467 8.463-2.212-15.082a.574.574 0 0 1 .107-.431.693.693 0 0 1 .341-.248c.036-.004.07-.009.104-.009m0-.702h-.057l-.162.019c-.365.107-.604.273-.786.518-.21.282-.292.61-.242.954l1.901 12.993-6.968-6.966-.078-.08-.019-.009c-.036-.04-.068-.08-.114-.12a1.366 1.366 0 0 0-.94-.391c-.302 0-.581.111-.789.314L12.508 77.868c-.466.464-.423 1.238.093 1.764l.005.004.021.046.043.018.002.005.012.007L44.64 111.67c.925.927 1.43 1.805 1.503 2.591.018.688-.315 1.389-1.023 2.095a6.013 6.013 0 0 1-.882.729c-.27.178-.578.283-.921.306-.064.007-.117.01-.169.01-.315 0-.681-.082-1.083-.247-.486-.196-1.044-.614-1.667-1.238a1.217 1.217 0 0 0-.866-.34c-.336 0-.645.13-.88.358a1.276 1.276 0 0 0-.386.909c0 .333.116.626.338.853 1.389 1.387 2.773 2.112 4.124 2.177.082.005.178.009.274.009 1.339 0 2.625-.609 3.824-1.807 1.286-1.281 1.883-2.662 1.769-4.094-.051-1.31-.768-2.689-2.056-3.976L15.323 78.777l46.71-46.717 14.041 14.034c.306.315.635.384.85.384.329 0 .633-.144.916-.422.233-.24.352-.523.372-.829a1.201 1.201 0 0 0-.36-.924l-4.823-4.823-.42-2.831 11.188 2.61A1.284 1.284 0 0 0 85 38.895c.092-.096.156-.206.268-.4l.037-.063.021-.07a1.236 1.236 0 0 0-.069-.898c-.234-.443-.55-.585-.783-.634l-12.24-2.85-1.654-10.962c-.019-.317-.211-.631-.537-.828a1.312 1.312 0 0 0-.663-.181z"/><path d="M54.81 107.593c-.628 0-1.291-.142-1.972-.42-.802-.334-1.651-.946-2.531-1.83l-7.287-7.285c-1.373-1.375-2.129-2.771-2.244-4.148-.082-1.438.523-2.812 1.805-4.092 1.201-1.209 2.474-1.812 3.781-1.812l.315.009c1.378.08 2.778.827 4.172 2.214l7.292 7.29c.889.889 1.508 1.738 1.823 2.531.324.792.464 1.558.411 2.277a4.34 4.34 0 0 1-.619 1.972 7.959 7.959 0 0 1-1.182 1.515c-.436.432-.932.82-1.491 1.153a4.502 4.502 0 0 1-1.965.617c-.1.005-.205.009-.308.009zm-8.501-17.814c-.861 0-1.688.407-2.524 1.24-.889.889-1.295 1.78-1.21 2.648.059.973.642 2.01 1.727 3.093l7.292 7.292c1.1 1.099 2.147 1.695 3.114 1.755h.032c1.012 0 1.82-.416 2.622-1.216.868-.868 1.275-1.749 1.241-2.684-.056-.916-.654-1.951-1.785-3.077l-7.289-7.288c-1.12-1.117-2.147-1.706-3.068-1.759l-.155-.354.003.35z"/><path d="M46.36 88.346c.094 0 .189.005.286.012 1.307.078 2.618.783 3.955 2.115l7.29 7.288c.854.854 1.438 1.667 1.747 2.412.309.752.435 1.458.387 2.12a4.062 4.062 0 0 1-.569 1.805 7.664 7.664 0 0 1-1.129 1.453 7.818 7.818 0 0 1-1.418 1.105 3.991 3.991 0 0 1-2.093.576c-.583 0-1.199-.133-1.839-.394-.747-.311-1.559-.891-2.415-1.75l-7.285-7.287c-1.32-1.315-2.036-2.627-2.143-3.934-.078-1.332.491-2.603 1.7-3.815 1.129-1.136 2.308-1.706 3.526-1.706m8.562 17.822c.916 0 1.812-.443 2.691-1.321.934-.937 1.382-1.919 1.343-2.951-.06-1.015-.689-2.12-1.89-3.314l-7.289-7.29c-1.184-1.179-2.275-1.801-3.288-1.859-.06-.005-.126-.005-.181-.005-.953 0-1.871.443-2.776 1.343-.971.969-1.409 1.947-1.311 2.93.071 1.06.683 2.163 1.834 3.312l7.292 7.292c1.163 1.16 2.277 1.784 3.34 1.854.08.005.157.009.235.009M46.36 87.645c-1.405 0-2.762.643-4.032 1.919-1.353 1.351-1.99 2.814-1.903 4.348.128 1.485.916 2.956 2.351 4.386l7.286 7.286c.913.92 1.802 1.558 2.643 1.905.729.297 1.433.445 2.106.445.112 0 .224-.007.341-.016a4.712 4.712 0 0 0 2.113-.663 8.26 8.26 0 0 0 1.558-1.206 8.379 8.379 0 0 0 1.236-1.595 4.755 4.755 0 0 0 .664-2.115c.053-.776-.089-1.6-.44-2.44-.338-.829-.978-1.723-1.898-2.647l-7.29-7.285c-1.457-1.453-2.94-2.229-4.409-2.321-.103.004-.217-.001-.326-.001zm8.562 17.824c-.053 0-.116-.005-.176-.01-.889-.055-1.862-.614-2.897-1.649l-7.29-7.292c-1.026-1.023-1.572-1.987-1.631-2.864-.078-.791.286-1.562 1.112-2.388.763-.763 1.51-1.136 2.275-1.136l.139.005c.83.051 1.789.607 2.838 1.656l7.29 7.288c1.066 1.066 1.631 2.028 1.679 2.86.036.824-.341 1.617-1.133 2.414-.753.736-1.491 1.116-2.206 1.116zm11.927-8.284c-.224 0-.427-.091-.611-.273L51.456 82.128a.806.806 0 0 1-.235-.633c.009-.231.109-.441.295-.629a.943.943 0 0 1 .628-.287h.01c.258 0 .449.075.609.217l6.794 6.801 4.716-4.718-6.783-6.787c-.116-.107-.246-.309-.23-.628a.945.945 0 0 1 .29-.631.96.96 0 0 1 .635-.285h.012c.27 0 .455.077.607.226l14.786 14.79c.226.229.276.45.276.604 0 .235-.112.454-.32.667-.217.215-.438.32-.674.32-.217 0-.42-.092-.604-.272l-6.767-6.773-4.722 4.72 6.773 6.767c.377.38.361.866-.043 1.271-.205.213-.429.317-.66.317z"/><path d="M58.24 74.9c.13 0 .232.044.312.126l14.785 14.79c.244.241.235.502-.039.771-.148.146-.287.218-.429.218-.124 0-.242-.058-.353-.172l-7.013-7.018-5.216 5.215 7.016 7.019c.244.242.233.505-.039.77-.146.146-.283.22-.418.22-.128 0-.244-.055-.358-.174L51.703 81.883a.432.432 0 0 1-.131-.355.602.602 0 0 1 .192-.402.576.576 0 0 1 .397-.188h.036c.133 0 .24.043.327.126l7.034 7.038 5.211-5.211-7.034-7.038a.434.434 0 0 1-.126-.356.569.569 0 0 1 .189-.4.57.57 0 0 1 .396-.185c.015-.012.032-.012.046-.012m0-.701h-.027l-.073.005c-.29.004-.592.142-.832.388a1.263 1.263 0 0 0-.396.873c-.024.333.101.653.341.886l6.526 6.529-4.219 4.223-6.539-6.543a1.184 1.184 0 0 0-.822-.334c-.401.023-.699.155-.93.402a1.255 1.255 0 0 0-.393.858c-.025.341.096.646.34.892l14.781 14.773c.312.317.633.382.854.382.326 0 .633-.146.914-.423.534-.544.553-1.252.038-1.771l-6.52-6.52 4.227-4.222 6.518 6.524c.315.311.633.374.848.374.331 0 .635-.142.92-.418.348-.35.426-.692.423-.92 0-.218-.063-.54-.382-.851L59.059 74.521a1.19 1.19 0 0 0-.819-.322zm20.584 11.007c-.144 0-.37-.051-.601-.272l-14.784-14.79c-.329-.322-.343-.747-.048-1.141.253-.338.546-.409.747-.409h.059l.281.064 17.33 6.625-11.763-11.76a.802.802 0 0 1-.226-.619.972.972 0 0 1 .287-.63.95.95 0 0 1 .633-.293h.014c.266 0 .455.075.608.224l14.792 14.79c.317.32.34.733.073 1.138-.353.368-.592.421-.743.421h-.082l-.287-.092-17.321-6.593 11.744 11.744c.242.245.283.484.276.643-.016.219-.121.432-.319.635-.21.209-.436.315-.67.315z"/><path d="M70.806 62.331c.128 0 .233.043.313.126l14.787 14.787c.196.199.21.437.034.701l-.073.076c-.125.121-.246.185-.376.185a.456.456 0 0 1-.213-.055L66.392 70.96 79.29 83.869c.245.245.238.503-.038.774-.146.146-.286.215-.428.215a.5.5 0 0 1-.35-.164l-14.787-14.79c-.201-.201-.206-.432-.014-.681.135-.179.292-.27.468-.27.066 0 .145.014.222.046l18.866 7.21-12.925-12.925a.434.434 0 0 1-.126-.35.596.596 0 0 1 .189-.4.59.59 0 0 1 .397-.188c.013-.015.026-.015.042-.015m0-.702h-.027l-.07.004a1.263 1.263 0 0 0-.832.385 1.32 1.32 0 0 0-.404.858c-.016.352.107.672.343.9l10.591 10.591-15.79-6.035a1.373 1.373 0 0 0-.474-.092c-.397 0-.763.196-1.03.551-.399.527-.367 1.151.083 1.602L77.98 85.178c.312.311.633.374.845.374.233 0 .571-.068.923-.422.263-.263.404-.551.418-.859.012-.235-.045-.573-.379-.911L69.211 72.778l15.823 6.024c.104.052.28.101.461.101.224 0 .556-.069.877-.394l.049-.048.121-.135c.35-.537.308-1.14-.128-1.581l-14.786-14.79a1.198 1.198 0 0 0-.822-.326zm20.392 9.225c-1.384-.077-2.789-.824-4.181-2.216-.242-.24-.281-.484-.274-.64.012-.217.117-.43.313-.631a.933.933 0 0 1 .617-.265h.006c.266 0 .469.089.636.251.718.715 1.378 1.199 1.955 1.433.496.201.955.304 1.366.304.665-.048 1.067-.188 1.424-.425.391-.256.73-.534 1.025-.822.853-.854 1.236-1.745 1.17-2.728-.068-.987-.59-1.977-1.552-2.934-.502-.51-1.023-.834-1.551-.982a4.266 4.266 0 0 0-1.145-.164c-.14 0-.271.009-.411.027-.51.055-.982.169-1.407.343l-1.752.698c-.343.158-.798.341-1.364.542a6.533 6.533 0 0 1-1.917.374l-.278.008a7.014 7.014 0 0 1-1.903-.277c-.771-.219-1.525-.691-2.238-1.409-1.216-1.215-1.912-2.554-2.084-3.973-.171-1.602.377-3.055 1.641-4.324 1.22-1.218 2.515-1.83 3.856-1.83l.253.009c1.392.08 2.804.829 4.213 2.236.153.16.242.373.242.615a.936.936 0 0 1-.285.662.91.91 0 0 1-.645.279.855.855 0 0 1-.633-.245c-1.09-1.092-2.139-1.684-3.111-1.75h-.025c-1.001 0-1.83.421-2.654 1.236-.829.834-1.172 1.752-1.051 2.798.104 1.056.633 2.068 1.569 2.993.505.51 1.027.846 1.562 1.015.447.137.868.201 1.281.201l.297-.012a5.533 5.533 0 0 0 1.451-.309c.464-.162.865-.324 1.204-.488l.582-.25c.324-.132.757-.304 1.307-.509a6.99 6.99 0 0 1 2.397-.443c.537 0 1.104.073 1.68.224.783.211 1.515.663 2.247 1.392.595.597 1.059 1.231 1.387 1.898.327.669.53 1.356.602 2.035.123 1.559-.452 2.981-1.716 4.245-1.206 1.203-2.481 1.812-3.783 1.812l-.323-.004z"/><path d="M83.14 51.569c.08 0 .153.004.238.009 1.307.073 2.631.786 3.979 2.134a.507.507 0 0 1 .139.365.57.57 0 0 1-.178.416.567.567 0 0 1-.402.174h-.021a.456.456 0 0 1-.352-.138c-1.165-1.165-2.282-1.782-3.345-1.857a2.133 2.133 0 0 0-.215-.011c-.921 0-1.837.452-2.736 1.348-.9.911-1.286 1.938-1.154 3.086.114 1.143.672 2.212 1.673 3.205.551.551 1.121.919 1.706 1.102.478.144.933.215 1.385.215.109 0 .217-.005.324-.014a6.068 6.068 0 0 0 1.542-.327c.478-.167.891-.34 1.238-.505l.568-.242c.313-.132.74-.297 1.287-.505a6.543 6.543 0 0 1 2.273-.418c.515 0 1.042.068 1.593.213.717.189 1.407.623 2.088 1.3a6.871 6.871 0 0 1 1.318 1.803c.312.637.5 1.279.562 1.916.121 1.449-.423 2.77-1.61 3.957-1.145 1.143-2.323 1.711-3.543 1.711-.087 0-.179-.002-.27-.012-1.31-.072-2.628-.781-3.957-2.112-.244-.245-.233-.503.036-.777a.563.563 0 0 1 .377-.162h.037a.47.47 0 0 1 .34.148c.754.747 1.441 1.255 2.074 1.511.542.224 1.04.333 1.504.333.077 0 .15-.002.23-.014a3 3 0 0 0 1.394-.468 7.05 7.05 0 0 0 1.073-.864c.923-.925 1.344-1.923 1.275-3.002-.073-1.073-.629-2.127-1.652-3.157-.548-.551-1.121-.911-1.706-1.071a4.646 4.646 0 0 0-1.238-.178c-.148 0-.304.009-.447.029a5.71 5.71 0 0 0-1.504.365c-.454.186-.831.336-1.129.446l-.621.249c-.345.162-.797.34-1.346.536-.55.201-1.16.32-1.82.356-.087.005-.172.01-.258.01a6.714 6.714 0 0 1-1.808-.266c-.722-.205-1.414-.64-2.09-1.317-1.165-1.163-1.816-2.42-1.979-3.768-.165-1.489.35-2.833 1.54-4.032 1.137-1.14 2.341-1.72 3.588-1.72m0-.699c-1.437 0-2.816.65-4.103 1.935-1.344 1.351-1.931 2.899-1.741 4.608.176 1.51.909 2.914 2.18 4.185.754.757 1.558 1.261 2.39 1.501a7.406 7.406 0 0 0 1.999.288c.096 0 .194 0 .29-.007.745-.046 1.426-.176 2.028-.397a17.688 17.688 0 0 0 1.405-.562l.587-.237c.286-.114.667-.258 1.131-.445.397-.16.839-.27 1.313-.327a3.42 3.42 0 0 1 .375-.018c.333 0 .683.048 1.053.148.467.13.935.429 1.394.891.907.9 1.394 1.812 1.451 2.707.057.873-.293 1.679-1.069 2.46a6.612 6.612 0 0 1-.964.775 2.206 2.206 0 0 1-1.067.355 1.7 1.7 0 0 1-.164.01c-.365 0-.781-.096-1.233-.279-.535-.219-1.156-.674-1.844-1.358a1.165 1.165 0 0 0-.834-.354c-.375.014-.667.137-.904.363-.263.271-.407.56-.423.865-.012.233.05.581.386.914 1.444 1.448 2.929 2.23 4.407 2.316.101.007.208.01.315.01 1.407 0 2.764-.645 4.039-1.915 1.341-1.339 1.95-2.86 1.813-4.514a6.31 6.31 0 0 0-.633-2.171 7.725 7.725 0 0 0-1.45-1.991c-.777-.772-1.565-1.257-2.406-1.483a7.347 7.347 0 0 0-1.768-.235 7.358 7.358 0 0 0-2.527.461c-.541.205-.986.375-1.305.51l-.575.249c-.358.171-.749.324-1.199.488a5.274 5.274 0 0 1-1.366.283c-.082.01-.172.01-.263.01-.38 0-.766-.06-1.182-.183-.475-.145-.95-.455-1.414-.924-.882-.872-1.375-1.805-1.471-2.777-.109-.943.203-1.769.952-2.527.759-.751 1.513-1.135 2.239-1.135.055 0 .107.002.162.004.889.062 1.862.619 2.893 1.654.146.148.42.341.852.341.356 0 .665-.133.919-.38a1.29 1.29 0 0 0 .388-.911c0-.336-.121-.628-.343-.856-1.473-1.472-2.965-2.258-4.437-2.344-.091.003-.184-.001-.276-.001zm20.516 7.883c-.627 0-1.291-.145-1.977-.423-.807-.334-1.658-.948-2.531-1.832l-7.29-7.283c-1.368-1.366-2.124-2.765-2.243-4.146-.082-1.444.53-2.819 1.805-4.094 1.209-1.205 2.483-1.816 3.79-1.816l.302.013c1.387.081 2.789.828 4.171 2.222l7.297 7.285c.878.882 1.497 1.729 1.825 2.527.327.809.464 1.576.407 2.286a4.334 4.334 0 0 1-.614 1.965 8.195 8.195 0 0 1-1.182 1.517 7.48 7.48 0 0 1-1.498 1.154 4.499 4.499 0 0 1-1.968.621l-.294.004zm-8.497-17.818c-.857 0-1.709.418-2.529 1.244-.904.903-1.303 1.767-1.216 2.641.062.982.645 2.02 1.729 3.104l7.288 7.29c1.094 1.102 2.143 1.69 3.111 1.757h.029c1.013 0 1.825-.414 2.628-1.218.861-.858 1.279-1.764 1.24-2.685-.055-.92-.653-1.955-1.779-3.077l-7.293-7.293c-1.112-1.114-2.143-1.706-3.061-1.759l-.153-.355.006.351z"/><path d="M95.204 39.502c.092 0 .186.004.276.011 1.308.076 2.625.781 3.952 2.119l7.297 7.287c.853.858 1.433 1.668 1.75 2.414.304.748.435 1.46.382 2.123a4.183 4.183 0 0 1-.566 1.809 8.079 8.079 0 0 1-1.129 1.453 7.925 7.925 0 0 1-1.423 1.102 4.035 4.035 0 0 1-1.812.571c-.092.004-.181.009-.274.009-.583 0-1.197-.135-1.844-.397-.747-.306-1.561-.887-2.41-1.755l-7.29-7.287c-1.322-1.316-2.03-2.627-2.143-3.93-.075-1.334.491-2.61 1.702-3.817 1.136-1.138 2.316-1.712 3.532-1.712m8.544 17.828c.928 0 1.823-.443 2.705-1.325.93-.932 1.385-1.919 1.341-2.951-.059-1.015-.688-2.12-1.887-3.312l-7.285-7.292c-1.186-1.179-2.282-1.802-3.29-1.86a4.993 4.993 0 0 0-.173-.004c-.955 0-1.883.446-2.78 1.347-.969.973-1.412 1.946-1.313 2.925.07 1.061.685 2.171 1.834 3.317l7.287 7.292c1.163 1.165 2.28 1.787 3.338 1.855.075.004.151.008.223.008m-8.544-18.529c-1.402 0-2.762.646-4.036 1.918-1.353 1.35-1.995 2.817-1.903 4.354.128 1.494.918 2.963 2.349 4.389l7.285 7.282c.907.919 1.798 1.562 2.644 1.905.73.3 1.438.443 2.11.443.11 0 .217 0 .324-.009a4.813 4.813 0 0 0 2.125-.665 8.232 8.232 0 0 0 1.561-1.208 8.362 8.362 0 0 0 1.233-1.593 4.784 4.784 0 0 0 .665-2.113c.057-.768-.085-1.588-.435-2.439-.35-.846-.993-1.736-1.9-2.65l-7.297-7.284c-1.443-1.453-2.927-2.236-4.406-2.323-.099-.002-.206-.007-.319-.007zm8.544 17.829c-.052 0-.111-.004-.169-.009-.891-.057-1.861-.617-2.89-1.654L93.4 47.68c-1.025-1.023-1.571-1.992-1.629-2.872-.077-.786.286-1.558 1.115-2.384.761-.766 1.51-1.141 2.282-1.141l.135.002c.829.049 1.786.605 2.837 1.656l7.285 7.295c1.065 1.062 1.629 2.021 1.682 2.857.034.822-.34 1.613-1.135 2.412-.757.746-1.499 1.125-2.224 1.125zm11.887-8.233c-.217 0-.421-.091-.604-.273l-14.79-14.793c-.319-.321-.338-.744-.045-1.134.251-.343.543-.413.742-.413h.066l.283.067 17.33 6.625-11.763-11.762a.803.803 0 0 1-.229-.627.95.95 0 0 1 .295-.623.982.982 0 0 1 .621-.295h.007c.268 0 .466.08.617.228l14.79 14.792c.317.315.349.729.084 1.139-.315.323-.525.419-.747.419h-.08l-.287-.091-17.326-6.593 11.744 11.744c.184.183.277.389.277.61.002.235-.105.45-.315.667-.213.206-.437.313-.67.313z"/><path d="M107.593 25.518c.133 0 .242.042.334.129l14.785 14.79c.201.199.213.433.039.699l-.078.079c-.121.12-.242.181-.377.181a.469.469 0 0 1-.212-.054l-18.891-7.188L116.1 47.056c.242.245.235.501-.043.774-.145.146-.286.22-.423.22-.121 0-.24-.055-.354-.174l-14.785-14.788c-.198-.196-.203-.424-.014-.678.135-.181.29-.272.464-.272.071 0 .146.015.227.044l18.862 7.212-12.921-12.924a.438.438 0 0 1-.132-.357.62.62 0 0 1 .193-.399.618.618 0 0 1 .398-.19c.007-.006.012-.006.021-.006m0-.704h-.048a1.34 1.34 0 0 0-.868.393c-.242.246-.381.54-.401.854a1.12 1.12 0 0 0 .338.896l10.593 10.6-15.792-6.038a1.271 1.271 0 0 0-.474-.091c-.397 0-.758.194-1.025.549-.399.536-.37 1.149.08 1.598l14.785 14.79c.315.312.635.379.85.379.329 0 .638-.146.919-.43.278-.273.425-.587.425-.918 0-.22-.068-.537-.384-.85l-10.582-10.583 15.832 6.023c.104.058.283.101.456.101.227 0 .549-.067.871-.382l.002-.003.082-.081.051-.049.039-.058c.355-.543.304-1.151-.133-1.582l-14.783-14.784a1.177 1.177 0 0 0-.833-.334z"/></g></svg>