<?xml version="1.0" encoding="utf-8"?>
<!-- Generator: Adobe Illustrator 23.0.0, SVG Export Plug-In . SVG Version: 6.00 Build 0)  -->
<svg version="1.1" id="Layer_1" xmlns="http://www.w3.org/2000/svg" xmlns:xlink="http://www.w3.org/1999/xlink" x="0px" y="0px"
	 viewBox="0 0 193.9 195" style="enable-background:new 0 0 193.9 195;" xml:space="preserve">
<style type="text/css">
	.st0{clip-path:url(#SVGID_2_);stroke:#000000;stroke-width:1.51;}
	.st1{fill:#FFFFFF;}
</style>
<g>
	<defs>

			<rect id="SVGID_1_" x="27.2" y="29.6" transform="matrix(0.7071 -0.7071 0.7071 0.7071 -40.1526 96.9359)" width="139.5" height="134.7"/>
	</defs>
	<clipPath id="SVGID_2_">
		<use xlink:href="#SVGID_1_"  style="overflow:visible;"/>
	</clipPath>
	<path class="st0" d="M-15-12.3h231v243.5H-15V-12.3z"/>
</g>
<g>
	<path class="st1" d="M139.6,86.8c-0.2,0-0.4-0.1-0.6-0.3l-0.3-0.3c-0.2-0.2-0.2-0.4-0.2-0.6c0-0.2,0.1-0.5,0.3-0.6
		c0.2-0.2,0.4-0.3,0.6-0.3h0c0.3,0,0.5,0.1,0.6,0.2l0.3,0.3c0.4,0.4,0.4,0.9,0,1.3C140,86.7,139.8,86.8,139.6,86.8z"/>
	<path class="st1" d="M139.5,85.1c0.1,0,0.2,0,0.3,0.1l0.3,0.3c0.2,0.2,0.2,0.5,0,0.8c-0.1,0.1-0.3,0.2-0.4,0.2
		c-0.1,0-0.2-0.1-0.4-0.2L139,86c-0.1-0.1-0.1-0.2-0.1-0.4c0-0.2,0.1-0.3,0.2-0.4C139.1,85.1,139.3,85.1,139.5,85.1
		C139.4,85.1,139.4,85.1,139.5,85.1 M139.5,84.4L139.5,84.4L139.5,84.4c-0.4,0-0.7,0.2-0.9,0.4c-0.2,0.2-0.4,0.5-0.4,0.9
		c0,0.3,0.1,0.7,0.3,0.9l0.3,0.3c0.3,0.3,0.6,0.4,0.9,0.4c0.2,0,0.6-0.1,0.9-0.4c0.5-0.5,0.6-1.2,0-1.8l-0.3-0.3
		C140.1,84.5,139.8,84.4,139.5,84.4z M144.9,79.8c-0.6,0-1.3-0.1-2-0.4c-0.8-0.3-1.6-0.9-2.5-1.8l-7.3-7.3c-1.4-1.4-2.1-2.8-2.2-4.1
		c-0.1-1.4,0.5-2.8,1.8-4.1c1.2-1.2,2.5-1.8,3.8-1.8l0.3,0c1.4,0.1,2.8,0.8,4.2,2.2l7.3,7.3c0.9,0.9,1.5,1.7,1.8,2.5
		c0.3,0.8,0.5,1.6,0.4,2.3c0,0.7-0.3,1.4-0.6,2c-0.3,0.6-0.7,1.1-1.2,1.5c-0.5,0.4-1,0.8-1.5,1.2c-0.6,0.4-1.3,0.6-2,0.6
		C145.1,79.8,145,79.8,144.9,79.8z M136.5,62c-0.9,0-1.7,0.4-2.5,1.2c-0.9,0.9-1.3,1.8-1.2,2.6c0.1,1,0.6,2,1.7,3.1l7.3,7.3
		c1.1,1.1,2.1,1.7,3.1,1.8h0c1,0,1.8-0.4,2.6-1.2c0.9-0.9,1.3-1.8,1.2-2.7c-0.1-0.9-0.6-1.9-1.8-3.1l-7.3-7.3
		c-1.1-1.1-2.1-1.7-3.1-1.8l-0.2-0.4L136.5,62L136.5,62C136.5,62,136.5,62,136.5,62z"/>
	<path class="st1" d="M136.5,60.6c0.1,0,0.2,0,0.3,0c1.3,0.1,2.6,0.8,4,2.1L148,70c0.9,0.9,1.4,1.7,1.8,2.4c0.3,0.8,0.4,1.5,0.4,2.1
		c0,0.6-0.2,1.3-0.6,1.8c-0.3,0.5-0.7,1-1.1,1.5c-0.4,0.4-0.9,0.8-1.4,1.1c-0.5,0.3-1.2,0.5-1.8,0.6c-0.1,0-0.2,0-0.3,0
		c-0.6,0-1.2-0.1-1.8-0.4c-0.7-0.3-1.6-0.9-2.4-1.8l-7.3-7.3c-1.3-1.3-2-2.6-2.1-3.9c-0.1-1.3,0.5-2.6,1.7-3.8
		C134.1,61.1,135.3,60.6,136.5,60.6 M145,78.4c0.9,0,1.8-0.4,2.7-1.3c0.9-0.9,1.4-1.9,1.3-2.9c-0.1-1-0.7-2.1-1.9-3.3l-7.3-7.3
		c-1.2-1.2-2.3-1.8-3.3-1.9c-0.1,0-0.1,0-0.2,0c-1,0-1.9,0.4-2.8,1.3c-1,1-1.4,1.9-1.3,2.9c0.1,1.1,0.7,2.2,1.8,3.3l7.3,7.3
		c1.2,1.2,2.3,1.8,3.3,1.9C144.9,78.4,145,78.4,145,78.4 M136.5,59.9c-1.4,0-2.8,0.6-4,1.9c-1.4,1.4-2,2.8-1.9,4.4
		c0.1,1.5,0.9,3,2.4,4.4l7.3,7.3c0.9,0.9,1.8,1.6,2.6,1.9c0.7,0.3,1.4,0.4,2.1,0.4c0.9,0,1.7-0.2,2.5-0.7c0.6-0.3,1.1-0.7,1.6-1.2
		c0.5-0.5,0.9-1,1.2-1.6c0.4-0.6,0.6-1.4,0.7-2.1c0.1-0.8-0.1-1.6-0.4-2.4c-0.3-0.8-1-1.7-1.9-2.6l-7.3-7.3
		c-1.5-1.5-2.9-2.2-4.4-2.3C136.7,59.9,136.6,59.9,136.5,59.9z M145,77.7c-0.1,0-0.1,0-0.2,0c-0.9-0.1-1.9-0.6-2.9-1.7l-7.3-7.3
		c-1-1-1.6-2-1.6-2.9c-0.1-0.8,0.3-1.6,1.1-2.4c0.8-0.8,1.5-1.1,2.3-1.1l0.1,0c0.8,0,1.8,0.6,2.8,1.7l7.3,7.3c1.1,1.1,1.6,2,1.7,2.9
		c0,0.8-0.3,1.6-1.1,2.4C146.5,77.3,145.8,77.7,145,77.7L145,77.7z M92.8,172.8c-1.3-0.1-2.6-0.7-3.9-2.1c-0.2-0.2-0.2-0.4-0.2-0.6
		c0-0.2,0.1-0.5,0.3-0.7c0.2-0.2,0.4-0.3,0.6-0.3c0.2,0,0.4,0.1,0.6,0.2c0.7,0.7,1.3,1.1,1.8,1.3c0.4,0.2,0.9,0.3,1.2,0.3
		c0.6,0,1-0.2,1.3-0.4c0.3-0.2,0.6-0.5,0.9-0.8c0.8-0.8,1.2-1.6,1.1-2.4c-0.1-0.9-0.6-1.8-1.6-2.8l-32-32c-0.4-0.5-0.5-1-0.2-1.3
		l48.6-48.6c0.1-0.1,0.3-0.2,0.5-0.2c0.3,0,0.5,0.1,0.7,0.3l-0.1,0.4l0.2-0.2l7.7,7.7l-2.1-14c0-0.2,0-0.5,0.2-0.7
		c0.1-0.2,0.3-0.3,0.5-0.4c0.1,0,0.1,0,0.2,0c0.3,0,0.4,0,0.5,0.1c0.2,0.1,0.3,0.3,0.4,0.6l1.7,11.2l12.5,2.9c0.1,0,0.4,0.1,0.5,0.4
		c0.1,0.2,0.1,0.5,0.1,0.7c-0.1,0.2-0.2,0.3-0.2,0.4c-0.2,0.2-0.4,0.3-0.7,0.3l-11.9-2.7l0.5,3.6l4.9,4.8c0.2,0.2,0.3,0.4,0.3,0.6
		c0,0.2-0.1,0.4-0.3,0.6c-0.2,0.2-0.4,0.3-0.7,0.3c-0.2,0-0.4,0-0.6-0.3l-14.3-14.3l-47.2,47.2l31.5,31.5c1.2,1.2,1.9,2.5,2,3.8
		c0.1,1.3-0.5,2.6-1.7,3.8c-1.1,1.1-2.3,1.7-3.6,1.7C93.1,172.8,92.8,172.8,92.8,172.8z"/>
	<path class="st1" d="M119.4,76c0.1,0,0.2,0,0.3,0.1c0.1,0.1,0.2,0.2,0.2,0.3l1.7,11.4l12.7,3c0.1,0,0.2,0.1,0.3,0.2
		c0.1,0.1,0.1,0.3,0,0.4c0,0.1-0.1,0.2-0.2,0.2c-0.1,0.1-0.3,0.2-0.4,0.2c0,0-0.1,0-0.1,0L121.8,89l0.6,4.1l5,5
		c0.1,0.1,0.2,0.2,0.2,0.4c0,0.1-0.1,0.3-0.2,0.4c-0.1,0.1-0.3,0.2-0.4,0.2c-0.1,0-0.3-0.1-0.4-0.2l-14.5-14.5l-47.7,47.7l31.7,31.7
		c1.1,1.1,1.8,2.4,1.9,3.5c0.1,1.2-0.4,2.4-1.6,3.5c-1.1,1.1-2.2,1.6-3.3,1.6c-0.1,0-0.2,0-0.2,0c-1.2-0.1-2.4-0.7-3.6-2
		c-0.1-0.1-0.1-0.2-0.1-0.4c0-0.2,0.1-0.3,0.2-0.4c0.1-0.1,0.2-0.2,0.4-0.2c0.1,0,0.3,0,0.4,0.1c0.7,0.7,1.3,1.2,1.9,1.4
		c0.5,0.2,0.9,0.3,1.3,0.3c0.1,0,0.1,0,0.2,0c0.5,0,0.9-0.2,1.3-0.4c0.4-0.2,0.7-0.5,1-0.8c0.8-0.8,1.3-1.7,1.2-2.6
		c-0.1-1-0.6-2-1.7-3l-32-32c0,0,0,0,0,0c0,0,0,0,0,0c-0.2-0.2-0.3-0.6-0.1-0.8L111.7,83c0.1-0.1,0.2-0.1,0.3-0.1
		c0.2,0,0.3,0.1,0.5,0.2c0,0,0.1,0.1,0.1,0.1c0,0,0.1,0,0.1,0.1l8.5,8.5l-2.2-15.1c0-0.2,0-0.3,0.1-0.4c0.1-0.1,0.2-0.2,0.3-0.2
		C119.4,76,119.4,76,119.4,76 M119.5,75.3L119.5,75.3l-0.2,0c-0.4,0.1-0.6,0.3-0.8,0.5c-0.2,0.3-0.3,0.6-0.2,1l1.9,13l-7-7l-0.1-0.1
		l0,0c0,0-0.1-0.1-0.1-0.1c-0.3-0.2-0.6-0.4-0.9-0.4c-0.3,0-0.6,0.1-0.8,0.3l-48.6,48.6c-0.5,0.5-0.4,1.2,0.1,1.8l0,0l0,0l0,0l0,0
		l0,0l32,32c0.9,0.9,1.4,1.8,1.5,2.6c0,0.7-0.3,1.4-1,2.1c-0.3,0.3-0.6,0.5-0.9,0.7c-0.3,0.2-0.6,0.3-0.9,0.3c-0.1,0-0.1,0-0.2,0
		c-0.3,0-0.7-0.1-1.1-0.2c-0.5-0.2-1-0.6-1.7-1.2c-0.2-0.2-0.5-0.3-0.9-0.3c-0.7,0-1.3,0.6-1.3,1.3c0,0.3,0.1,0.6,0.3,0.9
		c1.4,1.4,2.8,2.1,4.1,2.2c0.1,0,0.2,0,0.3,0c1.3,0,2.6-0.6,3.8-1.8c1.3-1.3,1.9-2.7,1.8-4.1c-0.1-1.3-0.8-2.7-2.1-4l-31.2-31.2
		l46.7-46.7l14,14c0.3,0.3,0.6,0.4,0.8,0.4c0.3,0,0.6-0.1,0.9-0.4c0.2-0.2,0.4-0.5,0.4-0.8c0-0.3-0.1-0.7-0.4-0.9l-4.8-4.8l-0.4-2.8
		l11.2,2.6c0.4,0.1,0.9,0,1.2-0.4c0.1-0.1,0.2-0.2,0.3-0.4l0-0.1l0-0.1c0.1-0.3,0.1-0.6-0.1-0.9c-0.2-0.4-0.5-0.6-0.8-0.6l-12.2-2.8
		l-1.7-11c0-0.3-0.2-0.6-0.5-0.8C119.9,75.3,119.7,75.3,119.5,75.3z"/>
	<path class="st1" d="M104.9,160.9c-0.6,0-1.3-0.1-2-0.4c-0.8-0.3-1.7-0.9-2.5-1.8l-7.3-7.3c-1.4-1.4-2.1-2.8-2.2-4.1
		c-0.1-1.4,0.5-2.8,1.8-4.1c1.2-1.2,2.5-1.8,3.8-1.8l0.3,0c1.4,0.1,2.8,0.8,4.2,2.2l7.3,7.3c0.9,0.9,1.5,1.7,1.8,2.5
		c0.3,0.8,0.5,1.6,0.4,2.3c0,0.7-0.3,1.4-0.6,2c-0.3,0.6-0.7,1.1-1.2,1.5c-0.4,0.4-0.9,0.8-1.5,1.2c-0.6,0.4-1.3,0.6-2,0.6
		C105.1,160.9,105,160.9,104.9,160.9z M96.4,143.1c-0.9,0-1.7,0.4-2.5,1.2c-0.9,0.9-1.3,1.8-1.2,2.6c0.1,1,0.6,2,1.7,3.1l7.3,7.3
		c1.1,1.1,2.1,1.7,3.1,1.8h0c1,0,1.8-0.4,2.6-1.2c0.9-0.9,1.3-1.7,1.2-2.7c-0.1-0.9-0.7-2-1.8-3.1l-7.3-7.3
		c-1.1-1.1-2.1-1.7-3.1-1.8l-0.2-0.4C96.4,142.7,96.4,143.1,96.4,143.1z"/>
	<path class="st1" d="M96.4,141.6c0.1,0,0.2,0,0.3,0c1.3,0.1,2.6,0.8,4,2.1l7.3,7.3c0.9,0.9,1.4,1.7,1.7,2.4
		c0.3,0.8,0.4,1.5,0.4,2.1c0,0.6-0.2,1.3-0.6,1.8c-0.3,0.5-0.7,1-1.1,1.5c-0.4,0.4-0.9,0.8-1.4,1.1c-0.5,0.3-1.1,0.5-1.8,0.6
		c-0.1,0-0.2,0-0.3,0c-0.6,0-1.2-0.1-1.8-0.4c-0.7-0.3-1.6-0.9-2.4-1.8l-7.3-7.3c-1.3-1.3-2-2.6-2.1-3.9c-0.1-1.3,0.5-2.6,1.7-3.8
		C94,142.2,95.2,141.6,96.4,141.6 M105,159.4c0.9,0,1.8-0.4,2.7-1.3c0.9-0.9,1.4-1.9,1.3-3c-0.1-1-0.7-2.1-1.9-3.3l-7.3-7.3
		c-1.2-1.2-2.3-1.8-3.3-1.9c-0.1,0-0.1,0-0.2,0c-1,0-1.9,0.4-2.8,1.3c-1,1-1.4,1.9-1.3,2.9c0.1,1.1,0.7,2.2,1.8,3.3l7.3,7.3
		c1.2,1.2,2.3,1.8,3.3,1.9C104.8,159.4,104.9,159.4,105,159.4 M96.4,140.9c-1.4,0-2.8,0.6-4,1.9c-1.4,1.4-2,2.8-1.9,4.3
		c0.1,1.5,0.9,3,2.4,4.4l7.3,7.3c0.9,0.9,1.8,1.6,2.6,1.9c0.7,0.3,1.4,0.4,2.1,0.4c0.1,0,0.2,0,0.3,0c0.7,0,1.5-0.3,2.1-0.7
		c0.6-0.3,1.1-0.7,1.6-1.2c0.5-0.5,0.9-1,1.2-1.6c0.4-0.6,0.6-1.4,0.7-2.1c0.1-0.8-0.1-1.6-0.4-2.4c-0.3-0.8-1-1.7-1.9-2.6l-7.3-7.3
		c-1.5-1.5-2.9-2.2-4.4-2.3C96.7,140.9,96.5,140.9,96.4,140.9z M105,158.7c-0.1,0-0.1,0-0.2,0c-0.9-0.1-1.9-0.6-2.9-1.6l-7.3-7.3
		c-1-1-1.6-2-1.6-2.9c-0.1-0.8,0.3-1.6,1.1-2.4c0.8-0.8,1.5-1.1,2.3-1.1l0.1,0c0.8,0.1,1.8,0.6,2.8,1.7l7.3,7.3
		c1.1,1.1,1.6,2,1.7,2.9c0,0.8-0.3,1.6-1.1,2.4C106.4,158.4,105.7,158.7,105,158.7z M116.9,150.5c-0.2,0-0.4-0.1-0.6-0.3l-14.8-14.8
		c-0.2-0.2-0.3-0.4-0.2-0.6c0-0.2,0.1-0.4,0.3-0.6c0.2-0.2,0.4-0.3,0.6-0.3h0c0.3,0,0.4,0.1,0.6,0.2l6.8,6.8l4.7-4.7l-6.8-6.8
		c-0.1-0.1-0.2-0.3-0.2-0.6c0-0.2,0.1-0.5,0.3-0.6c0.2-0.2,0.4-0.3,0.6-0.3h0c0.3,0,0.5,0.1,0.6,0.2l14.8,14.8
		c0.2,0.2,0.3,0.4,0.3,0.6c0,0.2-0.1,0.5-0.3,0.7c-0.2,0.2-0.4,0.3-0.7,0.3c-0.2,0-0.4-0.1-0.6-0.3l-6.8-6.8l-4.7,4.7l6.8,6.8
		c0.4,0.4,0.4,0.9,0,1.3C117.4,150.4,117.2,150.5,116.9,150.5z"/>
	<path class="st1" d="M108.3,128.2c0.1,0,0.2,0,0.3,0.1l14.8,14.8c0.2,0.2,0.2,0.5,0,0.8c-0.1,0.1-0.3,0.2-0.4,0.2
		c-0.1,0-0.2-0.1-0.4-0.2l-7-7l-5.2,5.2l7,7c0.2,0.2,0.2,0.5,0,0.8c-0.1,0.1-0.3,0.2-0.4,0.2c-0.1,0-0.2-0.1-0.4-0.2l-14.8-14.8
		c-0.1-0.1-0.1-0.2-0.1-0.4c0-0.2,0.1-0.3,0.2-0.4c0.1-0.1,0.2-0.2,0.4-0.2h0c0.1,0,0.2,0,0.3,0.1l7,7l5.2-5.2l-7-7
		c-0.1-0.1-0.1-0.2-0.1-0.4c0-0.2,0.1-0.3,0.2-0.4C108,128.3,108.1,128.2,108.3,128.2C108.3,128.2,108.3,128.2,108.3,128.2
		 M108.3,127.5L108.3,127.5l-0.1,0c-0.3,0-0.6,0.1-0.8,0.4c-0.2,0.2-0.4,0.5-0.4,0.9c0,0.3,0.1,0.7,0.3,0.9l6.5,6.5l-4.2,4.2
		l-6.5-6.5c-0.2-0.2-0.5-0.3-0.8-0.3c-0.4,0-0.7,0.2-0.9,0.4c-0.2,0.2-0.4,0.5-0.4,0.9c0,0.3,0.1,0.6,0.3,0.9l14.8,14.8
		c0.3,0.3,0.6,0.4,0.9,0.4c0.3,0,0.6-0.1,0.9-0.4c0.5-0.5,0.6-1.3,0-1.8l-6.5-6.5l4.2-4.2l6.5,6.5c0.3,0.3,0.6,0.4,0.8,0.4
		c0.3,0,0.6-0.1,0.9-0.4c0.3-0.3,0.4-0.7,0.4-0.9c0-0.2-0.1-0.5-0.4-0.9l-14.8-14.8C108.9,127.6,108.6,127.5,108.3,127.5z
		 M128.9,138.5c-0.1,0-0.4-0.1-0.6-0.3l-14.8-14.8c-0.3-0.3-0.3-0.7,0-1.1c0.3-0.3,0.5-0.4,0.7-0.4h0.1l0.3,0.1l17.3,6.6l-11.8-11.8
		c-0.2-0.2-0.2-0.4-0.2-0.6c0-0.2,0.1-0.5,0.3-0.6c0.2-0.2,0.4-0.3,0.6-0.3h0c0.3,0,0.5,0.1,0.6,0.2l14.8,14.8
		c0.3,0.3,0.3,0.7,0.1,1.1c-0.4,0.4-0.6,0.4-0.7,0.4h-0.1l-0.3-0.1l-17.3-6.6l11.7,11.7c0.2,0.2,0.3,0.5,0.3,0.6
		c0,0.2-0.1,0.4-0.3,0.6C129.4,138.4,129.1,138.5,128.9,138.5L128.9,138.5z"/>
	<path class="st1" d="M120.9,115.6c0.1,0,0.2,0,0.3,0.1l14.8,14.8c0.2,0.2,0.2,0.4,0,0.7l-0.1,0.1c-0.1,0.1-0.2,0.2-0.4,0.2
		c-0.1,0-0.1,0-0.2-0.1l-18.9-7.2l12.9,12.9c0.2,0.2,0.2,0.5,0,0.8c-0.1,0.1-0.3,0.2-0.4,0.2c-0.1,0-0.3-0.1-0.3-0.2l-14.8-14.8
		c-0.2-0.2-0.2-0.4,0-0.7c0.1-0.2,0.3-0.3,0.5-0.3c0.1,0,0.1,0,0.2,0l18.9,7.2l-12.9-12.9c-0.1-0.1-0.1-0.2-0.1-0.3
		c0-0.2,0.1-0.3,0.2-0.4C120.5,115.7,120.7,115.6,120.9,115.6C120.8,115.6,120.9,115.6,120.9,115.6 M120.9,114.9L120.9,114.9
		L120.9,114.9c-0.4,0-0.7,0.2-0.9,0.4c-0.2,0.2-0.4,0.5-0.4,0.9c0,0.4,0.1,0.7,0.3,0.9l10.6,10.6l-15.8-6c-0.2-0.1-0.3-0.1-0.5-0.1
		c-0.4,0-0.8,0.2-1,0.6c-0.4,0.5-0.4,1.2,0.1,1.6l14.8,14.8c0.3,0.3,0.6,0.4,0.8,0.4c0.2,0,0.6-0.1,0.9-0.4c0.3-0.3,0.4-0.6,0.4-0.9
		c0-0.2,0-0.6-0.4-0.9l-10.6-10.6l15.8,6c0.1,0.1,0.3,0.1,0.5,0.1c0.2,0,0.6-0.1,0.9-0.4l0,0l0.1-0.1c0.4-0.5,0.3-1.1-0.1-1.6
		l-14.8-14.8C121.5,115,121.2,114.9,120.9,114.9z M141.3,124.1c-1.4-0.1-2.8-0.8-4.2-2.2c-0.2-0.2-0.3-0.5-0.3-0.6
		c0-0.2,0.1-0.4,0.3-0.6c0.2-0.2,0.4-0.3,0.6-0.3h0c0.3,0,0.5,0.1,0.6,0.3c0.7,0.7,1.4,1.2,2,1.4c0.5,0.2,1,0.3,1.4,0.3
		c0.7,0,1.1-0.2,1.4-0.4c0.4-0.3,0.7-0.5,1-0.8c0.9-0.9,1.2-1.7,1.2-2.7c-0.1-1-0.6-2-1.6-2.9c-0.5-0.5-1-0.8-1.6-1
		c-0.4-0.1-0.8-0.2-1.1-0.2c-0.1,0-0.3,0-0.4,0c-0.5,0.1-1,0.2-1.4,0.3l-1.8,0.7c-0.3,0.2-0.8,0.3-1.4,0.5c-0.6,0.2-1.3,0.3-1.9,0.4
		l-0.3,0c-0.6,0-1.3-0.1-1.9-0.3c-0.8-0.2-1.5-0.7-2.2-1.4c-1.2-1.2-1.9-2.6-2.1-4c-0.2-1.6,0.4-3.1,1.6-4.3
		c1.2-1.2,2.5-1.8,3.9-1.8l0.3,0c1.4,0.1,2.8,0.8,4.2,2.2c0.2,0.2,0.2,0.4,0.2,0.6c0,0.2-0.1,0.5-0.3,0.7c-0.2,0.2-0.4,0.3-0.6,0.3
		c-0.2,0-0.5-0.1-0.6-0.2c-1.1-1.1-2.1-1.7-3.1-1.8h0c-1,0-1.8,0.4-2.7,1.2c-0.8,0.8-1.2,1.8-1.1,2.8c0.1,1.1,0.6,2.1,1.6,3
		c0.5,0.5,1,0.8,1.6,1c0.4,0.1,0.9,0.2,1.3,0.2l0.3,0c0.5,0,1-0.1,1.5-0.3c0.5-0.2,0.9-0.3,1.2-0.5l0.6-0.2c0.3-0.1,0.8-0.3,1.3-0.5
		c0.8-0.3,1.6-0.4,2.4-0.4c0.5,0,1.1,0.1,1.7,0.2c0.8,0.2,1.5,0.7,2.2,1.4c0.6,0.6,1.1,1.2,1.4,1.9c0.3,0.7,0.5,1.4,0.6,2
		c0.1,1.6-0.5,3-1.7,4.2c-1.2,1.2-2.5,1.8-3.8,1.8L141.3,124.1L141.3,124.1z"/>
	<path class="st1" d="M133.2,104.8c0.1,0,0.2,0,0.2,0c1.3,0.1,2.6,0.8,4,2.1c0.1,0.1,0.1,0.2,0.1,0.4c0,0.2-0.1,0.3-0.2,0.4
		c-0.1,0.1-0.3,0.2-0.4,0.2h0c-0.1,0-0.3,0-0.4-0.1c-1.2-1.2-2.3-1.8-3.3-1.9c-0.1,0-0.1,0-0.2,0c-0.9,0-1.8,0.5-2.7,1.3
		c-0.9,0.9-1.3,1.9-1.2,3.1c0.1,1.1,0.7,2.2,1.7,3.2c0.6,0.6,1.1,0.9,1.7,1.1c0.5,0.1,0.9,0.2,1.4,0.2c0.1,0,0.2,0,0.3,0
		c0.5,0,1-0.2,1.5-0.3c0.5-0.2,0.9-0.3,1.2-0.5l0.6-0.2c0.3-0.1,0.7-0.3,1.3-0.5c0.7-0.3,1.5-0.4,2.3-0.4c0.5,0,1,0.1,1.6,0.2
		c0.7,0.2,1.4,0.6,2.1,1.3c0.5,0.5,1,1.1,1.3,1.8c0.3,0.6,0.5,1.3,0.6,1.9c0.1,1.4-0.4,2.8-1.6,4c-1.1,1.1-2.3,1.7-3.5,1.7
		c-0.1,0-0.2,0-0.3,0c-1.3-0.1-2.6-0.8-4-2.1c-0.2-0.2-0.2-0.5,0-0.8c0.1-0.1,0.2-0.2,0.4-0.2h0c0.1,0,0.3,0.1,0.3,0.1
		c0.8,0.7,1.4,1.3,2.1,1.5c0.5,0.2,1,0.3,1.5,0.3c0.1,0,0.2,0,0.2,0c0.5,0,1-0.2,1.4-0.5c0.4-0.3,0.7-0.5,1.1-0.9
		c0.9-0.9,1.3-1.9,1.3-3c-0.1-1.1-0.6-2.1-1.7-3.2c-0.5-0.6-1.1-0.9-1.7-1.1c-0.4-0.1-0.8-0.2-1.2-0.2c-0.1,0-0.3,0-0.4,0
		c-0.5,0.1-1,0.2-1.5,0.4c-0.5,0.2-0.8,0.3-1.1,0.4l-0.6,0.2c-0.3,0.2-0.8,0.3-1.3,0.5c-0.5,0.2-1.2,0.3-1.8,0.4c-0.1,0-0.2,0-0.3,0
		c-0.6,0-1.2-0.1-1.8-0.3c-0.7-0.2-1.4-0.6-2.1-1.3c-1.2-1.2-1.8-2.4-2-3.8c-0.2-1.5,0.4-2.8,1.5-4
		C130.8,105.4,132,104.8,133.2,104.8 M133.2,104.1c-1.4,0-2.8,0.7-4.1,1.9c-1.3,1.4-1.9,2.9-1.7,4.6c0.2,1.5,0.9,2.9,2.2,4.2
		c0.8,0.8,1.6,1.3,2.4,1.5c0.7,0.2,1.3,0.3,2,0.3c0.1,0,0.2,0,0.3,0c0.7,0,1.4-0.2,2-0.4c0.5-0.2,0.9-0.4,1.4-0.6l0.6-0.2
		c0.3-0.1,0.7-0.3,1.1-0.4c0.4-0.2,0.8-0.3,1.3-0.3c0.1,0,0.2,0,0.4,0c0.3,0,0.7,0,1.1,0.1c0.5,0.1,0.9,0.4,1.4,0.9
		c0.9,0.9,1.4,1.8,1.5,2.7c0.1,0.9-0.3,1.7-1.1,2.5c-0.3,0.3-0.6,0.5-1,0.8c-0.3,0.2-0.7,0.3-1.1,0.4c-0.1,0-0.1,0-0.2,0
		c-0.4,0-0.8-0.1-1.2-0.3c-0.5-0.2-1.2-0.7-1.8-1.4c-0.2-0.2-0.5-0.4-0.8-0.4c-0.4,0-0.7,0.1-0.9,0.4c-0.3,0.3-0.4,0.6-0.4,0.9
		c0,0.2,0.1,0.6,0.4,0.9c1.4,1.4,2.9,2.2,4.4,2.3c0.1,0,0.2,0,0.3,0c1.4,0,2.8-0.6,4-1.9c1.3-1.3,1.9-2.9,1.8-4.5
		c-0.1-0.8-0.3-1.5-0.6-2.2c-0.4-0.7-0.9-1.4-1.4-2c-0.8-0.8-1.6-1.3-2.4-1.5c-0.6-0.1-1.2-0.2-1.8-0.2c-0.9,0-1.7,0.2-2.5,0.5
		c-0.5,0.2-1,0.4-1.3,0.5l-0.6,0.2c-0.4,0.2-0.7,0.3-1.2,0.5c-0.4,0.2-0.9,0.2-1.4,0.3c-0.1,0-0.2,0-0.3,0c-0.4,0-0.8-0.1-1.2-0.2
		c-0.5-0.1-0.9-0.5-1.4-0.9c-0.9-0.9-1.4-1.8-1.5-2.8c-0.1-0.9,0.2-1.8,1-2.5c0.8-0.8,1.5-1.1,2.2-1.1c0.1,0,0.1,0,0.2,0
		c0.9,0.1,1.9,0.6,2.9,1.7c0.1,0.1,0.4,0.3,0.9,0.3c0.4,0,0.7-0.1,0.9-0.4c0.2-0.2,0.4-0.6,0.4-0.9c0-0.3-0.1-0.6-0.3-0.9
		c-1.5-1.5-3-2.3-4.4-2.3C133.4,104.2,133.3,104.1,133.2,104.1L133.2,104.1z M153.7,112c-0.6,0-1.3-0.1-2-0.4
		c-0.8-0.3-1.7-0.9-2.5-1.8l-7.3-7.3c-1.4-1.4-2.1-2.8-2.2-4.1c-0.1-1.4,0.5-2.8,1.8-4.1c1.2-1.2,2.5-1.8,3.8-1.8l0.3,0
		c1.4,0.1,2.8,0.8,4.2,2.2l7.3,7.3c0.9,0.9,1.5,1.7,1.8,2.5c0.3,0.8,0.5,1.6,0.4,2.3c0,0.7-0.3,1.4-0.6,2c-0.3,0.6-0.7,1.1-1.2,1.5
		c-0.4,0.4-1,0.8-1.5,1.2c-0.6,0.4-1.3,0.6-2,0.6C154,112,153.7,112,153.7,112z M145.2,94.2c-0.9,0-1.7,0.4-2.5,1.2
		c-0.9,0.9-1.3,1.8-1.2,2.6c0.1,1,0.6,2,1.7,3.1l7.3,7.3c1.1,1.1,2.1,1.7,3.1,1.8h0c1,0,1.8-0.4,2.6-1.2c0.9-0.9,1.3-1.8,1.2-2.7
		c-0.1-0.9-0.7-2-1.8-3.1l-7.3-7.3c-1.1-1.1-2.1-1.7-3.1-1.8l-0.2-0.4C145.2,93.9,145.2,94.2,145.2,94.2z"/>
	<path class="st1" d="M145.3,92.8c0.1,0,0.2,0,0.3,0c1.3,0.1,2.6,0.8,4,2.1l7.3,7.3c0.9,0.9,1.4,1.7,1.8,2.4
		c0.3,0.7,0.4,1.5,0.4,2.1c0,0.6-0.2,1.3-0.6,1.8c-0.3,0.5-0.7,1-1.1,1.5c-0.4,0.4-0.9,0.8-1.4,1.1c-0.6,0.3-1.2,0.5-1.8,0.6
		c-0.1,0-0.2,0-0.3,0c-0.6,0-1.2-0.1-1.8-0.4c-0.7-0.3-1.6-0.9-2.4-1.8l-7.3-7.3c-1.3-1.3-2-2.6-2.1-3.9c-0.1-1.3,0.5-2.6,1.7-3.8
		C142.9,93.4,144.1,92.8,145.3,92.8 M153.8,110.6c0.9,0,1.8-0.4,2.7-1.3c0.9-0.9,1.4-1.9,1.3-3c-0.1-1-0.7-2.1-1.9-3.3l-7.3-7.3
		c-1.2-1.2-2.3-1.8-3.3-1.9c-0.1,0-0.1,0-0.2,0c-1,0-1.9,0.4-2.8,1.3c-1,1-1.4,1.9-1.3,2.9c0.1,1.1,0.7,2.2,1.8,3.3l7.3,7.3
		c1.2,1.2,2.3,1.8,3.3,1.9C153.7,110.6,153.7,110.6,153.8,110.6 M145.3,92.1c-1.4,0-2.8,0.6-4,1.9c-1.4,1.3-2,2.8-1.9,4.4
		c0.1,1.5,0.9,3,2.3,4.4l7.3,7.3c0.9,0.9,1.8,1.6,2.6,1.9c0.7,0.3,1.4,0.4,2.1,0.4c0.1,0,0.2,0,0.3,0c0.8-0.1,1.5-0.3,2.1-0.7
		c0.6-0.3,1.1-0.7,1.6-1.2c0.5-0.5,0.9-1,1.2-1.6c0.4-0.6,0.6-1.4,0.7-2.1c0.1-0.8-0.1-1.6-0.4-2.4c-0.4-0.8-1-1.7-1.9-2.7l-7.3-7.3
		c-1.4-1.5-2.9-2.2-4.4-2.3C145.5,92.1,145.4,92.1,145.3,92.1z M153.8,109.9c-0.1,0-0.1,0-0.2,0c-0.9-0.1-1.9-0.6-2.9-1.7l-7.3-7.3
		c-1-1-1.6-2-1.6-2.9c-0.1-0.8,0.3-1.6,1.1-2.4c0.8-0.8,1.5-1.1,2.3-1.1l0.1,0c0.8,0,1.8,0.6,2.8,1.7l7.3,7.3c1.1,1.1,1.6,2,1.7,2.9
		c0,0.8-0.3,1.6-1.1,2.4C155.3,109.5,154.5,109.9,153.8,109.9L153.8,109.9z M165.7,101.7c-0.2,0-0.4-0.1-0.6-0.3l-14.8-14.8
		c-0.3-0.3-0.3-0.7,0-1.1c0.3-0.3,0.5-0.4,0.7-0.4h0.1l0.3,0.1l17.3,6.6L156.9,80c-0.2-0.2-0.2-0.4-0.2-0.6c0-0.2,0.1-0.5,0.3-0.6
		c0.2-0.2,0.4-0.3,0.6-0.3h0c0.3,0,0.5,0.1,0.6,0.2L173,93.5c0.3,0.3,0.4,0.7,0.1,1.1c-0.3,0.3-0.5,0.4-0.7,0.4h-0.1l-0.3-0.1
		l-17.3-6.6l11.7,11.7c0.2,0.2,0.3,0.4,0.3,0.6c0,0.2-0.1,0.4-0.3,0.7C166.2,101.6,165.9,101.7,165.7,101.7z"/>
	<path class="st1" d="M157.7,78.8c0.1,0,0.2,0,0.3,0.1l14.8,14.8c0.2,0.2,0.2,0.4,0,0.7l-0.1,0.1c-0.1,0.1-0.2,0.2-0.4,0.2
		c-0.1,0-0.1,0-0.2-0.1l-18.9-7.2l12.9,12.9c0.2,0.2,0.2,0.5,0,0.8c-0.1,0.1-0.3,0.2-0.4,0.2c-0.1,0-0.2-0.1-0.4-0.2l-14.8-14.8
		c-0.2-0.2-0.2-0.4,0-0.7c0.1-0.2,0.3-0.3,0.5-0.3c0.1,0,0.1,0,0.2,0l18.9,7.2l-12.9-12.9c-0.1-0.1-0.1-0.2-0.1-0.4
		c0-0.2,0.1-0.3,0.2-0.4C157.3,78.9,157.5,78.8,157.7,78.8C157.6,78.8,157.7,78.8,157.7,78.8 M157.7,78.1L157.7,78.1
		c-0.4,0-0.7,0.2-0.9,0.4c-0.2,0.2-0.4,0.5-0.4,0.9c0,0.3,0.1,0.7,0.3,0.9l10.6,10.6l-15.8-6c-0.2-0.1-0.3-0.1-0.5-0.1
		c-0.4,0-0.8,0.2-1,0.5c-0.4,0.5-0.4,1.1,0.1,1.6l14.8,14.8c0.3,0.3,0.6,0.4,0.8,0.4c0.3,0,0.6-0.1,0.9-0.4c0.3-0.3,0.4-0.6,0.4-0.9
		c0-0.2-0.1-0.5-0.4-0.8l-10.6-10.6l15.8,6c0.1,0.1,0.3,0.1,0.5,0.1c0.2,0,0.5-0.1,0.9-0.4l0,0l0.1-0.1l0.1,0l0-0.1
		c0.4-0.5,0.3-1.2-0.1-1.6l-14.8-14.8C158.3,78.2,158,78.1,157.7,78.1z"/>
</g>
</svg>
