<svg xmlns="http://www.w3.org/2000/svg" xmlns:xlink="http://www.w3.org/1999/xlink" width="193.875" height="194.991" viewBox="-50.07 -53.277 193.875 194.991"><defs><path id="a" d="M45.183 140.601L-50.07 45.345l98.625-98.622 95.25 95.25z"/></defs><clipPath id="b"><use xlink:href="#a" overflow="visible"/></clipPath><path clip-path="url(#b)" stroke="#000" stroke-width="1.51" d="M-65.062-65.562h231v243.5h-231z"/><g fill="#FFF"><path d="M89.521 33.533c-.219 0-.423-.094-.607-.279l-.274-.277a.788.788 0 0 1-.229-.625.919.919 0 0 1 .293-.625.914.914 0 0 1 .633-.292h.007c.271 0 .468.082.619.239l.265.261c.384.393.368.871-.039 1.277-.211.214-.438.321-.668.321z"/><path d="M89.384 31.786c.128 0 .235.042.317.129l.281.273c.239.245.226.508-.048.779-.145.145-.279.216-.419.216-.123 0-.242-.06-.358-.174l-.27-.279a.435.435 0 0 1-.133-.355.583.583 0 0 1 .189-.395.6.6 0 0 1 .4-.192c.018-.002.029-.002.041-.002m0-.7h-.019l-.055.002c-.315.011-.617.15-.861.4a1.274 1.274 0 0 0-.391.853c-.021.337.099.658.343.892l.26.269c.322.316.643.384.859.384.227 0 .568-.072.921-.42.536-.546.555-1.236.048-1.762l-.293-.287a1.107 1.107 0 0 0-.812-.331zm5.482-4.54c-.619 0-1.279-.143-1.965-.424-.79-.326-1.643-.94-2.528-1.828l-7.29-7.289c-1.368-1.368-2.125-2.765-2.243-4.147-.083-1.441.529-2.814 1.805-4.094 1.206-1.205 2.48-1.815 3.794-1.815l.3.011c1.38.081 2.78.828 4.169 2.215l7.295 7.292c.881.879 1.498 1.73 1.824 2.526.326.804.465 1.572.406 2.286a4.331 4.331 0 0 1-.615 1.965 8.136 8.136 0 0 1-1.18 1.516 7.837 7.837 0 0 1-1.501 1.156 4.416 4.416 0 0 1-1.962.617 2.774 2.774 0 0 1-.309.013zM86.384 8.729c-.85 0-1.702.419-2.531 1.245-.9.902-1.298 1.769-1.215 2.646.066.978.648 2.019 1.729 3.103l7.295 7.289c1.094 1.098 2.141 1.687 3.113 1.757h.028c1.007 0 1.822-.411 2.622-1.216.875-.873 1.279-1.75 1.238-2.686-.054-.913-.647-1.949-1.777-3.081l-7.292-7.294c-1.108-1.114-2.136-1.706-3.059-1.759l-.153-.355v.353h.002v-.002z"/><path d="M86.439 7.303c.087 0 .179.002.27.009 1.3.077 2.621.784 3.95 2.115l7.294 7.292c.855.859 1.436 1.663 1.75 2.411.307.754.436 1.46.382 2.122a4.045 4.045 0 0 1-.565 1.809 8.044 8.044 0 0 1-1.129 1.453 7.603 7.603 0 0 1-1.424 1.103 4.054 4.054 0 0 1-1.81.569 3.946 3.946 0 0 1-.29.012c-.578 0-1.188-.133-1.832-.396-.745-.309-1.554-.891-2.412-1.75l-7.285-7.289c-1.321-1.319-2.031-2.629-2.144-3.931-.075-1.331.496-2.607 1.704-3.815 1.137-1.147 2.321-1.714 3.541-1.714m8.535 17.82c.928 0 1.823-.439 2.706-1.324.934-.935 1.385-1.917 1.338-2.949-.058-1.015-.688-2.118-1.883-3.315l-7.294-7.292c-1.177-1.181-2.278-1.801-3.283-1.862-.06-.002-.116-.004-.174-.004-.952 0-1.878.449-2.78 1.347-.966.973-1.409 1.948-1.313 2.926.078 1.062.688 2.167 1.835 3.315l7.294 7.29c1.163 1.165 2.275 1.783 3.338 1.857.069.009.143.011.216.011M86.439 6.598c-1.414 0-2.773.646-4.046 1.919-1.354 1.352-1.996 2.816-1.909 4.351.132 1.487.923 2.957 2.353 4.386l7.285 7.289c.923.922 1.808 1.561 2.642 1.901.73.297 1.435.449 2.099.449a4.736 4.736 0 0 0 2.456-.679 7.984 7.984 0 0 0 1.562-1.21 8.115 8.115 0 0 0 1.234-1.589 4.682 4.682 0 0 0 .664-2.117c.058-.765-.084-1.586-.434-2.438-.346-.842-.992-1.731-1.9-2.646L91.15 8.923c-1.451-1.451-2.931-2.232-4.404-2.319-.092-.001-.2-.006-.307-.006zm8.535 17.826c-.05 0-.109-.002-.167-.007-.889-.063-1.861-.62-2.89-1.654l-7.295-7.292c-1.021-1.02-1.564-1.985-1.631-2.871-.07-.781.293-1.554 1.119-2.38.772-.768 1.513-1.142 2.283-1.142l.132.002c.834.049 1.791.609 2.831 1.656l7.297 7.292c1.062 1.069 1.626 2.03 1.674 2.855.039.826-.336 1.617-1.131 2.415-.765.758-1.487 1.126-2.222 1.126zm-52.247 95.081c-1.254-.051-2.559-.744-3.875-2.062a.89.89 0 0 1-.24-.615c0-.247.098-.477.281-.658a.873.873 0 0 1 .633-.261.87.87 0 0 1 .615.239c.656.662 1.256 1.108 1.791 1.318.441.178.854.273 1.215.273.601-.041.962-.162 1.286-.379a5.85 5.85 0 0 0 .93-.764c.774-.766 1.154-1.576 1.128-2.388-.073-.856-.617-1.802-1.606-2.789L12.923 79.45c-.448-.454-.494-1.017-.165-1.339L61.37 29.49a.785.785 0 0 1 .546-.217c.258 0 .521.114.722.315l-.062.431.244-.248 7.717 7.715-2.058-14.036a.93.93 0 0 1 .171-.689 1.04 1.04 0 0 1 .519-.375c.071-.004.138-.007.189-.007.252 0 .382.045.508.117.226.136.35.345.365.609l1.688 11.166 12.491 2.906c.146.032.368.13.521.414.111.241.128.459.063.669-.128.236-.178.328-.244.391a.918.918 0 0 1-.674.29l-11.891-2.748.534 3.571 4.894 4.796a.814.814 0 0 1 .251.641.962.962 0 0 1-.261.601c-.219.215-.442.324-.676.324-.15 0-.377-.048-.605-.276L62.04 31.565 14.833 78.777l31.456 31.458c1.22 1.222 1.898 2.525 1.954 3.767.104 1.313-.457 2.599-1.668 3.81-1.131 1.127-2.335 1.703-3.575 1.703l-.273-.01z"/><path d="M69.38 22.711c.107 0 .208.029.302.085a.388.388 0 0 1 .201.329l1.718 11.433 12.723 2.959c.128.027.222.107.293.241a.562.562 0 0 1 .036.397 1.56 1.56 0 0 1-.153.25.579.579 0 0 1-.427.185.61.61 0 0 1-.117-.01L71.76 35.736l.605 4.082 4.991 4.994a.488.488 0 0 1 .151.377.588.588 0 0 1-.165.372c-.144.145-.285.215-.423.215a.497.497 0 0 1-.354-.171L62.031 31.072l-47.7 47.705 31.705 31.708c1.146 1.143 1.805 2.363 1.853 3.537.096 1.22-.425 2.402-1.565 3.541-1.069 1.068-2.177 1.605-3.329 1.605-.082 0-.162-.003-.244-.007-1.174-.052-2.39-.714-3.648-1.964a.508.508 0 0 1-.142-.364c0-.153.06-.293.18-.414a.53.53 0 0 1 .384-.151.5.5 0 0 1 .368.139c.69.695 1.323 1.156 1.898 1.395.486.198.934.299 1.348.299.076 0 .148-.002.224-.01.466-.033.891-.18 1.254-.427.368-.244.699-.513.989-.812.848-.844 1.259-1.729 1.227-2.649-.082-.964-.644-1.974-1.704-3.029l-31.956-31.97c-.009-.009-.011-.024-.021-.034-.023-.014-.037-.018-.05-.032-.238-.244-.283-.591-.098-.776L61.62 29.739a.412.412 0 0 1 .297-.114c.16 0 .336.074.475.212.042.038.06.083.092.125.029.016.062.03.089.056l8.467 8.463-2.212-15.082a.574.574 0 0 1 .107-.431.693.693 0 0 1 .341-.248c.036-.004.07-.009.104-.009m0-.702h-.057l-.162.019c-.365.107-.604.273-.786.518-.21.282-.292.61-.242.954l1.901 12.993-6.968-6.966-.078-.08-.019-.009c-.036-.04-.068-.08-.114-.12a1.366 1.366 0 0 0-.94-.391c-.302 0-.581.111-.789.313L12.508 77.868c-.466.464-.423 1.238.093 1.764l.005.004.021.046.043.018.002.005.012.007L44.64 111.67c.925.927 1.43 1.806 1.503 2.591.018.688-.315 1.389-1.023 2.096a6.013 6.013 0 0 1-.882.729c-.27.178-.578.283-.921.307-.064.006-.117.01-.169.01-.315 0-.681-.082-1.083-.248-.486-.195-1.044-.613-1.667-1.237a1.217 1.217 0 0 0-.866-.34 1.272 1.272 0 0 0-1.266 1.266c0 .334.116.627.338.854 1.389 1.387 2.773 2.111 4.124 2.177.082.005.178.009.274.009 1.339 0 2.625-.609 3.824-1.807 1.286-1.281 1.883-2.662 1.769-4.094-.051-1.311-.768-2.689-2.056-3.977L15.323 78.777l46.71-46.717 14.041 14.034c.306.315.635.384.85.384.329 0 .633-.144.916-.422.233-.24.352-.523.372-.829a1.201 1.201 0 0 0-.36-.924l-4.823-4.823-.42-2.831 11.188 2.61A1.284 1.284 0 0 0 85 38.895c.092-.096.156-.206.268-.4l.037-.063.021-.07a1.236 1.236 0 0 0-.069-.898c-.234-.443-.55-.585-.783-.634l-12.24-2.85-1.654-10.962c-.019-.317-.211-.631-.537-.828a1.312 1.312 0 0 0-.663-.181z"/><path d="M54.81 107.593c-.628 0-1.291-.142-1.972-.42-.802-.334-1.651-.945-2.531-1.83l-7.287-7.285c-1.373-1.375-2.129-2.771-2.244-4.147-.082-1.438.523-2.812 1.805-4.092 1.201-1.209 2.474-1.812 3.781-1.812l.315.009c1.378.08 2.778.827 4.172 2.214l7.292 7.29c.889.89 1.508 1.738 1.823 2.531.324.792.464 1.559.411 2.277a4.34 4.34 0 0 1-.619 1.972 7.959 7.959 0 0 1-1.182 1.515 7.7 7.7 0 0 1-1.491 1.153 4.502 4.502 0 0 1-1.965.617c-.1.004-.205.008-.308.008zm-8.501-17.814c-.861 0-1.688.407-2.524 1.24-.889.889-1.295 1.78-1.21 2.648.059.973.642 2.01 1.727 3.093l7.292 7.292c1.1 1.1 2.147 1.695 3.114 1.756h.032c1.012 0 1.82-.416 2.622-1.217.868-.867 1.275-1.749 1.241-2.684-.056-.916-.654-1.951-1.785-3.077l-7.289-7.288c-1.12-1.117-2.147-1.706-3.068-1.759l-.155-.354.003.35z"/><path d="M46.36 88.346c.094 0 .189.005.286.012 1.307.078 2.618.783 3.955 2.115l7.29 7.288c.854.854 1.438 1.668 1.747 2.412.309.752.435 1.458.387 2.12a4.066 4.066 0 0 1-.569 1.806 7.696 7.696 0 0 1-1.129 1.453 7.858 7.858 0 0 1-1.418 1.104c-.544.33-1.147.52-1.81.566-.094.006-.189.01-.283.01-.583 0-1.199-.133-1.839-.394-.747-.312-1.559-.892-2.415-1.75l-7.285-7.286c-1.32-1.316-2.036-2.628-2.143-3.935-.078-1.332.491-2.603 1.7-3.815 1.129-1.136 2.308-1.706 3.526-1.706m8.562 17.822c.916 0 1.812-.442 2.691-1.321.934-.937 1.382-1.918 1.343-2.951-.06-1.015-.689-2.119-1.89-3.313l-7.289-7.29c-1.184-1.179-2.275-1.801-3.288-1.859-.06-.005-.126-.005-.181-.005-.953 0-1.871.443-2.776 1.343-.971.969-1.409 1.947-1.311 2.93.071 1.06.683 2.163 1.834 3.312l7.292 7.292c1.163 1.159 2.277 1.783 3.34 1.854.08.004.157.008.235.008M46.36 87.645c-1.405 0-2.762.643-4.032 1.919-1.353 1.351-1.99 2.814-1.903 4.348.128 1.485.916 2.956 2.351 4.386l7.286 7.286c.913.92 1.802 1.558 2.643 1.905.729.297 1.433.445 2.106.445.112 0 .224-.008.341-.017a4.7 4.7 0 0 0 2.113-.663 8.26 8.26 0 0 0 1.558-1.206 8.379 8.379 0 0 0 1.236-1.595 4.755 4.755 0 0 0 .664-2.115c.053-.775-.089-1.6-.44-2.439-.338-.83-.978-1.723-1.898-2.647l-7.29-7.285c-1.457-1.453-2.94-2.229-4.409-2.321-.103.004-.217-.001-.326-.001zm8.562 17.825c-.053 0-.116-.006-.176-.011-.889-.056-1.862-.614-2.897-1.649l-7.29-7.292c-1.026-1.023-1.572-1.987-1.631-2.864-.078-.791.286-1.562 1.112-2.388.763-.763 1.51-1.136 2.275-1.136l.139.005c.83.051 1.789.607 2.838 1.656l7.29 7.288c1.066 1.066 1.631 2.027 1.679 2.859.036.824-.341 1.617-1.133 2.414-.753.737-1.491 1.118-2.206 1.118zm11.927-8.285c-.224 0-.427-.091-.611-.273L51.456 82.128a.806.806 0 0 1-.235-.633c.009-.231.109-.441.295-.629a.943.943 0 0 1 .628-.287h.01c.258 0 .449.075.609.217l6.794 6.801 4.716-4.718-6.783-6.787c-.116-.107-.246-.309-.23-.628a.945.945 0 0 1 .29-.631.96.96 0 0 1 .635-.285h.012c.27 0 .455.077.607.226l14.786 14.79c.226.229.276.45.276.604 0 .235-.112.454-.32.667-.217.215-.438.32-.674.32-.217 0-.42-.092-.604-.272l-6.767-6.773-4.722 4.72 6.773 6.767c.377.38.361.866-.043 1.271-.205.213-.429.317-.66.317z"/><path d="M58.24 74.9c.13 0 .232.044.312.126l14.785 14.79c.244.241.235.502-.039.771-.148.146-.287.218-.429.218-.124 0-.242-.058-.353-.172l-7.013-7.018-5.216 5.215 7.016 7.019c.244.242.233.505-.039.77-.146.146-.283.22-.418.22-.128 0-.244-.055-.358-.174L51.703 81.883a.432.432 0 0 1-.131-.355.602.602 0 0 1 .192-.402.576.576 0 0 1 .397-.188h.036c.133 0 .24.043.327.126l7.034 7.038 5.211-5.211-7.034-7.038a.434.434 0 0 1-.126-.356.569.569 0 0 1 .189-.4.57.57 0 0 1 .396-.185c.015-.012.032-.012.046-.012m0-.701h-.027l-.073.005c-.29.004-.592.142-.832.388a1.263 1.263 0 0 0-.396.873c-.024.333.101.653.341.886l6.526 6.529-4.219 4.223-6.539-6.543a1.184 1.184 0 0 0-.822-.334c-.401.023-.699.155-.93.402a1.255 1.255 0 0 0-.393.858c-.025.341.096.646.34.892l14.781 14.773c.312.317.633.382.854.382.326 0 .633-.146.914-.423.534-.544.553-1.252.038-1.771l-6.52-6.52 4.227-4.222 6.518 6.524c.315.311.633.374.848.374.331 0 .635-.142.92-.418.348-.35.426-.692.423-.92 0-.218-.063-.54-.382-.851L59.059 74.521a1.19 1.19 0 0 0-.819-.322zm20.584 11.007c-.144 0-.37-.051-.601-.272l-14.784-14.79c-.329-.322-.343-.747-.048-1.141.253-.338.546-.409.747-.409h.059l.281.064 17.33 6.625-11.763-11.76a.802.802 0 0 1-.226-.619.972.972 0 0 1 .287-.63.95.95 0 0 1 .633-.293h.014c.266 0 .455.075.608.224l14.792 14.79c.317.32.34.733.073 1.138-.353.368-.592.421-.743.421h-.082l-.287-.092-17.321-6.593 11.744 11.744c.242.245.283.484.276.643-.016.219-.121.432-.319.635-.21.209-.436.315-.67.315z"/><path d="M70.806 62.331c.128 0 .233.043.313.126l14.787 14.787c.196.199.21.437.034.701l-.073.076c-.125.121-.246.185-.376.185a.456.456 0 0 1-.213-.055L66.392 70.96 79.29 83.869c.245.245.238.503-.038.774-.146.146-.286.215-.428.215a.5.5 0 0 1-.35-.164l-14.787-14.79c-.201-.201-.206-.432-.014-.681.135-.179.292-.27.468-.27.066 0 .145.014.222.046l18.866 7.21-12.925-12.925a.434.434 0 0 1-.126-.35.596.596 0 0 1 .189-.4.59.59 0 0 1 .397-.188c.013-.015.026-.015.042-.015m0-.702h-.027l-.07.004a1.263 1.263 0 0 0-.832.385 1.32 1.32 0 0 0-.404.858c-.016.352.107.672.343.9l10.591 10.591-15.79-6.035a1.373 1.373 0 0 0-.474-.092c-.397 0-.763.196-1.03.551-.399.527-.367 1.151.083 1.602L77.98 85.178c.312.311.633.374.845.374.233 0 .571-.068.923-.422.263-.263.404-.551.418-.859.012-.235-.045-.573-.379-.911L69.211 72.778l15.823 6.024c.104.052.28.101.461.101.224 0 .556-.069.877-.394l.049-.048.121-.135c.35-.537.308-1.14-.128-1.581l-14.786-14.79a1.198 1.198 0 0 0-.822-.326zm20.392 9.225c-1.384-.077-2.789-.824-4.181-2.216-.242-.24-.281-.484-.274-.64.012-.217.117-.43.313-.631a.933.933 0 0 1 .617-.265h.006c.266 0 .469.089.636.251.718.715 1.378 1.199 1.955 1.433.496.201.955.304 1.366.304.665-.048 1.067-.188 1.424-.425.391-.256.73-.534 1.025-.822.853-.854 1.236-1.745 1.17-2.729-.068-.987-.59-1.977-1.552-2.934-.502-.51-1.023-.834-1.551-.982a4.266 4.266 0 0 0-1.145-.164c-.14 0-.271.009-.411.027-.51.055-.982.169-1.407.343l-1.752.698c-.343.158-.798.341-1.364.542a6.533 6.533 0 0 1-1.917.374l-.278.008a7.014 7.014 0 0 1-1.903-.277c-.771-.219-1.525-.691-2.238-1.409-1.216-1.215-1.912-2.554-2.084-3.973-.171-1.602.377-3.055 1.641-4.324 1.22-1.218 2.515-1.83 3.856-1.83l.253.009c1.392.08 2.804.829 4.213 2.236.153.16.242.373.242.615a.936.936 0 0 1-.285.662.91.91 0 0 1-.645.279.855.855 0 0 1-.633-.245c-1.09-1.092-2.139-1.684-3.111-1.75h-.025c-1.001 0-1.83.421-2.654 1.236-.829.834-1.172 1.752-1.051 2.798.104 1.056.633 2.068 1.569 2.993.505.51 1.027.846 1.562 1.015.447.137.868.201 1.281.201l.297-.012a5.533 5.533 0 0 0 1.451-.309c.464-.162.865-.324 1.204-.488l.582-.25c.324-.132.757-.304 1.307-.509a6.99 6.99 0 0 1 2.397-.443c.537 0 1.104.073 1.68.224.783.211 1.515.663 2.247 1.392.595.597 1.059 1.231 1.387 1.898.327.669.53 1.356.602 2.035.123 1.559-.452 2.98-1.716 4.245-1.206 1.203-2.481 1.812-3.783 1.812l-.323-.003z"/><path d="M83.14 51.569c.08 0 .153.004.238.009 1.307.073 2.631.786 3.979 2.134a.507.507 0 0 1 .139.365.57.57 0 0 1-.178.416.567.567 0 0 1-.402.174h-.021a.456.456 0 0 1-.352-.138c-1.165-1.165-2.282-1.782-3.345-1.857a2.133 2.133 0 0 0-.215-.011c-.921 0-1.837.452-2.736 1.348-.9.911-1.286 1.938-1.154 3.086.114 1.143.672 2.212 1.673 3.205.551.551 1.121.919 1.706 1.102.478.144.933.215 1.385.215.109 0 .217-.005.324-.014a6.068 6.068 0 0 0 1.542-.327c.478-.167.891-.34 1.238-.505l.568-.242c.313-.132.74-.297 1.287-.505a6.543 6.543 0 0 1 2.273-.418c.515 0 1.042.068 1.593.213.717.189 1.407.623 2.088 1.3a6.871 6.871 0 0 1 1.318 1.803c.312.637.5 1.279.562 1.916.121 1.449-.423 2.77-1.61 3.957-1.145 1.143-2.323 1.711-3.543 1.711-.087 0-.179-.002-.27-.012-1.31-.072-2.628-.781-3.957-2.112-.244-.245-.233-.503.036-.777a.563.563 0 0 1 .377-.162h.037a.47.47 0 0 1 .34.148c.754.747 1.441 1.255 2.074 1.511.542.224 1.04.333 1.504.333.077 0 .15-.002.23-.014a3 3 0 0 0 1.394-.468 7.05 7.05 0 0 0 1.073-.864c.923-.925 1.344-1.923 1.275-3.002-.073-1.073-.629-2.127-1.652-3.157-.548-.551-1.121-.911-1.706-1.071a4.646 4.646 0 0 0-1.238-.178c-.148 0-.304.009-.447.029a5.71 5.71 0 0 0-1.504.365c-.454.186-.831.336-1.129.446l-.621.249c-.345.162-.797.34-1.346.536-.55.201-1.16.32-1.82.356-.087.005-.172.01-.258.01a6.714 6.714 0 0 1-1.808-.266c-.722-.205-1.414-.64-2.09-1.317-1.165-1.163-1.816-2.42-1.979-3.768-.165-1.489.35-2.833 1.54-4.032 1.137-1.14 2.341-1.72 3.588-1.72m0-.699c-1.437 0-2.816.65-4.103 1.935-1.344 1.351-1.931 2.899-1.741 4.608.176 1.51.909 2.914 2.18 4.185.754.757 1.558 1.261 2.39 1.501a7.406 7.406 0 0 0 1.999.288c.096 0 .194 0 .29-.007.745-.046 1.426-.176 2.028-.397a17.688 17.688 0 0 0 1.405-.562l.587-.237c.286-.114.667-.258 1.131-.445.397-.16.839-.27 1.313-.327a3.42 3.42 0 0 1 .375-.018c.333 0 .683.048 1.053.148.467.13.935.429 1.394.891.907.9 1.394 1.812 1.451 2.707.057.873-.293 1.679-1.069 2.46a6.612 6.612 0 0 1-.964.775 2.206 2.206 0 0 1-1.067.355 1.7 1.7 0 0 1-.164.01c-.365 0-.781-.096-1.233-.279-.535-.219-1.156-.674-1.844-1.358a1.165 1.165 0 0 0-.834-.354c-.375.014-.667.137-.904.363-.263.271-.407.56-.423.865-.012.233.05.581.386.914 1.444 1.448 2.929 2.23 4.407 2.316.101.007.208.01.315.01 1.407 0 2.764-.646 4.039-1.915 1.341-1.339 1.949-2.86 1.813-4.514a6.31 6.31 0 0 0-.633-2.171 7.725 7.725 0 0 0-1.45-1.991c-.777-.772-1.565-1.257-2.406-1.483a7.347 7.347 0 0 0-1.768-.235 7.358 7.358 0 0 0-2.527.461c-.541.205-.986.375-1.305.51l-.575.249c-.358.171-.749.324-1.199.488a5.274 5.274 0 0 1-1.366.283c-.082.01-.172.01-.263.01-.38 0-.766-.06-1.182-.183-.475-.145-.95-.455-1.414-.924-.882-.872-1.375-1.805-1.471-2.777-.109-.943.203-1.769.952-2.527.759-.751 1.513-1.135 2.239-1.135.055 0 .107.002.162.004.889.062 1.862.619 2.893 1.654.146.148.42.341.852.341.356 0 .665-.133.919-.38a1.29 1.29 0 0 0 .388-.911c0-.336-.121-.628-.343-.856-1.473-1.472-2.965-2.258-4.437-2.344-.091.003-.184-.001-.276-.001zm20.516 7.883c-.627 0-1.291-.145-1.977-.423-.808-.334-1.658-.948-2.531-1.832l-7.291-7.283c-1.368-1.366-2.124-2.765-2.243-4.146-.082-1.444.53-2.819 1.805-4.094 1.209-1.205 2.483-1.816 3.79-1.816l.302.013c1.387.081 2.789.828 4.171 2.222l7.297 7.285c.877.882 1.496 1.729 1.824 2.527.327.809.465 1.576.407 2.286a4.334 4.334 0 0 1-.614 1.965 8.153 8.153 0 0 1-1.182 1.517 7.48 7.48 0 0 1-1.498 1.154 4.499 4.499 0 0 1-1.968.621l-.292.004zm-8.497-17.818c-.857 0-1.709.418-2.529 1.244-.904.903-1.303 1.767-1.216 2.641.062.982.645 2.02 1.729 3.104l7.289 7.29c1.094 1.102 2.143 1.69 3.11 1.757h.028c1.014 0 1.826-.414 2.629-1.218.861-.858 1.279-1.764 1.24-2.685-.056-.92-.653-1.955-1.779-3.077l-7.293-7.293c-1.112-1.114-2.143-1.706-3.061-1.759l-.153-.355.006.351z"/><path d="M95.204 39.502c.092 0 .186.004.276.011 1.308.076 2.625.781 3.952 2.119l7.297 7.287c.854.858 1.434 1.668 1.75 2.414.305.748.436 1.46.383 2.123a4.183 4.183 0 0 1-.566 1.809 8.079 8.079 0 0 1-1.129 1.453 7.925 7.925 0 0 1-1.423 1.102 4.039 4.039 0 0 1-1.812.571c-.093.004-.182.009-.274.009-.583 0-1.197-.135-1.845-.397-.746-.306-1.561-.887-2.41-1.755l-7.29-7.287c-1.322-1.316-2.03-2.627-2.143-3.93-.075-1.334.491-2.61 1.702-3.817 1.136-1.138 2.316-1.712 3.532-1.712m8.544 17.828c.928 0 1.822-.443 2.705-1.325.93-.932 1.385-1.919 1.341-2.951-.06-1.015-.688-2.12-1.887-3.312l-7.285-7.292c-1.186-1.179-2.282-1.802-3.29-1.86a4.993 4.993 0 0 0-.173-.004c-.955 0-1.883.446-2.78 1.347-.969.973-1.412 1.946-1.313 2.925.07 1.061.685 2.171 1.834 3.317l7.288 7.292c1.162 1.165 2.279 1.787 3.338 1.855.074.004.15.008.222.008m-8.544-18.529c-1.402 0-2.762.646-4.036 1.918-1.353 1.35-1.995 2.817-1.903 4.354.128 1.494.918 2.963 2.349 4.389l7.285 7.282c.908.919 1.799 1.562 2.645 1.905.73.3 1.438.443 2.109.443.111 0 .218 0 .324-.009a4.813 4.813 0 0 0 2.125-.665 8.271 8.271 0 0 0 1.562-1.208c.476-.48.89-1.017 1.233-1.593a4.77 4.77 0 0 0 .664-2.113c.058-.768-.084-1.588-.435-2.439-.351-.846-.993-1.736-1.899-2.65l-7.297-7.284c-1.443-1.453-2.928-2.236-4.407-2.323-.099-.002-.206-.007-.319-.007zm8.544 17.829a2.02 2.02 0 0 1-.169-.009c-.892-.057-1.861-.617-2.89-1.654L93.4 47.68c-1.025-1.023-1.571-1.992-1.629-2.872-.077-.786.286-1.558 1.115-2.384.761-.766 1.51-1.141 2.282-1.141l.135.002c.829.049 1.786.605 2.837 1.656l7.284 7.295c1.065 1.062 1.63 2.021 1.683 2.857.033.822-.34 1.613-1.135 2.412-.757.746-1.499 1.125-2.224 1.125zm11.887-8.233c-.217 0-.421-.091-.604-.273l-14.79-14.793c-.319-.321-.339-.744-.046-1.134.252-.343.543-.413.742-.413h.066l.283.067 17.33 6.625-11.764-11.762a.807.807 0 0 1-.229-.627.945.945 0 0 1 .295-.623.984.984 0 0 1 .621-.295h.007c.269 0 .466.08.617.228l14.79 14.792c.316.315.35.729.084 1.139-.314.323-.525.419-.747.419h-.08l-.287-.091-17.323-6.593 11.743 11.744c.185.183.277.389.277.61.002.235-.104.45-.315.667-.213.206-.437.313-.67.313z"/><path d="M107.593 25.518c.134 0 .242.042.335.129l14.784 14.79c.201.199.213.433.039.699l-.078.079c-.12.12-.241.181-.377.181a.469.469 0 0 1-.212-.054l-18.891-7.188L116.1 47.056c.242.245.235.501-.043.774-.145.146-.285.22-.423.22-.12 0-.239-.055-.354-.174l-14.784-14.788c-.198-.196-.203-.424-.015-.678.136-.181.291-.272.465-.272.07 0 .146.015.227.044l18.862 7.212-12.922-12.924a.439.439 0 0 1-.133-.357.63.63 0 0 1 .193-.399.618.618 0 0 1 .398-.19c.008-.006.013-.006.022-.006m0-.704h-.048c-.338.023-.63.159-.867.393-.242.246-.382.54-.402.854-.021.348.095.657.338.896l10.594 10.6-15.792-6.038a1.271 1.271 0 0 0-.474-.091c-.397 0-.758.194-1.025.549-.398.536-.37 1.149.08 1.598l14.785 14.79c.314.312.635.379.85.379.329 0 .639-.146.919-.43.278-.273.425-.587.425-.918 0-.22-.067-.537-.384-.85L106.01 35.963l15.832 6.023c.104.058.283.101.456.101.227 0 .549-.067.871-.382l.002-.003.082-.081.051-.049.039-.058c.355-.543.305-1.151-.133-1.582l-14.783-14.784a1.18 1.18 0 0 0-.834-.334z"/></g></svg>